<svg width="764" height="287" viewBox="0 0 764 287" fill="none" xmlns="http://www.w3.org/2000/svg">
<rect width="764" height="287" fill="#F8FAFC"/>
<rect width="762" height="287" fill="#F8FAFC"/>
<g filter="url(#filter0_d_203_4)">
<path d="M252.014 77.448H218.414L211.79 93H198.926L229.166 25.8H241.454L271.79 93H258.734L252.014 77.448ZM247.886 67.656L235.214 38.28L222.638 67.656H247.886ZM324.56 41.736L300.56 97.128C298.32 102.696 295.6 106.6 292.4 108.84C289.2 111.144 285.328 112.296 280.784 112.296C278.224 112.296 275.696 111.88 273.2 111.048C270.704 110.216 268.655 109.064 267.055 107.592L271.855 98.76C273.008 99.848 274.352 100.712 275.888 101.352C277.488 101.992 279.088 102.312 280.688 102.312C282.8 102.312 284.528 101.768 285.872 100.68C287.28 99.592 288.56 97.768 289.712 95.208L290.576 93.192L268.207 41.736H280.688L296.816 79.656L313.04 41.736H324.56ZM363.847 93.96C357.063 93.96 350.919 92.488 345.415 89.544C339.975 86.536 335.687 82.408 332.551 77.16C329.479 71.912 327.943 65.992 327.943 59.4C327.943 52.808 329.511 46.888 332.647 41.64C335.783 36.392 340.071 32.296 345.511 29.352C351.015 26.344 357.159 24.84 363.943 24.84C369.447 24.84 374.471 25.8 379.015 27.72C383.559 29.64 387.399 32.424 390.535 36.072L382.471 43.656C377.607 38.408 371.623 35.784 364.519 35.784C359.911 35.784 355.783 36.808 352.135 38.856C348.487 40.84 345.639 43.624 343.591 47.208C341.543 50.792 340.519 54.856 340.519 59.4C340.519 63.944 341.543 68.008 343.591 71.592C345.639 75.176 348.487 77.992 352.135 80.04C355.783 82.024 359.911 83.016 364.519 83.016C371.623 83.016 377.607 80.36 382.471 75.048L390.535 82.728C387.399 86.376 383.527 89.16 378.919 91.08C374.375 93 369.351 93.96 363.847 93.96ZM490.752 93L490.656 48.456L468.576 85.32H463.008L440.928 49.032V93H429.024V25.8H439.296L465.984 70.344L492.192 25.8H502.464L502.56 93H490.752ZM569.192 41.736V93H557.768V86.472C555.848 88.776 553.448 90.568 550.568 91.848C547.688 93.064 544.584 93.672 541.256 93.672C534.408 93.672 529 91.784 525.032 88.008C521.128 84.168 519.176 78.504 519.176 71.016V41.736H531.176V69.384C531.176 73.992 532.2 77.448 534.248 79.752C536.36 81.992 539.336 83.112 543.176 83.112C547.464 83.112 550.856 81.8 553.352 79.176C555.912 76.488 557.192 72.648 557.192 67.656V41.736H569.192ZM596.327 49.224C599.783 43.848 605.863 41.16 614.567 41.16V52.584C613.543 52.392 612.615 52.296 611.783 52.296C607.111 52.296 603.463 53.672 600.839 56.424C598.215 59.112 596.903 63.016 596.903 68.136V93H584.903V41.736H596.327V49.224ZM624.747 41.736H636.747V93H624.747V41.736ZM630.795 33.288C628.619 33.288 626.795 32.616 625.323 31.272C623.851 29.864 623.115 28.136 623.115 26.088C623.115 24.04 623.851 22.344 625.323 21C626.795 19.592 628.619 18.888 630.795 18.888C632.971 18.888 634.795 19.56 636.267 20.904C637.739 22.184 638.475 23.816 638.475 25.8C638.475 27.912 637.739 29.704 636.267 31.176C634.859 32.584 633.035 33.288 630.795 33.288ZM652.497 21.768H664.497V93H652.497V21.768ZM680.247 21.768H692.247V93H680.247V21.768ZM731.037 93.672C725.853 93.672 721.181 92.552 717.021 90.312C712.861 88.072 709.597 84.968 707.229 81C704.925 76.968 703.773 72.424 703.773 67.368C703.773 62.312 704.925 57.8 707.229 53.832C709.597 49.864 712.861 46.76 717.021 44.52C721.181 42.28 725.853 41.16 731.037 41.16C736.285 41.16 740.989 42.28 745.149 44.52C749.309 46.76 752.541 49.864 754.845 53.832C757.213 57.8 758.397 62.312 758.397 67.368C758.397 72.424 757.213 76.968 754.845 81C752.541 84.968 749.309 88.072 745.149 90.312C740.989 92.552 736.285 93.672 731.037 93.672ZM731.037 83.4C735.453 83.4 739.101 81.928 741.981 78.984C744.861 76.04 746.301 72.168 746.301 67.368C746.301 62.568 744.861 58.696 741.981 55.752C739.101 52.808 735.453 51.336 731.037 51.336C726.621 51.336 722.973 52.808 720.093 55.752C717.277 58.696 715.869 62.568 715.869 67.368C715.869 72.168 717.277 76.04 720.093 78.984C722.973 81.928 726.621 83.4 731.037 83.4ZM105.097 210.96C98.3128 210.96 92.1688 209.488 86.6648 206.544C81.2248 203.536 76.9368 199.408 73.8008 194.16C70.7288 188.912 69.1928 182.992 69.1928 176.4C69.1928 169.808 70.7608 163.888 73.8968 158.64C77.0328 153.392 81.3208 149.296 86.7608 146.352C92.2648 143.344 98.4088 141.84 105.193 141.84C110.697 141.84 115.721 142.8 120.265 144.72C124.809 146.64 128.649 149.424 131.785 153.072L123.721 160.656C118.857 155.408 112.873 152.784 105.769 152.784C101.161 152.784 97.0328 153.808 93.3848 155.856C89.7368 157.84 86.8888 160.624 84.8408 164.208C82.7928 167.792 81.7688 171.856 81.7688 176.4C81.7688 180.944 82.7928 185.008 84.8408 188.592C86.8888 192.176 89.7368 194.992 93.3848 197.04C97.0328 199.024 101.161 200.016 105.769 200.016C112.873 200.016 118.857 197.36 123.721 192.048L131.785 199.728C128.649 203.376 124.777 206.16 120.169 208.08C115.625 210 110.601 210.96 105.097 210.96ZM163.756 210.672C158.572 210.672 153.9 209.552 149.74 207.312C145.58 205.072 142.316 201.968 139.948 198C137.644 193.968 136.492 189.424 136.492 184.368C136.492 179.312 137.644 174.8 139.948 170.832C142.316 166.864 145.58 163.76 149.74 161.52C153.9 159.28 158.572 158.16 163.756 158.16C169.004 158.16 173.708 159.28 177.868 161.52C182.028 163.76 185.26 166.864 187.564 170.832C189.932 174.8 191.116 179.312 191.116 184.368C191.116 189.424 189.932 193.968 187.564 198C185.26 201.968 182.028 205.072 177.868 207.312C173.708 209.552 169.004 210.672 163.756 210.672ZM163.756 200.4C168.172 200.4 171.82 198.928 174.7 195.984C177.58 193.04 179.02 189.168 179.02 184.368C179.02 179.568 177.58 175.696 174.7 172.752C171.82 169.808 168.172 168.336 163.756 168.336C159.34 168.336 155.692 169.808 152.812 172.752C149.996 175.696 148.588 179.568 148.588 184.368C148.588 189.168 149.996 193.04 152.812 195.984C155.692 198.928 159.34 200.4 163.756 200.4ZM231.679 158.16C238.143 158.16 243.327 160.048 247.231 163.824C251.135 167.6 253.087 173.2 253.087 180.624V210H241.087V182.16C241.087 177.68 240.031 174.32 237.919 172.08C235.807 169.776 232.799 168.624 228.895 168.624C224.479 168.624 220.991 169.968 218.431 172.656C215.871 175.28 214.591 179.088 214.591 184.08V210H202.591V158.736H214.015V165.36C215.999 162.992 218.495 161.2 221.503 159.984C224.511 158.768 227.903 158.16 231.679 158.16ZM284.15 210.672C279.99 210.672 275.926 210.128 271.958 209.04C267.99 207.952 264.822 206.576 262.454 204.912L267.062 195.792C269.366 197.328 272.118 198.576 275.318 199.536C278.582 200.432 281.782 200.88 284.918 200.88C292.086 200.88 295.67 198.992 295.67 195.216C295.67 193.424 294.742 192.176 292.886 191.472C291.094 190.768 288.182 190.096 284.15 189.456C279.926 188.816 276.47 188.08 273.782 187.248C271.158 186.416 268.854 184.976 266.87 182.928C264.95 180.816 263.99 177.904 263.99 174.192C263.99 169.328 266.006 165.456 270.038 162.576C274.134 159.632 279.638 158.16 286.55 158.16C290.07 158.16 293.59 158.576 297.11 159.408C300.63 160.176 303.51 161.232 305.75 162.576L301.142 171.696C296.79 169.136 291.894 167.856 286.454 167.856C282.934 167.856 280.246 168.4 278.39 169.488C276.598 170.512 275.702 171.888 275.702 173.616C275.702 175.536 276.662 176.912 278.582 177.744C280.566 178.512 283.606 179.248 287.702 179.952C291.798 180.592 295.158 181.328 297.782 182.16C300.406 182.992 302.646 184.4 304.502 186.384C306.422 188.368 307.382 191.184 307.382 194.832C307.382 199.632 305.302 203.472 301.142 206.352C296.982 209.232 291.318 210.672 284.15 210.672ZM348.532 207.216C347.124 208.368 345.396 209.232 343.348 209.808C341.364 210.384 339.252 210.672 337.012 210.672C331.38 210.672 327.028 209.2 323.956 206.256C320.884 203.312 319.348 199.024 319.348 193.392V168.72H310.9V159.12H319.348V147.408H331.348V159.12H345.076V168.72H331.348V193.104C331.348 195.6 331.956 197.52 333.172 198.864C334.388 200.144 336.148 200.784 338.452 200.784C341.14 200.784 343.38 200.08 345.172 198.672L348.532 207.216ZM369.827 166.224C373.283 160.848 379.363 158.16 388.067 158.16V169.584C387.043 169.392 386.115 169.296 385.283 169.296C380.611 169.296 376.963 170.672 374.339 173.424C371.715 176.112 370.403 180.016 370.403 185.136V210H358.403V158.736H369.827V166.224ZM448.348 158.736V210H436.924V203.472C435.004 205.776 432.604 207.568 429.724 208.848C426.844 210.064 423.74 210.672 420.412 210.672C413.564 210.672 408.156 208.784 404.188 205.008C400.284 201.168 398.332 195.504 398.332 188.016V158.736H410.332V186.384C410.332 190.992 411.356 194.448 413.404 196.752C415.516 198.992 418.492 200.112 422.332 200.112C426.62 200.112 430.012 198.8 432.508 196.176C435.068 193.488 436.348 189.648 436.348 184.656V158.736H448.348ZM487.58 210.672C482.268 210.672 477.5 209.552 473.276 207.312C469.052 205.072 465.756 201.968 463.388 198C461.02 193.968 459.836 189.424 459.836 184.368C459.836 179.312 461.02 174.8 463.388 170.832C465.756 166.864 469.02 163.76 473.18 161.52C477.404 159.28 482.204 158.16 487.58 158.16C492.636 158.16 497.052 159.184 500.828 161.232C504.668 163.28 507.548 166.224 509.468 170.064L500.252 175.44C498.78 173.072 496.924 171.312 494.684 170.16C492.508 168.944 490.108 168.336 487.484 168.336C483.004 168.336 479.292 169.808 476.348 172.752C473.404 175.632 471.932 179.504 471.932 184.368C471.932 189.232 473.372 193.136 476.252 196.08C479.196 198.96 482.94 200.4 487.484 200.4C490.108 200.4 492.508 199.824 494.684 198.672C496.924 197.456 498.78 195.664 500.252 193.296L509.468 198.672C507.484 202.512 504.572 205.488 500.732 207.6C496.956 209.648 492.572 210.672 487.58 210.672ZM551.313 207.216C549.905 208.368 548.177 209.232 546.129 209.808C544.145 210.384 542.033 210.672 539.793 210.672C534.161 210.672 529.809 209.2 526.737 206.256C523.665 203.312 522.129 199.024 522.129 193.392V168.72H513.681V159.12H522.129V147.408H534.129V159.12H547.857V168.72H534.129V193.104C534.129 195.6 534.737 197.52 535.953 198.864C537.169 200.144 538.929 200.784 541.233 200.784C543.921 200.784 546.161 200.08 547.953 198.672L551.313 207.216ZM582.537 210.672C577.353 210.672 572.681 209.552 568.521 207.312C564.361 205.072 561.097 201.968 558.729 198C556.425 193.968 555.273 189.424 555.273 184.368C555.273 179.312 556.425 174.8 558.729 170.832C561.097 166.864 564.361 163.76 568.521 161.52C572.681 159.28 577.353 158.16 582.537 158.16C587.785 158.16 592.489 159.28 596.649 161.52C600.809 163.76 604.041 166.864 606.345 170.832C608.713 174.8 609.897 179.312 609.897 184.368C609.897 189.424 608.713 193.968 606.345 198C604.041 201.968 600.809 205.072 596.649 207.312C592.489 209.552 587.785 210.672 582.537 210.672ZM582.537 200.4C586.953 200.4 590.601 198.928 593.481 195.984C596.361 193.04 597.801 189.168 597.801 184.368C597.801 179.568 596.361 175.696 593.481 172.752C590.601 169.808 586.953 168.336 582.537 168.336C578.121 168.336 574.473 169.808 571.593 172.752C568.777 175.696 567.369 179.568 567.369 184.368C567.369 189.168 568.777 193.04 571.593 195.984C574.473 198.928 578.121 200.4 582.537 200.4ZM632.796 166.224C636.252 160.848 642.332 158.16 651.036 158.16V169.584C650.012 169.392 649.084 169.296 648.252 169.296C643.58 169.296 639.932 170.672 637.308 173.424C634.684 176.112 633.372 180.016 633.372 185.136V210H621.372V158.736H632.796V166.224ZM708.939 184.656C708.939 185.488 708.875 186.672 708.747 188.208H668.523C669.227 191.984 671.051 194.992 673.995 197.232C677.003 199.408 680.715 200.496 685.131 200.496C690.763 200.496 695.403 198.64 699.051 194.928L705.483 202.32C703.179 205.072 700.267 207.152 696.747 208.56C693.227 209.968 689.259 210.672 684.843 210.672C679.211 210.672 674.251 209.552 669.963 207.312C665.675 205.072 662.347 201.968 659.979 198C657.675 193.968 656.523 189.424 656.523 184.368C656.523 179.376 657.643 174.896 659.883 170.928C662.187 166.896 665.355 163.76 669.387 161.52C673.419 159.28 677.963 158.16 683.019 158.16C688.011 158.16 692.459 159.28 696.363 161.52C700.331 163.696 703.403 166.8 705.579 170.832C707.819 174.8 708.939 179.408 708.939 184.656ZM683.019 167.76C679.179 167.76 675.915 168.912 673.227 171.216C670.603 173.456 669.003 176.464 668.427 180.24H697.515C697.003 176.528 695.435 173.52 692.811 171.216C690.187 168.912 686.923 167.76 683.019 167.76ZM736.306 210.672C732.146 210.672 728.082 210.128 724.114 209.04C720.146 207.952 716.978 206.576 714.61 204.912L719.218 195.792C721.522 197.328 724.274 198.576 727.474 199.536C730.738 200.432 733.938 200.88 737.074 200.88C744.242 200.88 747.826 198.992 747.826 195.216C747.826 193.424 746.898 192.176 745.042 191.472C743.25 190.768 740.338 190.096 736.306 189.456C732.082 188.816 728.626 188.08 725.938 187.248C723.314 186.416 721.01 184.976 719.026 182.928C717.106 180.816 716.146 177.904 716.146 174.192C716.146 169.328 718.162 165.456 722.194 162.576C726.29 159.632 731.794 158.16 738.706 158.16C742.226 158.16 745.746 158.576 749.266 159.408C752.786 160.176 755.666 161.232 757.906 162.576L753.298 171.696C748.946 169.136 744.05 167.856 738.61 167.856C735.09 167.856 732.402 168.4 730.546 169.488C728.754 170.512 727.858 171.888 727.858 173.616C727.858 175.536 728.818 176.912 730.738 177.744C732.722 178.512 735.762 179.248 739.858 179.952C743.954 180.592 747.314 181.328 749.938 182.16C752.562 182.992 754.802 184.4 756.658 186.384C758.578 188.368 759.538 191.184 759.538 194.832C759.538 199.632 757.458 203.472 753.298 206.352C749.138 209.232 743.474 210.672 736.306 210.672Z" fill="black"/>
</g>
<defs>
<filter id="filter0_d_203_4" x="65.1927" y="18.888" width="698.345" height="200.072" filterUnits="userSpaceOnUse" color-interpolation-filters="sRGB">
<feFlood flood-opacity="0" result="BackgroundImageFix"/>
<feColorMatrix in="SourceAlpha" type="matrix" values="0 0 0 0 0 0 0 0 0 0 0 0 0 0 0 0 0 0 127 0" result="hardAlpha"/>
<feOffset dy="4"/>
<feGaussianBlur stdDeviation="2"/>
<feComposite in2="hardAlpha" operator="out"/>
<feColorMatrix type="matrix" values="0 0 0 0 0 0 0 0 0 0 0 0 0 0 0 0 0 0 0.25 0"/>
<feBlend mode="normal" in2="BackgroundImageFix" result="effect1_dropShadow_203_4"/>
<feBlend mode="normal" in="SourceGraphic" in2="effect1_dropShadow_203_4" result="shape"/>
</filter>
</defs>
</svg>
