<svg width="609" height="177" viewBox="0 0 609 177" fill="none" xmlns="http://www.w3.org/2000/svg">
<rect width="609" height="177" fill="#F8FAFC"/>
<rect width="609" height="169" fill="#F8FAFC"/>
<g filter="url(#filter0_d_203_4)">
<path d="M48.9351 168.78C43.4231 168.78 38.4311 167.584 33.9591 165.192C29.5391 162.748 26.0551 159.394 23.5071 155.13C21.0111 150.866 19.7631 146.056 19.7631 140.7C19.7631 135.344 21.0371 130.534 23.5851 126.27C26.1331 122.006 29.6171 118.678 34.0371 116.286C38.5091 113.842 43.5011 112.62 49.0131 112.62C53.4851 112.62 57.5671 113.4 61.2591 114.96C64.9511 116.52 68.0711 118.782 70.6191 121.746L64.0671 127.908C60.1151 123.644 55.2531 121.512 49.4811 121.512C45.7371 121.512 42.3831 122.344 39.4191 124.008C36.4551 125.62 34.1411 127.882 32.4771 130.794C30.8131 133.706 29.9811 137.008 29.9811 140.7C29.9811 144.392 30.8131 147.694 32.4771 150.606C34.1411 153.518 36.4551 155.806 39.4191 157.47C42.3831 159.082 45.7371 159.888 49.4811 159.888C55.2531 159.888 60.1151 157.73 64.0671 153.414L70.6191 159.654C68.0711 162.618 64.9251 164.88 61.1811 166.44C57.4891 168 53.4071 168.78 48.9351 168.78ZM96.5955 168.546C92.3835 168.546 88.5875 167.636 85.2075 165.816C81.8275 163.996 79.1755 161.474 77.2515 158.25C75.3795 154.974 74.4435 151.282 74.4435 147.174C74.4435 143.066 75.3795 139.4 77.2515 136.176C79.1755 132.952 81.8275 130.43 85.2075 128.61C88.5875 126.79 92.3835 125.88 96.5955 125.88C100.859 125.88 104.681 126.79 108.061 128.61C111.441 130.43 114.067 132.952 115.939 136.176C117.863 139.4 118.825 143.066 118.825 147.174C118.825 151.282 117.863 154.974 115.939 158.25C114.067 161.474 111.441 163.996 108.061 165.816C104.681 167.636 100.859 168.546 96.5955 168.546ZM96.5955 160.2C100.183 160.2 103.147 159.004 105.487 156.612C107.827 154.22 108.997 151.074 108.997 147.174C108.997 143.274 107.827 140.128 105.487 137.736C103.147 135.344 100.183 134.148 96.5955 134.148C93.0075 134.148 90.0435 135.344 87.7035 137.736C85.4155 140.128 84.2715 143.274 84.2715 147.174C84.2715 151.074 85.4155 154.22 87.7035 156.612C90.0435 159.004 93.0075 160.2 96.5955 160.2ZM151.783 125.88C157.035 125.88 161.247 127.414 164.419 130.482C167.591 133.55 169.177 138.1 169.177 144.132V168H159.427V145.38C159.427 141.74 158.569 139.01 156.853 137.19C155.137 135.318 152.693 134.382 149.521 134.382C145.933 134.382 143.099 135.474 141.019 137.658C138.939 139.79 137.899 142.884 137.899 146.94V168H128.149V126.348H137.431V131.73C139.043 129.806 141.071 128.35 143.515 127.362C145.959 126.374 148.715 125.88 151.783 125.88ZM194.415 168.546C191.035 168.546 187.733 168.104 184.509 167.22C181.285 166.336 178.711 165.218 176.787 163.866L180.531 156.456C182.403 157.704 184.639 158.718 187.239 159.498C189.891 160.226 192.491 160.59 195.039 160.59C200.863 160.59 203.775 159.056 203.775 155.988C203.775 154.532 203.021 153.518 201.513 152.946C200.057 152.374 197.691 151.828 194.415 151.308C190.983 150.788 188.175 150.19 185.991 149.514C183.859 148.838 181.987 147.668 180.375 146.004C178.815 144.288 178.035 141.922 178.035 138.906C178.035 134.954 179.673 131.808 182.949 129.468C186.277 127.076 190.749 125.88 196.365 125.88C199.225 125.88 202.085 126.218 204.945 126.894C207.805 127.518 210.145 128.376 211.965 129.468L208.221 136.878C204.685 134.798 200.707 133.758 196.287 133.758C193.427 133.758 191.243 134.2 189.735 135.084C188.279 135.916 187.551 137.034 187.551 138.438C187.551 139.998 188.331 141.116 189.891 141.792C191.503 142.416 193.973 143.014 197.301 143.586C200.629 144.106 203.359 144.704 205.491 145.38C207.623 146.056 209.443 147.2 210.951 148.812C212.511 150.424 213.291 152.712 213.291 155.676C213.291 159.576 211.601 162.696 208.221 165.036C204.841 167.376 200.239 168.546 194.415 168.546ZM246.726 165.738C245.582 166.674 244.178 167.376 242.514 167.844C240.902 168.312 239.186 168.546 237.366 168.546C232.79 168.546 229.254 167.35 226.758 164.958C224.262 162.566 223.014 159.082 223.014 154.506V134.46H216.15V126.66H223.014V117.144H232.764V126.66H243.918V134.46H232.764V154.272C232.764 156.3 233.258 157.86 234.246 158.952C235.234 159.992 236.664 160.512 238.536 160.512C240.72 160.512 242.54 159.94 243.996 158.796L246.726 165.738ZM264.029 132.432C266.837 128.064 271.777 125.88 278.849 125.88V135.162C278.017 135.006 277.263 134.928 276.587 134.928C272.791 134.928 269.827 136.046 267.695 138.282C265.563 140.466 264.497 143.638 264.497 147.798V168H254.747V126.348H264.029V132.432ZM327.826 126.348V168H318.544V162.696C316.984 164.568 315.034 166.024 312.694 167.064C310.354 168.052 307.832 168.546 305.128 168.546C299.564 168.546 295.17 167.012 291.946 163.944C288.774 160.824 287.188 156.222 287.188 150.138V126.348H296.938V148.812C296.938 152.556 297.77 155.364 299.434 157.236C301.15 159.056 303.568 159.966 306.688 159.966C310.172 159.966 312.928 158.9 314.956 156.768C317.036 154.584 318.076 151.464 318.076 147.408V126.348H327.826ZM359.702 168.546C355.386 168.546 351.512 167.636 348.08 165.816C344.648 163.996 341.97 161.474 340.046 158.25C338.122 154.974 337.16 151.282 337.16 147.174C337.16 143.066 338.122 139.4 340.046 136.176C341.97 132.952 344.622 130.43 348.002 128.61C351.434 126.79 355.334 125.88 359.702 125.88C363.81 125.88 367.398 126.712 370.466 128.376C373.586 130.04 375.926 132.432 377.486 135.552L369.998 139.92C368.802 137.996 367.294 136.566 365.474 135.63C363.706 134.642 361.756 134.148 359.624 134.148C355.984 134.148 352.968 135.344 350.576 137.736C348.184 140.076 346.988 143.222 346.988 147.174C346.988 151.126 348.158 154.298 350.498 156.69C352.89 159.03 355.932 160.2 359.624 160.2C361.756 160.2 363.706 159.732 365.474 158.796C367.294 157.808 368.802 156.352 369.998 154.428L377.486 158.796C375.874 161.916 373.508 164.334 370.388 166.05C367.32 167.714 363.758 168.546 359.702 168.546ZM411.486 165.738C410.342 166.674 408.938 167.376 407.274 167.844C405.662 168.312 403.946 168.546 402.126 168.546C397.55 168.546 394.014 167.35 391.518 164.958C389.022 162.566 387.774 159.082 387.774 154.506V134.46H380.91V126.66H387.774V117.144H397.524V126.66H408.678V134.46H397.524V154.272C397.524 156.3 398.018 157.86 399.006 158.952C399.994 159.992 401.424 160.512 403.296 160.512C405.48 160.512 407.3 159.94 408.756 158.796L411.486 165.738ZM436.855 168.546C432.643 168.546 428.847 167.636 425.467 165.816C422.087 163.996 419.435 161.474 417.511 158.25C415.639 154.974 414.703 151.282 414.703 147.174C414.703 143.066 415.639 139.4 417.511 136.176C419.435 132.952 422.087 130.43 425.467 128.61C428.847 126.79 432.643 125.88 436.855 125.88C441.119 125.88 444.941 126.79 448.321 128.61C451.701 130.43 454.327 132.952 456.199 136.176C458.123 139.4 459.085 143.066 459.085 147.174C459.085 151.282 458.123 154.974 456.199 158.25C454.327 161.474 451.701 163.996 448.321 165.816C444.941 167.636 441.119 168.546 436.855 168.546ZM436.855 160.2C440.443 160.2 443.407 159.004 445.747 156.612C448.087 154.22 449.257 151.074 449.257 147.174C449.257 143.274 448.087 140.128 445.747 137.736C443.407 135.344 440.443 134.148 436.855 134.148C433.267 134.148 430.303 135.344 427.963 137.736C425.675 140.128 424.531 143.274 424.531 147.174C424.531 151.074 425.675 154.22 427.963 156.612C430.303 159.004 433.267 160.2 436.855 160.2ZM477.691 132.432C480.499 128.064 485.439 125.88 492.511 125.88V135.162C491.679 135.006 490.925 134.928 490.249 134.928C486.453 134.928 483.489 136.046 481.357 138.282C479.225 140.466 478.159 143.638 478.159 147.798V168H468.409V126.348H477.691V132.432ZM539.557 147.408C539.557 148.084 539.505 149.046 539.401 150.294H506.719C507.291 153.362 508.773 155.806 511.165 157.626C513.609 159.394 516.625 160.278 520.213 160.278C524.789 160.278 528.559 158.77 531.523 155.754L536.749 161.76C534.877 163.996 532.511 165.686 529.651 166.83C526.791 167.974 523.567 168.546 519.979 168.546C515.403 168.546 511.373 167.636 507.889 165.816C504.405 163.996 501.701 161.474 499.777 158.25C497.905 154.974 496.969 151.282 496.969 147.174C496.969 143.118 497.879 139.478 499.699 136.254C501.571 132.978 504.145 130.43 507.421 128.61C510.697 126.79 514.389 125.88 518.497 125.88C522.553 125.88 526.167 126.79 529.339 128.61C532.563 130.378 535.059 132.9 536.827 136.176C538.647 139.4 539.557 143.144 539.557 147.408ZM518.497 133.68C515.377 133.68 512.725 134.616 510.541 136.488C508.409 138.308 507.109 140.752 506.641 143.82H530.275C529.859 140.804 528.585 138.36 526.453 136.488C524.321 134.616 521.669 133.68 518.497 133.68ZM561.792 168.546C558.412 168.546 555.11 168.104 551.886 167.22C548.662 166.336 546.088 165.218 544.164 163.866L547.908 156.456C549.78 157.704 552.016 158.718 554.616 159.498C557.268 160.226 559.868 160.59 562.416 160.59C568.24 160.59 571.152 159.056 571.152 155.988C571.152 154.532 570.398 153.518 568.89 152.946C567.434 152.374 565.068 151.828 561.792 151.308C558.36 150.788 555.552 150.19 553.368 149.514C551.236 148.838 549.364 147.668 547.752 146.004C546.192 144.288 545.412 141.922 545.412 138.906C545.412 134.954 547.05 131.808 550.326 129.468C553.654 127.076 558.126 125.88 563.742 125.88C566.602 125.88 569.462 126.218 572.322 126.894C575.182 127.518 577.522 128.376 579.342 129.468L575.598 136.878C572.062 134.798 568.084 133.758 563.664 133.758C560.804 133.758 558.62 134.2 557.112 135.084C555.656 135.916 554.928 137.034 554.928 138.438C554.928 139.998 555.708 141.116 557.268 141.792C558.88 142.416 561.35 143.014 564.678 143.586C568.006 144.106 570.736 144.704 572.868 145.38C575 146.056 576.82 147.2 578.328 148.812C579.888 150.424 580.668 152.712 580.668 155.676C580.668 159.576 578.978 162.696 575.598 165.036C572.218 167.376 567.616 168.546 561.792 168.546Z" fill="black"/>
</g>
<g filter="url(#filter1_d_203_4)">
<path d="M75.8111 77.448H42.2111L35.5871 93H22.7231L52.9631 25.8H65.2511L95.5871 93H82.5311L75.8111 77.448ZM71.6831 67.656L59.0111 38.28L46.4351 67.656H71.6831ZM148.356 41.736L124.356 97.128C122.116 102.696 119.396 106.6 116.196 108.84C112.996 111.144 109.124 112.296 104.58 112.296C102.02 112.296 99.4924 111.88 96.9964 111.048C94.5004 110.216 92.4524 109.064 90.8524 107.592L95.6524 98.76C96.8044 99.848 98.1484 100.712 99.6844 101.352C101.284 101.992 102.884 102.312 104.484 102.312C106.596 102.312 108.324 101.768 109.668 100.68C111.076 99.592 112.356 97.768 113.508 95.208L114.372 93.192L92.0044 41.736H104.484L120.612 79.656L136.836 41.736H148.356ZM187.644 93.96C180.86 93.96 174.716 92.488 169.212 89.544C163.772 86.536 159.484 82.408 156.348 77.16C153.276 71.912 151.74 65.992 151.74 59.4C151.74 52.808 153.308 46.888 156.444 41.64C159.58 36.392 163.868 32.296 169.308 29.352C174.812 26.344 180.956 24.84 187.74 24.84C193.244 24.84 198.268 25.8 202.812 27.72C207.356 29.64 211.196 32.424 214.332 36.072L206.268 43.656C201.404 38.408 195.42 35.784 188.316 35.784C183.708 35.784 179.58 36.808 175.932 38.856C172.284 40.84 169.436 43.624 167.388 47.208C165.34 50.792 164.316 54.856 164.316 59.4C164.316 63.944 165.34 68.008 167.388 71.592C169.436 75.176 172.284 77.992 175.932 80.04C179.58 82.024 183.708 83.016 188.316 83.016C195.42 83.016 201.404 80.36 206.268 75.048L214.332 82.728C211.196 86.376 207.324 89.16 202.716 91.08C198.172 93 193.148 93.96 187.644 93.96ZM314.549 93L314.453 48.456L292.373 85.32H286.805L264.725 49.032V93H252.821V25.8H263.093L289.781 70.344L315.989 25.8H326.261L326.357 93H314.549ZM392.988 41.736V93H381.564V86.472C379.644 88.776 377.244 90.568 374.364 91.848C371.484 93.064 368.38 93.672 365.052 93.672C358.204 93.672 352.796 91.784 348.828 88.008C344.924 84.168 342.972 78.504 342.972 71.016V41.736H354.972V69.384C354.972 73.992 355.996 77.448 358.044 79.752C360.156 81.992 363.132 83.112 366.972 83.112C371.26 83.112 374.652 81.8 377.148 79.176C379.708 76.488 380.988 72.648 380.988 67.656V41.736H392.988ZM420.124 49.224C423.58 43.848 429.66 41.16 438.364 41.16V52.584C437.34 52.392 436.412 52.296 435.58 52.296C430.908 52.296 427.26 53.672 424.636 56.424C422.012 59.112 420.7 63.016 420.7 68.136V93H408.7V41.736H420.124V49.224ZM448.544 41.736H460.544V93H448.544V41.736ZM454.592 33.288C452.416 33.288 450.592 32.616 449.12 31.272C447.648 29.864 446.912 28.136 446.912 26.088C446.912 24.04 447.648 22.344 449.12 21C450.592 19.592 452.416 18.888 454.592 18.888C456.768 18.888 458.592 19.56 460.064 20.904C461.536 22.184 462.272 23.816 462.272 25.8C462.272 27.912 461.536 29.704 460.064 31.176C458.656 32.584 456.832 33.288 454.592 33.288ZM476.294 21.768H488.294V93H476.294V21.768ZM504.044 21.768H516.044V93H504.044V21.768ZM554.834 93.672C549.65 93.672 544.978 92.552 540.818 90.312C536.658 88.072 533.394 84.968 531.026 81C528.722 76.968 527.57 72.424 527.57 67.368C527.57 62.312 528.722 57.8 531.026 53.832C533.394 49.864 536.658 46.76 540.818 44.52C544.978 42.28 549.65 41.16 554.834 41.16C560.082 41.16 564.786 42.28 568.946 44.52C573.106 46.76 576.338 49.864 578.642 53.832C581.01 57.8 582.194 62.312 582.194 67.368C582.194 72.424 581.01 76.968 578.642 81C576.338 84.968 573.106 88.072 568.946 90.312C564.786 92.552 560.082 93.672 554.834 93.672ZM554.834 83.4C559.25 83.4 562.898 81.928 565.778 78.984C568.658 76.04 570.098 72.168 570.098 67.368C570.098 62.568 568.658 58.696 565.778 55.752C562.898 52.808 559.25 51.336 554.834 51.336C550.418 51.336 546.77 52.808 543.89 55.752C541.074 58.696 539.666 62.568 539.666 67.368C539.666 72.168 541.074 76.04 543.89 78.984C546.77 81.928 550.418 83.4 554.834 83.4Z" fill="#0F61C8"/>
</g>
<defs>
<filter id="filter0_d_203_4" x="15.7631" y="112.62" width="568.905" height="64.16" filterUnits="userSpaceOnUse" color-interpolation-filters="sRGB">
<feFlood flood-opacity="0" result="BackgroundImageFix"/>
<feColorMatrix in="SourceAlpha" type="matrix" values="0 0 0 0 0 0 0 0 0 0 0 0 0 0 0 0 0 0 127 0" result="hardAlpha"/>
<feOffset dy="4"/>
<feGaussianBlur stdDeviation="2"/>
<feComposite in2="hardAlpha" operator="out"/>
<feColorMatrix type="matrix" values="0 0 0 0 0 0 0 0 0 0 0 0 0 0 0 0 0 0 0.25 0"/>
<feBlend mode="normal" in2="BackgroundImageFix" result="effect1_dropShadow_203_4"/>
<feBlend mode="normal" in="SourceGraphic" in2="effect1_dropShadow_203_4" result="shape"/>
</filter>
<filter id="filter1_d_203_4" x="18.7231" y="18.888" width="567.471" height="101.408" filterUnits="userSpaceOnUse" color-interpolation-filters="sRGB">
<feFlood flood-opacity="0" result="BackgroundImageFix"/>
<feColorMatrix in="SourceAlpha" type="matrix" values="0 0 0 0 0 0 0 0 0 0 0 0 0 0 0 0 0 0 127 0" result="hardAlpha"/>
<feOffset dy="4"/>
<feGaussianBlur stdDeviation="2"/>
<feComposite in2="hardAlpha" operator="out"/>
<feColorMatrix type="matrix" values="0 0 0 0 0 0 0 0 0 0 0 0 0 0 0 0 0 0 0.25 0"/>
<feBlend mode="normal" in2="BackgroundImageFix" result="effect1_dropShadow_203_4"/>
<feBlend mode="normal" in="SourceGraphic" in2="effect1_dropShadow_203_4" result="shape"/>
</filter>
</defs>
</svg>
