<svg width="1432" height="135" viewBox="0 0 1432 135" fill="none" xmlns="http://www.w3.org/2000/svg">
<rect width="1432" height="135" fill="#F8FAFC"/>
<rect width="1432" height="135" fill="#F8FAFC"/>
<g filter="url(#filter0_d_203_4)">
<path d="M125.53 77.448H91.9299L85.3059 93H72.4419L102.682 25.8H114.97L145.306 93H132.25L125.53 77.448ZM121.402 67.656L108.73 38.28L96.1539 67.656H121.402ZM198.075 41.736L174.075 97.128C171.835 102.696 169.115 106.6 165.915 108.84C162.715 111.144 158.843 112.296 154.299 112.296C151.739 112.296 149.211 111.88 146.715 111.048C144.219 110.216 142.171 109.064 140.571 107.592L145.371 98.76C146.523 99.848 147.867 100.712 149.403 101.352C151.003 101.992 152.603 102.312 154.203 102.312C156.315 102.312 158.043 101.768 159.387 100.68C160.795 99.592 162.075 97.768 163.227 95.208L164.091 93.192L141.723 41.736H154.203L170.331 79.656L186.555 41.736H198.075ZM237.362 93.96C230.578 93.96 224.434 92.488 218.93 89.544C213.49 86.536 209.202 82.408 206.066 77.16C202.994 71.912 201.458 65.992 201.458 59.4C201.458 52.808 203.026 46.888 206.162 41.64C209.298 36.392 213.586 32.296 219.026 29.352C224.53 26.344 230.674 24.84 237.458 24.84C242.962 24.84 247.986 25.8 252.53 27.72C257.074 29.64 260.914 32.424 264.05 36.072L255.986 43.656C251.122 38.408 245.138 35.784 238.034 35.784C233.426 35.784 229.298 36.808 225.65 38.856C222.002 40.84 219.154 43.624 217.106 47.208C215.058 50.792 214.034 54.856 214.034 59.4C214.034 63.944 215.058 68.008 217.106 71.592C219.154 75.176 222.002 77.992 225.65 80.04C229.298 82.024 233.426 83.016 238.034 83.016C245.138 83.016 251.122 80.36 255.986 75.048L264.05 82.728C260.914 86.376 257.042 89.16 252.434 91.08C247.89 93 242.866 93.96 237.362 93.96ZM364.268 93L364.172 48.456L342.092 85.32H336.524L314.444 49.032V93H302.54V25.8H312.812L339.5 70.344L365.708 25.8H375.98L376.076 93H364.268ZM442.707 41.736V93H431.283V86.472C429.363 88.776 426.963 90.568 424.083 91.848C421.203 93.064 418.099 93.672 414.771 93.672C407.923 93.672 402.515 91.784 398.547 88.008C394.643 84.168 392.691 78.504 392.691 71.016V41.736H404.691V69.384C404.691 73.992 405.715 77.448 407.763 79.752C409.875 81.992 412.851 83.112 416.691 83.112C420.979 83.112 424.371 81.8 426.867 79.176C429.427 76.488 430.707 72.648 430.707 67.656V41.736H442.707ZM469.843 49.224C473.299 43.848 479.379 41.16 488.083 41.16V52.584C487.059 52.392 486.131 52.296 485.299 52.296C480.627 52.296 476.979 53.672 474.355 56.424C471.731 59.112 470.419 63.016 470.419 68.136V93H458.419V41.736H469.843V49.224ZM498.263 41.736H510.263V93H498.263V41.736ZM504.311 33.288C502.135 33.288 500.311 32.616 498.839 31.272C497.367 29.864 496.631 28.136 496.631 26.088C496.631 24.04 497.367 22.344 498.839 21C500.311 19.592 502.135 18.888 504.311 18.888C506.487 18.888 508.311 19.56 509.783 20.904C511.255 22.184 511.991 23.816 511.991 25.8C511.991 27.912 511.255 29.704 509.783 31.176C508.375 32.584 506.551 33.288 504.311 33.288ZM526.013 21.768H538.013V93H526.013V21.768ZM553.763 21.768H565.763V93H553.763V21.768ZM604.553 93.672C599.369 93.672 594.697 92.552 590.537 90.312C586.377 88.072 583.113 84.968 580.745 81C578.441 76.968 577.289 72.424 577.289 67.368C577.289 62.312 578.441 57.8 580.745 53.832C583.113 49.864 586.377 46.76 590.537 44.52C594.697 42.28 599.369 41.16 604.553 41.16C609.801 41.16 614.505 42.28 618.665 44.52C622.825 46.76 626.057 49.864 628.361 53.832C630.729 57.8 631.913 62.312 631.913 67.368C631.913 72.424 630.729 76.968 628.361 81C626.057 84.968 622.825 88.072 618.665 90.312C614.505 92.552 609.801 93.672 604.553 93.672ZM604.553 83.4C608.969 83.4 612.617 81.928 615.497 78.984C618.377 76.04 619.817 72.168 619.817 67.368C619.817 62.568 618.377 58.696 615.497 55.752C612.617 52.808 608.969 51.336 604.553 51.336C600.137 51.336 596.489 52.808 593.609 55.752C590.793 58.696 589.385 62.568 589.385 67.368C589.385 72.168 590.793 76.04 593.609 78.984C596.489 81.928 600.137 83.4 604.553 83.4ZM702.175 93.96C695.391 93.96 689.247 92.488 683.743 89.544C678.303 86.536 674.015 82.408 670.879 77.16C667.807 71.912 666.271 65.992 666.271 59.4C666.271 52.808 667.839 46.888 670.975 41.64C674.111 36.392 678.399 32.296 683.839 29.352C689.343 26.344 695.487 24.84 702.271 24.84C707.775 24.84 712.799 25.8 717.343 27.72C721.887 29.64 725.727 32.424 728.863 36.072L720.799 43.656C715.935 38.408 709.951 35.784 702.847 35.784C698.239 35.784 694.111 36.808 690.463 38.856C686.815 40.84 683.967 43.624 681.919 47.208C679.871 50.792 678.847 54.856 678.847 59.4C678.847 63.944 679.871 68.008 681.919 71.592C683.967 75.176 686.815 77.992 690.463 80.04C694.111 82.024 698.239 83.016 702.847 83.016C709.951 83.016 715.935 80.36 720.799 75.048L728.863 82.728C725.727 86.376 721.855 89.16 717.247 91.08C712.703 93 707.679 93.96 702.175 93.96ZM760.834 93.672C755.65 93.672 750.978 92.552 746.818 90.312C742.658 88.072 739.394 84.968 737.026 81C734.722 76.968 733.57 72.424 733.57 67.368C733.57 62.312 734.722 57.8 737.026 53.832C739.394 49.864 742.658 46.76 746.818 44.52C750.978 42.28 755.65 41.16 760.834 41.16C766.082 41.16 770.786 42.28 774.946 44.52C779.106 46.76 782.338 49.864 784.642 53.832C787.01 57.8 788.194 62.312 788.194 67.368C788.194 72.424 787.01 76.968 784.642 81C782.338 84.968 779.106 88.072 774.946 90.312C770.786 92.552 766.082 93.672 760.834 93.672ZM760.834 83.4C765.25 83.4 768.898 81.928 771.778 78.984C774.658 76.04 776.098 72.168 776.098 67.368C776.098 62.568 774.658 58.696 771.778 55.752C768.898 52.808 765.25 51.336 760.834 51.336C756.418 51.336 752.77 52.808 749.89 55.752C747.074 58.696 745.666 62.568 745.666 67.368C745.666 72.168 747.074 76.04 749.89 78.984C752.77 81.928 756.418 83.4 760.834 83.4ZM828.757 41.16C835.221 41.16 840.405 43.048 844.309 46.824C848.213 50.6 850.165 56.2 850.165 63.624V93H838.165V65.16C838.165 60.68 837.109 57.32 834.997 55.08C832.885 52.776 829.877 51.624 825.973 51.624C821.557 51.624 818.069 52.968 815.509 55.656C812.949 58.28 811.669 62.088 811.669 67.08V93H799.669V41.736H811.093V48.36C813.077 45.992 815.573 44.2 818.581 42.984C821.589 41.768 824.981 41.16 828.757 41.16ZM881.228 93.672C877.068 93.672 873.004 93.128 869.036 92.04C865.068 90.952 861.9 89.576 859.532 87.912L864.14 78.792C866.444 80.328 869.196 81.576 872.396 82.536C875.66 83.432 878.86 83.88 881.996 83.88C889.164 83.88 892.748 81.992 892.748 78.216C892.748 76.424 891.82 75.176 889.964 74.472C888.172 73.768 885.26 73.096 881.228 72.456C877.004 71.816 873.548 71.08 870.86 70.248C868.236 69.416 865.932 67.976 863.948 65.928C862.028 63.816 861.068 60.904 861.068 57.192C861.068 52.328 863.084 48.456 867.116 45.576C871.212 42.632 876.716 41.16 883.628 41.16C887.148 41.16 890.668 41.576 894.188 42.408C897.708 43.176 900.588 44.232 902.828 45.576L898.22 54.696C893.868 52.136 888.972 50.856 883.532 50.856C880.012 50.856 877.324 51.4 875.468 52.488C873.676 53.512 872.78 54.888 872.78 56.616C872.78 58.536 873.74 59.912 875.66 60.744C877.644 61.512 880.684 62.248 884.78 62.952C888.876 63.592 892.236 64.328 894.86 65.16C897.484 65.992 899.724 67.4 901.58 69.384C903.5 71.368 904.46 74.184 904.46 77.832C904.46 82.632 902.38 86.472 898.22 89.352C894.06 92.232 888.396 93.672 881.228 93.672ZM945.61 90.216C944.202 91.368 942.474 92.232 940.426 92.808C938.442 93.384 936.33 93.672 934.09 93.672C928.458 93.672 924.106 92.2 921.034 89.256C917.962 86.312 916.426 82.024 916.426 76.392V51.72H907.978V42.12H916.426V30.408H928.426V42.12H942.154V51.72H928.426V76.104C928.426 78.6 929.034 80.52 930.25 81.864C931.466 83.144 933.226 83.784 935.53 83.784C938.218 83.784 940.458 83.08 942.25 81.672L945.61 90.216ZM966.905 49.224C970.361 43.848 976.441 41.16 985.145 41.16V52.584C984.121 52.392 983.193 52.296 982.361 52.296C977.689 52.296 974.041 53.672 971.417 56.424C968.793 59.112 967.481 63.016 967.481 68.136V93H955.481V41.736H966.905V49.224ZM1045.43 41.736V93H1034V86.472C1032.08 88.776 1029.68 90.568 1026.8 91.848C1023.92 93.064 1020.82 93.672 1017.49 93.672C1010.64 93.672 1005.23 91.784 1001.27 88.008C997.362 84.168 995.41 78.504 995.41 71.016V41.736H1007.41V69.384C1007.41 73.992 1008.43 77.448 1010.48 79.752C1012.59 81.992 1015.57 83.112 1019.41 83.112C1023.7 83.112 1027.09 81.8 1029.59 79.176C1032.15 76.488 1033.43 72.648 1033.43 67.656V41.736H1045.43ZM1084.66 93.672C1079.35 93.672 1074.58 92.552 1070.35 90.312C1066.13 88.072 1062.83 84.968 1060.47 81C1058.1 76.968 1056.91 72.424 1056.91 67.368C1056.91 62.312 1058.1 57.8 1060.47 53.832C1062.83 49.864 1066.1 46.76 1070.26 44.52C1074.48 42.28 1079.28 41.16 1084.66 41.16C1089.71 41.16 1094.13 42.184 1097.91 44.232C1101.75 46.28 1104.63 49.224 1106.55 53.064L1097.33 58.44C1095.86 56.072 1094 54.312 1091.76 53.16C1089.59 51.944 1087.19 51.336 1084.56 51.336C1080.08 51.336 1076.37 52.808 1073.43 55.752C1070.48 58.632 1069.01 62.504 1069.01 67.368C1069.01 72.232 1070.45 76.136 1073.33 79.08C1076.27 81.96 1080.02 83.4 1084.56 83.4C1087.19 83.4 1089.59 82.824 1091.76 81.672C1094 80.456 1095.86 78.664 1097.33 76.296L1106.55 81.672C1104.56 85.512 1101.65 88.488 1097.81 90.6C1094.03 92.648 1089.65 93.672 1084.66 93.672ZM1148.39 90.216C1146.98 91.368 1145.26 92.232 1143.21 92.808C1141.22 93.384 1139.11 93.672 1136.87 93.672C1131.24 93.672 1126.89 92.2 1123.82 89.256C1120.74 86.312 1119.21 82.024 1119.21 76.392V51.72H1110.76V42.12H1119.21V30.408H1131.21V42.12H1144.94V51.72H1131.21V76.104C1131.21 78.6 1131.82 80.52 1133.03 81.864C1134.25 83.144 1136.01 83.784 1138.31 83.784C1141 83.784 1143.24 83.08 1145.03 81.672L1148.39 90.216ZM1179.62 93.672C1174.43 93.672 1169.76 92.552 1165.6 90.312C1161.44 88.072 1158.18 84.968 1155.81 81C1153.5 76.968 1152.35 72.424 1152.35 67.368C1152.35 62.312 1153.5 57.8 1155.81 53.832C1158.18 49.864 1161.44 46.76 1165.6 44.52C1169.76 42.28 1174.43 41.16 1179.62 41.16C1184.86 41.16 1189.57 42.28 1193.73 44.52C1197.89 46.76 1201.12 49.864 1203.42 53.832C1205.79 57.8 1206.98 62.312 1206.98 67.368C1206.98 72.424 1205.79 76.968 1203.42 81C1201.12 84.968 1197.89 88.072 1193.73 90.312C1189.57 92.552 1184.86 93.672 1179.62 93.672ZM1179.62 83.4C1184.03 83.4 1187.68 81.928 1190.56 78.984C1193.44 76.04 1194.88 72.168 1194.88 67.368C1194.88 62.568 1193.44 58.696 1190.56 55.752C1187.68 52.808 1184.03 51.336 1179.62 51.336C1175.2 51.336 1171.55 52.808 1168.67 55.752C1165.86 58.696 1164.45 62.568 1164.45 67.368C1164.45 72.168 1165.86 76.04 1168.67 78.984C1171.55 81.928 1175.2 83.4 1179.62 83.4ZM1229.87 49.224C1233.33 43.848 1239.41 41.16 1248.11 41.16V52.584C1247.09 52.392 1246.16 52.296 1245.33 52.296C1240.66 52.296 1237.01 53.672 1234.39 56.424C1231.76 59.112 1230.45 63.016 1230.45 68.136V93H1218.45V41.736H1229.87V49.224ZM1306.02 67.656C1306.02 68.488 1305.95 69.672 1305.83 71.208H1265.6C1266.31 74.984 1268.13 77.992 1271.07 80.232C1274.08 82.408 1277.79 83.496 1282.21 83.496C1287.84 83.496 1292.48 81.64 1296.13 77.928L1302.56 85.32C1300.26 88.072 1297.35 90.152 1293.83 91.56C1290.31 92.968 1286.34 93.672 1281.92 93.672C1276.29 93.672 1271.33 92.552 1267.04 90.312C1262.75 88.072 1259.43 84.968 1257.06 81C1254.75 76.968 1253.6 72.424 1253.6 67.368C1253.6 62.376 1254.72 57.896 1256.96 53.928C1259.27 49.896 1262.43 46.76 1266.47 44.52C1270.5 42.28 1275.04 41.16 1280.1 41.16C1285.09 41.16 1289.54 42.28 1293.44 44.52C1297.41 46.696 1300.48 49.8 1302.66 53.832C1304.9 57.8 1306.02 62.408 1306.02 67.656ZM1280.1 50.76C1276.26 50.76 1272.99 51.912 1270.31 54.216C1267.68 56.456 1266.08 59.464 1265.51 63.24H1294.59C1294.08 59.528 1292.51 56.52 1289.89 54.216C1287.27 51.912 1284 50.76 1280.1 50.76ZM1333.38 93.672C1329.22 93.672 1325.16 93.128 1321.19 92.04C1317.22 90.952 1314.06 89.576 1311.69 87.912L1316.3 78.792C1318.6 80.328 1321.35 81.576 1324.55 82.536C1327.82 83.432 1331.02 83.88 1334.15 83.88C1341.32 83.88 1344.9 81.992 1344.9 78.216C1344.9 76.424 1343.98 75.176 1342.12 74.472C1340.33 73.768 1337.42 73.096 1333.38 72.456C1329.16 71.816 1325.7 71.08 1323.02 70.248C1320.39 69.416 1318.09 67.976 1316.1 65.928C1314.18 63.816 1313.22 60.904 1313.22 57.192C1313.22 52.328 1315.24 48.456 1319.27 45.576C1323.37 42.632 1328.87 41.16 1335.78 41.16C1339.3 41.16 1342.82 41.576 1346.34 42.408C1349.86 43.176 1352.74 44.232 1354.98 45.576L1350.38 54.696C1346.02 52.136 1341.13 50.856 1335.69 50.856C1332.17 50.856 1329.48 51.4 1327.62 52.488C1325.83 53.512 1324.94 54.888 1324.94 56.616C1324.94 58.536 1325.9 59.912 1327.82 60.744C1329.8 61.512 1332.84 62.248 1336.94 62.952C1341.03 63.592 1344.39 64.328 1347.02 65.16C1349.64 65.992 1351.88 67.4 1353.74 69.384C1355.66 71.368 1356.62 74.184 1356.62 77.832C1356.62 82.632 1354.54 86.472 1350.38 89.352C1346.22 92.232 1340.55 93.672 1333.38 93.672Z" fill="black"/>
</g>
<defs>
<filter id="filter0_d_203_4" x="68.4419" y="18.888" width="1292.17" height="101.408" filterUnits="userSpaceOnUse" color-interpolation-filters="sRGB">
<feFlood flood-opacity="0" result="BackgroundImageFix"/>
<feColorMatrix in="SourceAlpha" type="matrix" values="0 0 0 0 0 0 0 0 0 0 0 0 0 0 0 0 0 0 127 0" result="hardAlpha"/>
<feOffset dy="4"/>
<feGaussianBlur stdDeviation="2"/>
<feComposite in2="hardAlpha" operator="out"/>
<feColorMatrix type="matrix" values="0 0 0 0 0 0 0 0 0 0 0 0 0 0 0 0 0 0 0.25 0"/>
<feBlend mode="normal" in2="BackgroundImageFix" result="effect1_dropShadow_203_4"/>
<feBlend mode="normal" in="SourceGraphic" in2="effect1_dropShadow_203_4" result="shape"/>
</filter>
</defs>
</svg>
