<svg width="474" height="87" viewBox="0 0 474 87" fill="none" xmlns="http://www.w3.org/2000/svg">
<g style="mix-blend-mode:color-burn">
<rect width="474" height="87" fill="white"/>
<g filter="url(#filter0_d_203_5)">
<path d="M24.5252 28.268H10.4852L7.46119 35H4.68919L16.2092 9.8H18.8372L30.3572 35H27.5492L24.5252 28.268ZM23.5532 26.108L17.5052 12.572L11.4572 26.108H23.5532ZM48.9487 16.064L39.4807 37.268C38.7127 39.044 37.8247 40.304 36.8167 41.048C35.8087 41.792 34.5967 42.164 33.1807 42.164C32.2687 42.164 31.4167 42.02 30.6247 41.732C29.8327 41.444 29.1487 41.012 28.5727 40.436L29.7607 38.528C30.7207 39.488 31.8727 39.968 33.2167 39.968C34.0807 39.968 34.8127 39.728 35.4127 39.248C36.0367 38.768 36.6127 37.952 37.1407 36.8L37.9687 34.964L29.5087 16.064H32.1727L39.3007 32.156L46.4287 16.064H48.9487ZM63.7511 35.216C61.2551 35.216 58.9991 34.664 56.9831 33.56C54.9911 32.456 53.4191 30.932 52.2671 28.988C51.1391 27.02 50.5751 24.824 50.5751 22.4C50.5751 19.976 51.1391 17.792 52.2671 15.848C53.4191 13.88 55.0031 12.344 57.0191 11.24C59.0351 10.136 61.2911 9.584 63.7871 9.584C65.6591 9.584 67.3871 9.896 68.9711 10.52C70.5551 11.144 71.8991 12.056 73.0031 13.256L71.3111 14.948C69.3431 12.956 66.8591 11.96 63.8591 11.96C61.8671 11.96 60.0551 12.416 58.4231 13.328C56.7911 14.24 55.5071 15.488 54.5711 17.072C53.6591 18.656 53.2031 20.432 53.2031 22.4C53.2031 24.368 53.6591 26.144 54.5711 27.728C55.5071 29.312 56.7911 30.56 58.4231 31.472C60.0551 32.384 61.8671 32.84 63.8591 32.84C66.8831 32.84 69.3671 31.832 71.3111 29.816L73.0031 31.508C71.8991 32.708 70.5431 33.632 68.9351 34.28C67.3511 34.904 65.6231 35.216 63.7511 35.216ZM114.276 9.8V35H111.72V14.84L101.82 31.796H100.56L90.66 14.948V35H88.104V9.8H90.3L101.244 28.484L112.08 9.8H114.276ZM139.011 16.064V35H136.563V31.544C135.891 32.696 134.967 33.596 133.791 34.244C132.615 34.868 131.271 35.18 129.759 35.18C127.287 35.18 125.331 34.496 123.891 33.128C122.475 31.736 121.767 29.708 121.767 27.044V16.064H124.323V26.792C124.323 28.784 124.815 30.296 125.799 31.328C126.783 32.36 128.187 32.876 130.011 32.876C132.003 32.876 133.575 32.276 134.727 31.076C135.879 29.852 136.455 28.16 136.455 26V16.064H139.011ZM148.617 19.772C149.217 18.5 150.105 17.54 151.281 16.892C152.481 16.244 153.957 15.92 155.709 15.92V18.404L155.097 18.368C153.105 18.368 151.545 18.98 150.417 20.204C149.289 21.428 148.725 23.144 148.725 25.352V35H146.169V16.064H148.617V19.772ZM160.337 16.064H162.893V35H160.337V16.064ZM161.633 11.924C161.105 11.924 160.661 11.744 160.301 11.384C159.941 11.024 159.761 10.592 159.761 10.088C159.761 9.608 159.941 9.188 160.301 8.828C160.661 8.468 161.105 8.288 161.633 8.288C162.161 8.288 162.605 8.468 162.965 8.828C163.325 9.164 163.505 9.572 163.505 10.052C163.505 10.58 163.325 11.024 162.965 11.384C162.605 11.744 162.161 11.924 161.633 11.924ZM170.005 8.288H172.561V35H170.005V8.288ZM179.673 8.288H182.229V35H179.673V8.288ZM197.081 35.18C195.257 35.18 193.613 34.772 192.149 33.956C190.685 33.116 189.533 31.964 188.693 30.5C187.853 29.036 187.433 27.38 187.433 25.532C187.433 23.684 187.853 22.028 188.693 20.564C189.533 19.1 190.685 17.96 192.149 17.144C193.613 16.328 195.257 15.92 197.081 15.92C198.905 15.92 200.549 16.328 202.013 17.144C203.477 17.96 204.617 19.1 205.433 20.564C206.273 22.028 206.693 23.684 206.693 25.532C206.693 27.38 206.273 29.036 205.433 30.5C204.617 31.964 203.477 33.116 202.013 33.956C200.549 34.772 198.905 35.18 197.081 35.18ZM197.081 32.912C198.425 32.912 199.625 32.612 200.681 32.012C201.761 31.388 202.601 30.512 203.201 29.384C203.801 28.256 204.101 26.972 204.101 25.532C204.101 24.092 203.801 22.808 203.201 21.68C202.601 20.552 201.761 19.688 200.681 19.088C199.625 18.464 198.425 18.152 197.081 18.152C195.737 18.152 194.525 18.464 193.445 19.088C192.389 19.688 191.549 20.552 190.925 21.68C190.325 22.808 190.025 24.092 190.025 25.532C190.025 26.972 190.325 28.256 190.925 29.384C191.549 30.512 192.389 31.388 193.445 32.012C194.525 32.612 195.737 32.912 197.081 32.912ZM232.818 35.216C230.322 35.216 228.066 34.664 226.05 33.56C224.058 32.456 222.486 30.932 221.334 28.988C220.206 27.02 219.642 24.824 219.642 22.4C219.642 19.976 220.206 17.792 221.334 15.848C222.486 13.88 224.07 12.344 226.086 11.24C228.102 10.136 230.358 9.584 232.854 9.584C234.726 9.584 236.454 9.896 238.038 10.52C239.622 11.144 240.966 12.056 242.07 13.256L240.378 14.948C238.41 12.956 235.926 11.96 232.926 11.96C230.934 11.96 229.122 12.416 227.49 13.328C225.858 14.24 224.574 15.488 223.638 17.072C222.726 18.656 222.27 20.432 222.27 22.4C222.27 24.368 222.726 26.144 223.638 27.728C224.574 29.312 225.858 30.56 227.49 31.472C229.122 32.384 230.934 32.84 232.926 32.84C235.95 32.84 238.434 31.832 240.378 29.816L242.07 31.508C240.966 32.708 239.61 33.632 238.002 34.28C236.418 34.904 234.69 35.216 232.818 35.216ZM254.105 35.18C252.281 35.18 250.637 34.772 249.173 33.956C247.709 33.116 246.557 31.964 245.717 30.5C244.877 29.036 244.457 27.38 244.457 25.532C244.457 23.684 244.877 22.028 245.717 20.564C246.557 19.1 247.709 17.96 249.173 17.144C250.637 16.328 252.281 15.92 254.105 15.92C255.929 15.92 257.573 16.328 259.037 17.144C260.501 17.96 261.641 19.1 262.457 20.564C263.297 22.028 263.717 23.684 263.717 25.532C263.717 27.38 263.297 29.036 262.457 30.5C261.641 31.964 260.501 33.116 259.037 33.956C257.573 34.772 255.929 35.18 254.105 35.18ZM254.105 32.912C255.449 32.912 256.649 32.612 257.705 32.012C258.785 31.388 259.625 30.512 260.225 29.384C260.825 28.256 261.125 26.972 261.125 25.532C261.125 24.092 260.825 22.808 260.225 21.68C259.625 20.552 258.785 19.688 257.705 19.088C256.649 18.464 255.449 18.152 254.105 18.152C252.761 18.152 251.549 18.464 250.469 19.088C249.413 19.688 248.573 20.552 247.949 21.68C247.349 22.808 247.049 24.092 247.049 25.532C247.049 26.972 247.349 28.256 247.949 29.384C248.573 30.512 249.413 31.388 250.469 32.012C251.549 32.612 252.761 32.912 254.105 32.912ZM278.583 15.92C280.959 15.92 282.843 16.616 284.235 18.008C285.651 19.376 286.359 21.38 286.359 24.02V35H283.803V24.272C283.803 22.304 283.311 20.804 282.327 19.772C281.343 18.74 279.939 18.224 278.115 18.224C276.075 18.224 274.455 18.836 273.255 20.06C272.079 21.26 271.491 22.928 271.491 25.064V35H268.935V16.064H271.383V19.556C272.079 18.404 273.039 17.516 274.263 16.892C275.511 16.244 276.951 15.92 278.583 15.92ZM298.374 35.18C296.838 35.18 295.362 34.964 293.946 34.532C292.554 34.076 291.462 33.512 290.67 32.84L291.822 30.824C292.614 31.448 293.61 31.964 294.81 32.372C296.01 32.756 297.258 32.948 298.554 32.948C300.282 32.948 301.554 32.684 302.37 32.156C303.21 31.604 303.63 30.836 303.63 29.852C303.63 29.156 303.402 28.616 302.946 28.232C302.49 27.824 301.914 27.524 301.218 27.332C300.522 27.116 299.598 26.912 298.446 26.72C296.91 26.432 295.674 26.144 294.738 25.856C293.802 25.544 292.998 25.028 292.326 24.308C291.678 23.588 291.354 22.592 291.354 21.32C291.354 19.736 292.014 18.44 293.334 17.432C294.654 16.424 296.49 15.92 298.842 15.92C300.066 15.92 301.29 16.088 302.514 16.424C303.738 16.736 304.746 17.156 305.538 17.684L304.422 19.736C302.862 18.656 301.002 18.116 298.842 18.116C297.21 18.116 295.974 18.404 295.134 18.98C294.318 19.556 293.91 20.312 293.91 21.248C293.91 21.968 294.138 22.544 294.594 22.976C295.074 23.408 295.662 23.732 296.358 23.948C297.054 24.14 298.014 24.344 299.238 24.56C300.75 24.848 301.962 25.136 302.874 25.424C303.786 25.712 304.566 26.204 305.214 26.9C305.862 27.596 306.186 28.556 306.186 29.78C306.186 31.436 305.49 32.756 304.098 33.74C302.73 34.7 300.822 35.18 298.374 35.18ZM320.884 33.848C320.404 34.28 319.804 34.616 319.084 34.856C318.388 35.072 317.656 35.18 316.888 35.18C315.112 35.18 313.744 34.7 312.784 33.74C311.824 32.78 311.344 31.424 311.344 29.672V18.224H307.96V16.064H311.344V11.924H313.9V16.064H319.66V18.224H313.9V29.528C313.9 30.656 314.176 31.52 314.728 32.12C315.304 32.696 316.12 32.984 317.176 32.984C317.704 32.984 318.208 32.9 318.688 32.732C319.192 32.564 319.624 32.324 319.984 32.012L320.884 33.848ZM327.985 19.772C328.585 18.5 329.473 17.54 330.649 16.892C331.849 16.244 333.325 15.92 335.077 15.92V18.404L334.465 18.368C332.473 18.368 330.913 18.98 329.785 20.204C328.657 21.428 328.093 23.144 328.093 25.352V35H325.537V16.064H327.985V19.772ZM357.05 16.064V35H354.602V31.544C353.93 32.696 353.006 33.596 351.83 34.244C350.654 34.868 349.31 35.18 347.798 35.18C345.326 35.18 343.37 34.496 341.93 33.128C340.514 31.736 339.806 29.708 339.806 27.044V16.064H342.362V26.792C342.362 28.784 342.854 30.296 343.838 31.328C344.822 32.36 346.226 32.876 348.05 32.876C350.042 32.876 351.614 32.276 352.766 31.076C353.918 29.852 354.494 28.16 354.494 26V16.064H357.05ZM372.057 35.18C370.185 35.18 368.505 34.772 367.017 33.956C365.553 33.14 364.401 32 363.561 30.536C362.721 29.048 362.301 27.38 362.301 25.532C362.301 23.684 362.721 22.028 363.561 20.564C364.401 19.1 365.553 17.96 367.017 17.144C368.505 16.328 370.185 15.92 372.057 15.92C373.689 15.92 375.141 16.244 376.413 16.892C377.709 17.516 378.729 18.44 379.473 19.664L377.565 20.96C376.941 20.024 376.149 19.328 375.189 18.872C374.229 18.392 373.185 18.152 372.057 18.152C370.689 18.152 369.453 18.464 368.349 19.088C367.269 19.688 366.417 20.552 365.793 21.68C365.193 22.808 364.893 24.092 364.893 25.532C364.893 26.996 365.193 28.292 365.793 29.42C366.417 30.524 367.269 31.388 368.349 32.012C369.453 32.612 370.689 32.912 372.057 32.912C373.185 32.912 374.229 32.684 375.189 32.228C376.149 31.772 376.941 31.076 377.565 30.14L379.473 31.436C378.729 32.66 377.709 33.596 376.413 34.244C375.117 34.868 373.665 35.18 372.057 35.18ZM394.677 33.848C394.197 34.28 393.597 34.616 392.877 34.856C392.181 35.072 391.449 35.18 390.681 35.18C388.905 35.18 387.537 34.7 386.577 33.74C385.617 32.78 385.137 31.424 385.137 29.672V18.224H381.753V16.064H385.137V11.924H387.693V16.064H393.453V18.224H387.693V29.528C387.693 30.656 387.969 31.52 388.521 32.12C389.097 32.696 389.913 32.984 390.969 32.984C391.497 32.984 392.001 32.9 392.481 32.732C392.985 32.564 393.417 32.324 393.777 32.012L394.677 33.848ZM406.402 35.18C404.578 35.18 402.934 34.772 401.47 33.956C400.006 33.116 398.854 31.964 398.014 30.5C397.174 29.036 396.754 27.38 396.754 25.532C396.754 23.684 397.174 22.028 398.014 20.564C398.854 19.1 400.006 17.96 401.47 17.144C402.934 16.328 404.578 15.92 406.402 15.92C408.226 15.92 409.87 16.328 411.334 17.144C412.798 17.96 413.938 19.1 414.754 20.564C415.594 22.028 416.014 23.684 416.014 25.532C416.014 27.38 415.594 29.036 414.754 30.5C413.938 31.964 412.798 33.116 411.334 33.956C409.87 34.772 408.226 35.18 406.402 35.18ZM406.402 32.912C407.746 32.912 408.946 32.612 410.002 32.012C411.082 31.388 411.922 30.512 412.522 29.384C413.122 28.256 413.422 26.972 413.422 25.532C413.422 24.092 413.122 22.808 412.522 21.68C411.922 20.552 411.082 19.688 410.002 19.088C408.946 18.464 407.746 18.152 406.402 18.152C405.058 18.152 403.846 18.464 402.766 19.088C401.71 19.688 400.87 20.552 400.246 21.68C399.646 22.808 399.346 24.092 399.346 25.532C399.346 26.972 399.646 28.256 400.246 29.384C400.87 30.512 401.71 31.388 402.766 32.012C403.846 32.612 405.058 32.912 406.402 32.912ZM423.68 19.772C424.28 18.5 425.168 17.54 426.344 16.892C427.544 16.244 429.02 15.92 430.772 15.92V18.404L430.16 18.368C428.168 18.368 426.608 18.98 425.48 20.204C424.352 21.428 423.788 23.144 423.788 25.352V35H421.232V16.064H423.68V19.772ZM451.712 26.324H435.872C436.016 28.292 436.772 29.888 438.14 31.112C439.508 32.312 441.236 32.912 443.324 32.912C444.5 32.912 445.58 32.708 446.564 32.3C447.548 31.868 448.4 31.244 449.12 30.428L450.56 32.084C449.72 33.092 448.664 33.86 447.392 34.388C446.144 34.916 444.764 35.18 443.252 35.18C441.308 35.18 439.58 34.772 438.068 33.956C436.58 33.116 435.416 31.964 434.576 30.5C433.736 29.036 433.316 27.38 433.316 25.532C433.316 23.684 433.712 22.028 434.504 20.564C435.32 19.1 436.424 17.96 437.816 17.144C439.232 16.328 440.816 15.92 442.568 15.92C444.32 15.92 445.892 16.328 447.284 17.144C448.676 17.96 449.768 19.1 450.56 20.564C451.352 22.004 451.748 23.66 451.748 25.532L451.712 26.324ZM442.568 18.116C440.744 18.116 439.208 18.704 437.96 19.88C436.736 21.032 436.04 22.544 435.872 24.416H449.3C449.132 22.544 448.424 21.032 447.176 19.88C445.952 18.704 444.416 18.116 442.568 18.116ZM462.027 35.18C460.491 35.18 459.015 34.964 457.599 34.532C456.207 34.076 455.115 33.512 454.323 32.84L455.475 30.824C456.267 31.448 457.263 31.964 458.463 32.372C459.663 32.756 460.911 32.948 462.207 32.948C463.935 32.948 465.207 32.684 466.023 32.156C466.863 31.604 467.283 30.836 467.283 29.852C467.283 29.156 467.055 28.616 466.599 28.232C466.143 27.824 465.567 27.524 464.871 27.332C464.175 27.116 463.251 26.912 462.099 26.72C460.563 26.432 459.327 26.144 458.391 25.856C457.455 25.544 456.651 25.028 455.979 24.308C455.331 23.588 455.007 22.592 455.007 21.32C455.007 19.736 455.667 18.44 456.987 17.432C458.307 16.424 460.143 15.92 462.495 15.92C463.719 15.92 464.943 16.088 466.167 16.424C467.391 16.736 468.399 17.156 469.191 17.684L468.075 19.736C466.515 18.656 464.655 18.116 462.495 18.116C460.863 18.116 459.627 18.404 458.787 18.98C457.971 19.556 457.563 20.312 457.563 21.248C457.563 21.968 457.791 22.544 458.247 22.976C458.727 23.408 459.315 23.732 460.011 23.948C460.707 24.14 461.667 24.344 462.891 24.56C464.403 24.848 465.615 25.136 466.527 25.424C467.439 25.712 468.219 26.204 468.867 26.9C469.515 27.596 469.839 28.556 469.839 29.78C469.839 31.436 469.143 32.756 467.751 33.74C466.383 34.7 464.475 35.18 462.027 35.18Z" fill="black"/>
<path d="M24.5252 28.268L25.4374 27.8582L25.1722 27.268H24.5252V28.268ZM10.4852 28.268V27.268H9.83813L9.57299 27.8582L10.4852 28.268ZM7.46119 35V36H8.10825L8.37338 35.4098L7.46119 35ZM4.68919 35L3.77971 34.5842L3.13251 36H4.68919V35ZM16.2092 9.8V8.8H15.5668L15.2997 9.38424L16.2092 9.8ZM18.8372 9.8L19.7467 9.38424L19.4796 8.8H18.8372V9.8ZM30.3572 35V36H31.9139L31.2667 34.5842L30.3572 35ZM27.5492 35L26.637 35.4098L26.9021 36H27.5492V35ZM23.5532 26.108V27.108H25.0953L24.4662 25.7001L23.5532 26.108ZM17.5052 12.572L18.4182 12.1641L17.5052 10.1207L16.5922 12.1641L17.5052 12.572ZM11.4572 26.108L10.5442 25.7001L9.9151 27.108H11.4572V26.108ZM24.5252 27.268H10.4852V29.268H24.5252V27.268ZM9.57299 27.8582L6.54899 34.5902L8.37338 35.4098L11.3974 28.6778L9.57299 27.8582ZM7.46119 34H4.68919V36H7.46119V34ZM5.59866 35.4158L17.1187 10.2158L15.2997 9.38424L3.77971 34.5842L5.59866 35.4158ZM16.2092 10.8H18.8372V8.8H16.2092V10.8ZM17.9277 10.2158L29.4477 35.4158L31.2667 34.5842L19.7467 9.38424L17.9277 10.2158ZM30.3572 34H27.5492V36H30.3572V34ZM28.4614 34.5902L25.4374 27.8582L23.613 28.6778L26.637 35.4098L28.4614 34.5902ZM24.4662 25.7001L18.4182 12.1641L16.5922 12.9799L22.6402 26.5159L24.4662 25.7001ZM16.5922 12.1641L10.5442 25.7001L12.3702 26.5159L18.4182 12.9799L16.5922 12.1641ZM11.4572 27.108H23.5532V25.108H11.4572V27.108ZM48.9487 16.064L49.8618 16.4717L50.4903 15.064H48.9487V16.064ZM39.4807 37.268L38.5675 36.8603L38.5628 36.8711L39.4807 37.268ZM36.8167 41.048L37.4105 41.8526L36.8167 41.048ZM30.6247 41.732L30.9664 40.7922L30.6247 41.732ZM28.5727 40.436L27.7238 39.9074L27.304 40.5816L27.8655 41.1431L28.5727 40.436ZM29.7607 38.528L30.4678 37.8209L29.5773 36.9305L28.9118 37.9994L29.7607 38.528ZM35.4127 39.248L34.8029 38.4554L34.7954 38.4612L34.788 38.4671L35.4127 39.248ZM37.1407 36.8L38.0497 37.2167L38.0522 37.2111L37.1407 36.8ZM37.9687 34.964L38.8802 35.3751L39.065 34.9655L38.8814 34.5554L37.9687 34.964ZM29.5087 16.064V15.064H27.9654L28.5959 16.4726L29.5087 16.064ZM32.1727 16.064L33.087 15.659L32.8234 15.064H32.1727V16.064ZM39.3007 32.156L38.3863 32.561L39.3007 34.6251L40.215 32.561L39.3007 32.156ZM46.4287 16.064V15.064H45.7779L45.5143 15.659L46.4287 16.064ZM48.0355 15.6563L38.5676 36.8603L40.3938 37.6757L49.8618 16.4717L48.0355 15.6563ZM38.5628 36.8711C37.83 38.5658 37.0315 39.6465 36.2228 40.2434L37.4105 41.8526C38.6178 40.9615 39.5954 39.5222 40.3985 37.6649L38.5628 36.8711ZM36.2228 40.2434C35.4088 40.8442 34.412 41.164 33.1807 41.164V43.164C34.7813 43.164 36.2085 42.7398 37.4105 41.8526L36.2228 40.2434ZM33.1807 41.164C32.3756 41.164 31.6402 41.0372 30.9664 40.7922L30.2829 42.6718C31.1931 43.0028 32.1617 43.164 33.1807 43.164V41.164ZM30.9664 40.7922C30.3068 40.5524 29.7488 40.198 29.2798 39.7289L27.8655 41.1431C28.5485 41.826 29.3585 42.3356 30.2829 42.6718L30.9664 40.7922ZM29.4216 40.9646L30.6096 39.0566L28.9118 37.9994L27.7238 39.9074L29.4216 40.9646ZM29.0535 39.2351C30.1989 40.3805 31.6044 40.968 33.2167 40.968V38.968C32.1409 38.968 31.2424 38.5955 30.4678 37.8209L29.0535 39.2351ZM33.2167 40.968C34.2778 40.968 35.238 40.6683 36.0373 40.0289L34.788 38.4671C34.3873 38.7877 33.8835 38.968 33.2167 38.968V40.968ZM36.0224 40.0406C36.8308 39.4188 37.4909 38.4359 38.0497 37.2167L36.2316 36.3833C35.7344 37.4681 35.2426 38.1172 34.8029 38.4554L36.0224 40.0406ZM38.0522 37.2111L38.8802 35.3751L37.0571 34.5529L36.2291 36.3889L38.0522 37.2111ZM38.8814 34.5554L30.4214 15.6554L28.5959 16.4726L37.0559 35.3726L38.8814 34.5554ZM29.5087 17.064H32.1727V15.064H29.5087V17.064ZM31.2583 16.469L38.3863 32.561L40.215 31.751L33.087 15.659L31.2583 16.469ZM40.215 32.561L47.343 16.469L45.5143 15.659L38.3863 31.751L40.215 32.561ZM46.4287 17.064H48.9487V15.064H46.4287V17.064ZM56.9831 33.56L56.4984 34.4347L56.5028 34.4371L56.9831 33.56ZM52.2671 28.988L51.3995 29.4853L51.4031 29.4916L51.4068 29.4978L52.2671 28.988ZM52.2671 15.848L51.4041 15.3428L51.4022 15.3461L52.2671 15.848ZM57.0191 11.24L56.5388 10.3629L57.0191 11.24ZM68.9711 10.52L68.6046 11.4504L68.9711 10.52ZM73.0031 13.256L73.7102 13.9631L74.3885 13.2848L73.7391 12.5789L73.0031 13.256ZM71.3111 14.948L70.5997 15.6508L71.3068 16.3665L72.0182 15.6551L71.3111 14.948ZM58.4231 13.328L57.9353 12.4551L58.4231 13.328ZM54.5711 17.072L53.7101 16.5632L53.7045 16.573L54.5711 17.072ZM54.5711 27.728L53.7044 28.227L53.7102 28.2367L54.5711 27.728ZM58.4231 31.472L57.9353 32.3449L58.4231 31.472ZM71.3111 29.816L72.0182 29.1089L71.2981 28.3888L70.5913 29.1219L71.3111 29.816ZM73.0031 31.508L73.7391 32.1851L74.3885 31.4792L73.7102 30.8009L73.0031 31.508ZM68.9351 34.28L69.3017 35.2104L69.3089 35.2075L68.9351 34.28ZM63.7511 34.216C61.4082 34.216 59.3197 33.6994 57.4634 32.6829L56.5028 34.4371C58.6785 35.6286 61.102 36.216 63.7511 36.216V34.216ZM57.4679 32.6853C55.63 31.6667 54.1881 30.2681 53.1274 28.4782L51.4068 29.4978C52.6501 31.5959 54.3523 33.2453 56.4984 34.4347L57.4679 32.6853ZM53.1347 28.4907C52.0994 26.6845 51.5751 24.6619 51.5751 22.4H49.5751C49.5751 24.9861 50.1788 27.3555 51.3995 29.4853L53.1347 28.4907ZM51.5751 22.4C51.5751 20.138 52.0994 18.1295 53.1321 16.3499L51.4022 15.3461C50.1788 17.4545 49.5751 19.814 49.5751 22.4H51.5751ZM53.1301 16.3532C54.1899 14.5428 55.641 13.1348 57.4994 12.1171L56.5388 10.3629C54.3652 11.5532 52.6484 13.2172 51.4041 15.3428L53.1301 16.3532ZM57.4994 12.1171C59.3557 11.1006 61.4442 10.584 63.7871 10.584V8.584C61.138 8.584 58.7145 9.17144 56.5388 10.3629L57.4994 12.1171ZM63.7871 10.584C65.5462 10.584 67.1484 10.8768 68.6046 11.4504L69.3377 9.58959C67.6258 8.91523 65.7721 8.584 63.7871 8.584V10.584ZM68.6046 11.4504C70.0543 12.0215 71.2701 12.8493 72.2672 13.9331L73.7391 12.5789C72.5281 11.2627 71.056 10.2665 69.3376 9.58959L68.6046 11.4504ZM72.296 12.5489L70.604 14.2409L72.0182 15.6551L73.7102 13.9631L72.296 12.5489ZM72.0225 14.2452C69.8523 12.0485 67.1053 10.96 63.8591 10.96V12.96C66.613 12.96 68.834 13.8635 70.5997 15.6508L72.0225 14.2452ZM63.8591 10.96C61.7079 10.96 59.7262 11.4543 57.9353 12.4551L58.9109 14.2009C60.3841 13.3777 62.0264 12.96 63.8591 12.96V10.96ZM57.9353 12.4551C56.1515 13.4519 54.7377 14.8245 53.7102 16.5633L55.4321 17.5807C56.2766 16.1515 57.4307 15.0281 58.9109 14.2009L57.9353 12.4551ZM53.7045 16.573C52.6984 18.3204 52.2031 20.2707 52.2031 22.4H54.2031C54.2031 20.5933 54.6198 18.9916 55.4377 17.571L53.7045 16.573ZM52.2031 22.4C52.2031 24.5293 52.6984 26.4796 53.7045 28.227L55.4377 27.229C54.6198 25.8084 54.2031 24.2067 54.2031 22.4H52.2031ZM53.7102 28.2367C54.7377 29.9755 56.1515 31.3481 57.9353 32.3449L58.9109 30.5991C57.4307 29.7719 56.2766 28.6485 55.4321 27.2193L53.7102 28.2367ZM57.9353 32.3449C59.7262 33.3457 61.7079 33.84 63.8591 33.84V31.84C62.0264 31.84 60.3841 31.4223 58.9109 30.5991L57.9353 32.3449ZM63.8591 33.84C67.1306 33.84 69.8824 32.7383 72.031 30.5101L70.5913 29.1219C68.8518 30.9257 66.6357 31.84 63.8591 31.84V33.84ZM70.604 30.5231L72.296 32.2151L73.7102 30.8009L72.0182 29.1089L70.604 30.5231ZM72.2672 30.8309C71.2701 31.9147 70.0404 32.7564 68.5613 33.3525L69.3089 35.2075C71.0458 34.5076 72.5281 33.5013 73.7391 32.1851L72.2672 30.8309ZM68.5686 33.3496C67.1124 33.9232 65.5102 34.216 63.7511 34.216V36.216C65.7361 36.216 67.5898 35.8848 69.3017 35.2104L68.5686 33.3496ZM114.276 9.8H115.276V8.8H114.276V9.8ZM114.276 35V36H115.276V35H114.276ZM111.72 35H110.72V36H111.72V35ZM111.72 14.84H112.72V11.144L110.856 14.3358L111.72 14.84ZM101.82 31.796V32.796H102.394L102.684 32.3002L101.82 31.796ZM100.56 31.796L99.6978 32.3026L99.9877 32.796H100.56V31.796ZM90.66 14.948L91.5222 14.4414L89.66 11.2723V14.948H90.66ZM90.66 35V36H91.66V35H90.66ZM88.104 35H87.104V36H88.104V35ZM88.104 9.8V8.8H87.104V9.8H88.104ZM90.3 9.8L91.1629 9.29458L90.8732 8.8H90.3V9.8ZM101.244 28.484L100.381 28.9894L101.248 30.4699L102.109 28.9857L101.244 28.484ZM112.08 9.8V8.8H111.504L111.215 9.29831L112.08 9.8ZM113.276 9.8V35H115.276V9.8H113.276ZM114.276 34H111.72V36H114.276V34ZM112.72 35V14.84H110.72V35H112.72ZM110.856 14.3358L100.956 31.2918L102.684 32.3002L112.584 15.3442L110.856 14.3358ZM101.82 30.796H100.56V32.796H101.82V30.796ZM101.422 31.2894L91.5222 14.4414L89.7978 15.4546L99.6978 32.3026L101.422 31.2894ZM89.66 14.948V35H91.66V14.948H89.66ZM90.66 34H88.104V36H90.66V34ZM89.104 35V9.8H87.104V35H89.104ZM88.104 10.8H90.3V8.8H88.104V10.8ZM89.4371 10.3054L100.381 28.9894L102.107 27.9786L91.1629 9.29458L89.4371 10.3054ZM102.109 28.9857L112.945 10.3017L111.215 9.29831L100.379 27.9823L102.109 28.9857ZM112.08 10.8H114.276V8.8H112.08V10.8ZM139.011 16.064H140.011V15.064H139.011V16.064ZM139.011 35V36H140.011V35H139.011ZM136.563 35H135.563V36H136.563V35ZM136.563 31.544H137.563V27.8451L135.699 31.0401L136.563 31.544ZM133.791 34.244L134.26 35.1273L134.267 35.1236L134.273 35.1198L133.791 34.244ZM123.891 33.128L123.19 33.8411L123.196 33.8471L123.202 33.853L123.891 33.128ZM121.767 16.064V15.064H120.767V16.064H121.767ZM124.323 16.064H125.323V15.064H124.323V16.064ZM125.799 31.328L126.523 30.6379L125.799 31.328ZM134.727 31.076L135.448 31.7686L135.455 31.7614L134.727 31.076ZM136.455 16.064V15.064H135.455V16.064H136.455ZM138.011 16.064V35H140.011V16.064H138.011ZM139.011 34H136.563V36H139.011V34ZM137.563 35V31.544H135.563V35H137.563ZM135.699 31.0401C135.119 32.0349 134.327 32.8068 133.308 33.3682L134.273 35.1198C135.607 34.3852 136.663 33.3572 137.427 32.0479L135.699 31.0401ZM133.322 33.3606C132.309 33.8982 131.13 34.18 129.759 34.18V36.18C131.412 36.18 132.921 35.8378 134.26 35.1273L133.322 33.3606ZM129.759 34.18C127.477 34.18 125.791 33.5538 124.58 32.403L123.202 33.853C124.871 35.4382 127.096 36.18 129.759 36.18V34.18ZM124.592 32.4149C123.425 31.2682 122.767 29.5345 122.767 27.044H120.767C120.767 29.8815 121.524 32.2038 123.19 33.8411L124.592 32.4149ZM122.767 27.044V16.064H120.767V27.044H122.767ZM121.767 17.064H124.323V15.064H121.767V17.064ZM123.323 16.064V26.792H125.323V16.064H123.323ZM123.323 26.792C123.323 28.9381 123.854 30.737 125.075 32.0181L126.523 30.6379C125.776 29.855 125.323 28.6299 125.323 26.792H123.323ZM125.075 32.0181C126.297 33.2996 127.994 33.876 130.011 33.876V31.876C128.38 31.876 127.269 31.4204 126.523 30.6379L125.075 32.0181ZM130.011 33.876C132.217 33.876 134.071 33.2032 135.448 31.7685L134.005 30.3835C133.079 31.3488 131.788 31.876 130.011 31.876V33.876ZM135.455 31.7614C136.827 30.3035 137.455 28.3394 137.455 26H135.455C135.455 27.9806 134.93 29.4005 133.999 30.3906L135.455 31.7614ZM137.455 26V16.064H135.455V26H137.455ZM136.455 17.064H139.011V15.064H136.455V17.064ZM148.617 19.772H147.617L149.522 20.1986L148.617 19.772ZM151.281 16.892L150.806 16.0121L150.799 16.0162L151.281 16.892ZM155.709 15.92H156.709V14.92H155.709V15.92ZM155.709 18.404L155.651 19.4023L156.709 19.4646V18.404H155.709ZM155.097 18.368L155.156 17.3697L155.127 17.368H155.097V18.368ZM150.417 20.204L151.153 20.8817V20.8817L150.417 20.204ZM148.725 35V36H149.725V35H148.725ZM146.169 35H145.169V36H146.169V35ZM146.169 16.064V15.064H145.169V16.064H146.169ZM148.617 16.064H149.617V15.064H148.617V16.064ZM149.522 20.1986C150.037 19.1074 150.782 18.3092 151.764 17.7678L150.799 16.0162C149.429 16.7708 148.398 17.8926 147.713 19.3454L149.522 20.1986ZM151.757 17.7719C152.775 17.222 154.077 16.92 155.709 16.92V14.92C153.838 14.92 152.188 15.266 150.806 16.0121L151.757 17.7719ZM154.709 15.92V18.404H156.709V15.92H154.709ZM155.768 17.4057L155.156 17.3697L155.039 19.3663L155.651 19.4023L155.768 17.4057ZM155.097 17.368C152.886 17.368 151.036 18.0568 149.682 19.5263L151.153 20.8817C152.055 19.9032 153.325 19.368 155.097 19.368V17.368ZM149.682 19.5263C148.335 20.9885 147.725 22.9767 147.725 25.352H149.725C149.725 23.3113 150.244 21.8675 151.153 20.8817L149.682 19.5263ZM147.725 25.352V35H149.725V25.352H147.725ZM148.725 34H146.169V36H148.725V34ZM147.169 35V16.064H145.169V35H147.169ZM146.169 17.064H148.617V15.064H146.169V17.064ZM147.617 16.064V19.772H149.617V16.064H147.617ZM160.337 16.064V15.064H159.337V16.064H160.337ZM162.893 16.064H163.893V15.064H162.893V16.064ZM162.893 35V36H163.893V35H162.893ZM160.337 35H159.337V36H160.337V35ZM160.301 8.828L159.594 8.12089V8.12089L160.301 8.828ZM162.965 8.828L162.258 9.5351L162.271 9.54729L162.283 9.55905L162.965 8.828ZM160.337 17.064H162.893V15.064H160.337V17.064ZM161.893 16.064V35H163.893V16.064H161.893ZM162.893 34H160.337V36H162.893V34ZM161.337 35V16.064H159.337V35H161.337ZM161.633 10.924C161.36 10.924 161.173 10.8417 161.009 10.6769L159.594 12.0911C160.149 12.6463 160.851 12.924 161.633 12.924V10.924ZM161.009 10.6769C160.834 10.5023 160.761 10.3238 160.761 10.088H158.761C158.761 10.8602 159.049 11.5457 159.594 12.0911L161.009 10.6769ZM160.761 10.088C160.761 9.89055 160.823 9.72019 161.009 9.5351L159.594 8.12089C159.059 8.6558 158.761 9.32545 158.761 10.088H160.761ZM161.009 9.5351C161.173 9.37027 161.36 9.288 161.633 9.288V7.288C160.851 7.288 160.149 7.56573 159.594 8.12089L161.009 9.5351ZM161.633 9.288C161.907 9.288 162.093 9.37027 162.258 9.5351L163.673 8.12089C163.117 7.56573 162.416 7.288 161.633 7.288V9.288ZM162.283 9.55905C162.446 9.71148 162.505 9.85721 162.505 10.052H164.505C164.505 9.28679 164.204 8.61652 163.648 8.09694L162.283 9.55905ZM162.505 10.052C162.505 10.3258 162.423 10.5121 162.258 10.6769L163.673 12.0911C164.228 11.5359 164.505 10.8342 164.505 10.052H162.505ZM162.258 10.6769C162.093 10.8417 161.907 10.924 161.633 10.924V12.924C162.416 12.924 163.117 12.6463 163.673 12.0911L162.258 10.6769ZM170.005 8.288V7.288H169.005V8.288H170.005ZM172.561 8.288H173.561V7.288H172.561V8.288ZM172.561 35V36H173.561V35H172.561ZM170.005 35H169.005V36H170.005V35ZM170.005 9.288H172.561V7.288H170.005V9.288ZM171.561 8.288V35H173.561V8.288H171.561ZM172.561 34H170.005V36H172.561V34ZM171.005 35V8.288H169.005V35H171.005ZM179.673 8.288V7.288H178.673V8.288H179.673ZM182.229 8.288H183.229V7.288H182.229V8.288ZM182.229 35V36H183.229V35H182.229ZM179.673 35H178.673V36H179.673V35ZM179.673 9.288H182.229V7.288H179.673V9.288ZM181.229 8.288V35H183.229V8.288H181.229ZM182.229 34H179.673V36H182.229V34ZM180.673 35V8.288H178.673V35H180.673ZM192.149 33.956L191.652 34.8234L191.662 34.8295L192.149 33.956ZM188.693 30.5L187.826 30.9977L188.693 30.5ZM188.693 20.564L187.826 20.0663L188.693 20.564ZM192.149 17.144L191.662 16.2705L192.149 17.144ZM202.013 17.144L202.5 16.2705V16.2705L202.013 17.144ZM205.433 20.564L204.56 21.0509L204.566 21.0617L205.433 20.564ZM205.433 30.5L204.566 30.0023L204.56 30.0131L205.433 30.5ZM202.013 33.956L202.5 34.8295L202.511 34.8234L202.013 33.956ZM200.681 32.012L201.175 32.8815L201.182 32.8779L200.681 32.012ZM203.201 29.384L204.084 29.8536L203.201 29.384ZM203.201 21.68L204.084 21.2104L203.201 21.68ZM200.681 19.088L200.173 19.9489L200.184 19.9557L200.196 19.9622L200.681 19.088ZM193.445 19.088L193.939 19.9575L193.946 19.9539L193.445 19.088ZM190.925 21.68L190.05 21.1959L190.046 21.2031L190.042 21.2104L190.925 21.68ZM190.925 29.384L190.042 29.8536L190.046 29.8609L190.05 29.8681L190.925 29.384ZM193.445 32.012L192.937 32.8729L192.948 32.8797L192.96 32.8862L193.445 32.012ZM197.081 34.18C195.412 34.18 193.938 33.8083 192.636 33.0825L191.662 34.8295C193.288 35.7357 195.102 36.18 197.081 36.18V34.18ZM192.647 33.0886C191.337 32.3369 190.312 31.3125 189.561 30.0023L187.826 30.9977C188.754 32.6155 190.034 33.8951 191.652 34.8234L192.647 33.0886ZM189.561 30.0023C188.816 28.7039 188.433 27.2224 188.433 25.532H186.433C186.433 27.5376 186.891 29.3681 187.826 30.9977L189.561 30.0023ZM188.433 25.532C188.433 23.8416 188.816 22.3601 189.561 21.0617L187.826 20.0663C186.891 21.6959 186.433 23.5264 186.433 25.532H188.433ZM189.561 21.0617C190.311 19.754 191.332 18.7444 192.636 18.0175L191.662 16.2705C190.039 17.1756 188.756 18.446 187.826 20.0663L189.561 21.0617ZM192.636 18.0175C193.938 17.2917 195.412 16.92 197.081 16.92V14.92C195.102 14.92 193.288 15.3643 191.662 16.2705L192.636 18.0175ZM197.081 16.92C198.75 16.92 200.224 17.2917 201.526 18.0175L202.5 16.2705C200.874 15.3643 199.06 14.92 197.081 14.92V16.92ZM201.526 18.0175C202.828 18.743 203.834 19.7491 204.56 21.0509L206.307 20.0771C205.4 18.4509 204.126 17.177 202.5 16.2705L201.526 18.0175ZM204.566 21.0617C205.311 22.3601 205.693 23.8416 205.693 25.532H207.693C207.693 23.5264 207.236 21.6959 206.301 20.0663L204.566 21.0617ZM205.693 25.532C205.693 27.2224 205.311 28.7039 204.566 30.0023L206.301 30.9977C207.236 29.3681 207.693 27.5376 207.693 25.532H205.693ZM204.56 30.0131C203.833 31.3174 202.823 32.3383 201.516 33.0886L202.511 34.8234C204.131 33.8937 205.402 32.6106 206.307 30.9869L204.56 30.0131ZM201.526 33.0825C200.224 33.8083 198.75 34.18 197.081 34.18V36.18C199.06 36.18 200.874 35.7357 202.5 34.8295L201.526 33.0825ZM197.081 33.912C198.58 33.912 199.953 33.5759 201.175 32.8815L200.187 31.1425C199.298 31.6481 198.271 31.912 197.081 31.912V33.912ZM201.182 32.8779C202.428 32.1578 203.399 31.1427 204.084 29.8536L202.318 28.9144C201.804 29.8813 201.095 30.6182 200.181 31.1461L201.182 32.8779ZM204.084 29.8536C204.77 28.5635 205.101 27.1147 205.101 25.532H203.101C203.101 26.8293 202.832 27.9485 202.318 28.9144L204.084 29.8536ZM205.101 25.532C205.101 23.9493 204.77 22.5005 204.084 21.2104L202.318 22.1496C202.832 23.1155 203.101 24.2347 203.101 25.532H205.101ZM204.084 21.2104C203.397 19.9182 202.422 18.9109 201.167 18.2138L200.196 19.9622C201.101 20.4651 201.806 21.1858 202.318 22.1496L204.084 21.2104ZM201.19 18.2271C199.965 17.5034 198.587 17.152 197.081 17.152V19.152C198.264 19.152 199.285 19.4246 200.173 19.9489L201.19 18.2271ZM197.081 17.152C195.576 17.152 194.189 17.5035 192.945 18.2221L193.946 19.9539C194.862 19.4245 195.899 19.152 197.081 19.152V17.152ZM192.951 18.2185C191.725 18.9151 190.758 19.9172 190.05 21.1959L191.8 22.1641C192.341 21.1868 193.053 20.4609 193.939 19.9575L192.951 18.2185ZM190.042 21.2104C189.356 22.5005 189.025 23.9493 189.025 25.532H191.025C191.025 24.2347 191.294 23.1155 191.808 22.1496L190.042 21.2104ZM189.025 25.532C189.025 27.1147 189.356 28.5635 190.042 29.8536L191.808 28.9144C191.294 27.9485 191.025 26.8293 191.025 25.532H189.025ZM190.05 29.8681C190.756 31.1438 191.719 32.1535 192.937 32.8729L193.954 31.1511C193.06 30.6225 192.343 29.8802 191.8 28.8999L190.05 29.8681ZM192.96 32.8862C194.201 33.5758 195.583 33.912 197.081 33.912V31.912C195.892 31.912 194.85 31.6482 193.931 31.1378L192.96 32.8862ZM226.05 33.56L225.565 34.4347L225.569 34.4371L226.05 33.56ZM221.334 28.988L220.466 29.4853L220.47 29.4916L220.473 29.4978L221.334 28.988ZM221.334 15.848L220.471 15.3428L220.469 15.3461L221.334 15.848ZM226.086 11.24L225.605 10.3629L226.086 11.24ZM238.038 10.52L237.671 11.4504L238.038 10.52ZM242.07 13.256L242.777 13.9631L243.455 13.2848L242.805 12.5789L242.07 13.256ZM240.378 14.948L239.666 15.6508L240.373 16.3665L241.085 15.6551L240.378 14.948ZM227.49 13.328L227.002 12.4551L227.49 13.328ZM223.638 17.072L222.777 16.5632L222.771 16.573L223.638 17.072ZM223.638 27.728L222.771 28.227L222.777 28.2367L223.638 27.728ZM227.49 31.472L227.002 32.3449L227.49 31.472ZM240.378 29.816L241.085 29.1089L240.365 28.3888L239.658 29.1219L240.378 29.816ZM242.07 31.508L242.805 32.1851L243.455 31.4792L242.777 30.8009L242.07 31.508ZM238.002 34.28L238.368 35.2104L238.375 35.2075L238.002 34.28ZM232.818 34.216C230.475 34.216 228.386 33.6994 226.53 32.6829L225.569 34.4371C227.745 35.6286 230.168 36.216 232.818 36.216V34.216ZM226.534 32.6853C224.696 31.6667 223.255 30.2681 222.194 28.4782L220.473 29.4978C221.717 31.5959 223.419 33.2453 225.565 34.4347L226.534 32.6853ZM222.201 28.4907C221.166 26.6845 220.642 24.6619 220.642 22.4H218.642C218.642 24.9861 219.245 27.3555 220.466 29.4853L222.201 28.4907ZM220.642 22.4C220.642 20.138 221.166 18.1295 222.198 16.3499L220.469 15.3461C219.245 17.4545 218.642 19.814 218.642 22.4H220.642ZM222.197 16.3532C223.256 14.5428 224.707 13.1348 226.566 12.1171L225.605 10.3629C223.432 11.5532 221.715 13.2172 220.471 15.3428L222.197 16.3532ZM226.566 12.1171C228.422 11.1006 230.511 10.584 232.854 10.584V8.584C230.204 8.584 227.781 9.17144 225.605 10.3629L226.566 12.1171ZM232.854 10.584C234.613 10.584 236.215 10.8768 237.671 11.4504L238.404 9.58959C236.692 8.91523 234.838 8.584 232.854 8.584V10.584ZM237.671 11.4504C239.121 12.0215 240.337 12.8493 241.334 13.9331L242.805 12.5789C241.595 11.2627 240.122 10.2665 238.404 9.58959L237.671 11.4504ZM241.362 12.5489L239.67 14.2409L241.085 15.6551L242.777 13.9631L241.362 12.5489ZM241.089 14.2452C238.919 12.0485 236.172 10.96 232.926 10.96V12.96C235.679 12.96 237.9 13.8635 239.666 15.6508L241.089 14.2452ZM232.926 10.96C230.774 10.96 228.793 11.4543 227.002 12.4551L227.977 14.2009C229.45 13.3777 231.093 12.96 232.926 12.96V10.96ZM227.002 12.4551C225.218 13.4519 223.804 14.8245 222.777 16.5633L224.498 17.5807C225.343 16.1515 226.497 15.0281 227.977 14.2009L227.002 12.4551ZM222.771 16.573C221.765 18.3204 221.27 20.2707 221.27 22.4H223.27C223.27 20.5933 223.686 18.9916 224.504 17.571L222.771 16.573ZM221.27 22.4C221.27 24.5293 221.765 26.4796 222.771 28.227L224.504 27.229C223.686 25.8084 223.27 24.2067 223.27 22.4H221.27ZM222.777 28.2367C223.804 29.9755 225.218 31.3481 227.002 32.3449L227.977 30.5991C226.497 29.7719 225.343 28.6485 224.498 27.2193L222.777 28.2367ZM227.002 32.3449C228.793 33.3457 230.774 33.84 232.926 33.84V31.84C231.093 31.84 229.45 31.4223 227.977 30.5991L227.002 32.3449ZM232.926 33.84C236.197 33.84 238.949 32.7383 241.097 30.5101L239.658 29.1219C237.918 30.9257 235.702 31.84 232.926 31.84V33.84ZM239.67 30.5231L241.362 32.2151L242.777 30.8009L241.085 29.1089L239.67 30.5231ZM241.334 30.8309C240.337 31.9147 239.107 32.7564 237.628 33.3525L238.375 35.2075C240.112 34.5076 241.595 33.5013 242.805 32.1851L241.334 30.8309ZM237.635 33.3496C236.179 33.9232 234.577 34.216 232.818 34.216V36.216C234.802 36.216 236.656 35.8848 238.368 35.2104L237.635 33.3496ZM249.173 33.956L248.675 34.8234L248.686 34.8295L249.173 33.956ZM245.717 30.5L244.849 30.9977L245.717 30.5ZM245.717 20.564L244.849 20.0663L245.717 20.564ZM249.173 17.144L248.686 16.2705L249.173 17.144ZM259.037 17.144L259.524 16.2705V16.2705L259.037 17.144ZM262.457 20.564L261.583 21.0509L261.589 21.0617L262.457 20.564ZM262.457 30.5L261.589 30.0023L261.583 30.0131L262.457 30.5ZM259.037 33.956L259.524 34.8295L259.534 34.8234L259.037 33.956ZM257.705 32.012L258.199 32.8815L258.205 32.8779L257.705 32.012ZM260.225 29.384L261.108 29.8536L260.225 29.384ZM260.225 21.68L261.108 21.2104L260.225 21.68ZM257.705 19.088L257.196 19.9489L257.208 19.9557L257.219 19.9622L257.705 19.088ZM250.469 19.088L250.963 19.9575L250.969 19.9539L250.469 19.088ZM247.949 21.68L247.074 21.1959L247.07 21.2031L247.066 21.2104L247.949 21.68ZM247.949 29.384L247.066 29.8536L247.07 29.8609L247.074 29.8681L247.949 29.384ZM250.469 32.012L249.96 32.8729L249.972 32.8797L249.983 32.8862L250.469 32.012ZM254.105 34.18C252.436 34.18 250.962 33.8083 249.66 33.0825L248.686 34.8295C250.312 35.7357 252.126 36.18 254.105 36.18V34.18ZM249.67 33.0886C248.36 32.3369 247.336 31.3125 246.584 30.0023L244.849 30.9977C245.778 32.6155 247.057 33.8951 248.675 34.8234L249.67 33.0886ZM246.584 30.0023C245.839 28.7039 245.457 27.2224 245.457 25.532H243.457C243.457 27.5376 243.914 29.3681 244.849 30.9977L246.584 30.0023ZM245.457 25.532C245.457 23.8416 245.839 22.3601 246.584 21.0617L244.849 20.0663C243.914 21.6959 243.457 23.5264 243.457 25.532H245.457ZM246.584 21.0617C247.334 19.754 248.355 18.7444 249.66 18.0175L248.686 16.2705C247.062 17.1756 245.779 18.446 244.849 20.0663L246.584 21.0617ZM249.66 18.0175C250.962 17.2917 252.436 16.92 254.105 16.92V14.92C252.126 14.92 250.312 15.3643 248.686 16.2705L249.66 18.0175ZM254.105 16.92C255.774 16.92 257.248 17.2917 258.55 18.0175L259.524 16.2705C257.898 15.3643 256.084 14.92 254.105 14.92V16.92ZM258.55 18.0175C259.852 18.743 260.858 19.7491 261.583 21.0509L263.33 20.0771C262.424 18.4509 261.15 17.177 259.524 16.2705L258.55 18.0175ZM261.589 21.0617C262.334 22.3601 262.717 23.8416 262.717 25.532H264.717C264.717 23.5264 264.259 21.6959 263.324 20.0663L261.589 21.0617ZM262.717 25.532C262.717 27.2224 262.334 28.7039 261.589 30.0023L263.324 30.9977C264.259 29.3681 264.717 27.5376 264.717 25.532H262.717ZM261.583 30.0131C260.856 31.3174 259.847 32.3383 258.539 33.0886L259.534 34.8234C261.155 33.8937 262.425 32.6106 263.33 30.9869L261.583 30.0131ZM258.55 33.0825C257.248 33.8083 255.774 34.18 254.105 34.18V36.18C256.084 36.18 257.898 35.7357 259.524 34.8295L258.55 33.0825ZM254.105 33.912C255.603 33.912 256.977 33.5759 258.199 32.8815L257.211 31.1425C256.321 31.6481 255.294 31.912 254.105 31.912V33.912ZM258.205 32.8779C259.451 32.1578 260.422 31.1427 261.108 29.8536L259.342 28.9144C258.828 29.8813 258.118 30.6182 257.204 31.1461L258.205 32.8779ZM261.108 29.8536C261.794 28.5635 262.125 27.1147 262.125 25.532H260.125C260.125 26.8293 259.856 27.9485 259.342 28.9144L261.108 29.8536ZM262.125 25.532C262.125 23.9493 261.794 22.5005 261.108 21.2104L259.342 22.1496C259.856 23.1155 260.125 24.2347 260.125 25.532H262.125ZM261.108 21.2104C260.42 19.9182 259.445 18.9109 258.19 18.2138L257.219 19.9622C258.124 20.4651 258.829 21.1858 259.342 22.1496L261.108 21.2104ZM258.214 18.2271C256.989 17.5034 255.61 17.152 254.105 17.152V19.152C255.287 19.152 256.309 19.4246 257.196 19.9489L258.214 18.2271ZM254.105 17.152C252.599 17.152 251.212 17.5035 249.969 18.2221L250.969 19.9539C251.885 19.4245 252.922 19.152 254.105 19.152V17.152ZM249.975 18.2185C248.749 18.9151 247.781 19.9172 247.074 21.1959L248.824 22.1641C249.364 21.1868 250.077 20.4609 250.963 19.9575L249.975 18.2185ZM247.066 21.2104C246.38 22.5005 246.049 23.9493 246.049 25.532H248.049C248.049 24.2347 248.318 23.1155 248.832 22.1496L247.066 21.2104ZM246.049 25.532C246.049 27.1147 246.38 28.5635 247.066 29.8536L248.832 28.9144C248.318 27.9485 248.049 26.8293 248.049 25.532H246.049ZM247.074 29.8681C247.779 31.1438 248.743 32.1535 249.96 32.8729L250.978 31.1511C250.083 30.6225 249.366 29.8802 248.824 28.8999L247.074 29.8681ZM249.983 32.8862C251.225 33.5758 252.606 33.912 254.105 33.912V31.912C252.915 31.912 251.873 31.6482 250.954 31.1378L249.983 32.8862ZM284.235 18.008L283.528 18.7151L283.534 18.7212L283.54 18.7272L284.235 18.008ZM286.359 35V36H287.359V35H286.359ZM283.803 35H282.803V36H283.803V35ZM282.327 19.772L281.603 20.4621V20.4621L282.327 19.772ZM273.255 20.06L272.541 19.3599L272.541 19.3601L273.255 20.06ZM271.491 35V36H272.491V35H271.491ZM268.935 35H267.935V36H268.935V35ZM268.935 16.064V15.064H267.935V16.064H268.935ZM271.383 16.064H272.383V15.064H271.383V16.064ZM271.383 19.556H270.383V23.145L272.239 20.0731L271.383 19.556ZM274.263 16.892L274.717 17.7829L274.724 17.7795L274.263 16.892ZM278.583 16.92C280.753 16.92 282.361 17.5484 283.528 18.7151L284.942 17.3009C283.325 15.6836 281.166 14.92 278.583 14.92V16.92ZM283.54 18.7272C284.702 19.8492 285.359 21.5554 285.359 24.02H287.359C287.359 21.2046 286.601 18.9028 284.93 17.2888L283.54 18.7272ZM285.359 24.02V35H287.359V24.02H285.359ZM286.359 34H283.803V36H286.359V34ZM284.803 35V24.272H282.803V35H284.803ZM284.803 24.272C284.803 22.146 284.27 20.3609 283.051 19.0819L281.603 20.4621C282.352 21.2471 282.803 22.462 282.803 24.272H284.803ZM283.051 19.0819C281.829 17.8004 280.132 17.224 278.115 17.224V19.224C279.746 19.224 280.857 19.6796 281.603 20.4621L283.051 19.0819ZM278.115 17.224C275.861 17.224 273.964 17.9081 272.541 19.3599L273.969 20.7601C274.946 19.7639 276.289 19.224 278.115 19.224V17.224ZM272.541 19.3601C271.136 20.7941 270.491 22.7406 270.491 25.064H272.491C272.491 23.1154 273.023 21.7259 273.969 20.7599L272.541 19.3601ZM270.491 25.064V35H272.491V25.064H270.491ZM271.491 34H268.935V36H271.491V34ZM269.935 35V16.064H267.935V35H269.935ZM268.935 17.064H271.383V15.064H268.935V17.064ZM270.383 16.064V19.556H272.383V16.064H270.383ZM272.239 20.0731C272.836 19.0842 273.656 18.3241 274.717 17.7829L273.809 16.0011C272.422 16.7079 271.322 17.7238 270.527 19.0389L272.239 20.0731ZM274.724 17.7795C275.808 17.2165 277.086 16.92 278.583 16.92V14.92C276.817 14.92 275.214 15.2715 273.802 16.0045L274.724 17.7795ZM293.946 34.532L293.635 35.4823L293.645 35.4855L293.655 35.4885L293.946 34.532ZM290.67 32.84L289.802 32.3439L289.39 33.0651L290.023 33.6025L290.67 32.84ZM291.822 30.824L292.441 30.0385L291.53 29.3204L290.954 30.3279L291.822 30.824ZM294.81 32.372L294.488 33.3188L294.497 33.3217L294.506 33.3244L294.81 32.372ZM302.37 32.156L302.914 32.9956L302.92 32.9917L302.37 32.156ZM302.946 28.232L302.28 28.9772L302.291 28.9872L302.302 28.9969L302.946 28.232ZM301.218 27.332L300.922 28.2871L300.937 28.2918L300.952 28.296L301.218 27.332ZM298.446 26.72L298.262 27.7029L298.272 27.7047L298.282 27.7064L298.446 26.72ZM294.738 25.856L294.422 26.8047L294.433 26.8084L294.444 26.8118L294.738 25.856ZM292.326 24.308L291.583 24.977L291.589 24.9837L291.595 24.9903L292.326 24.308ZM293.334 17.432L292.727 16.6372L293.334 17.432ZM302.514 16.424L302.25 17.3883L302.258 17.3908L302.267 17.393L302.514 16.424ZM305.538 17.684L306.417 18.1618L306.854 17.3589L306.093 16.8519L305.538 17.684ZM304.422 19.736L303.853 20.5582L304.769 21.1921L305.301 20.2138L304.422 19.736ZM295.134 18.98L294.569 18.1552L294.558 18.163L295.134 18.98ZM294.594 22.976L293.907 23.702L293.916 23.7107L293.925 23.7193L294.594 22.976ZM296.358 23.948L296.062 24.9031L296.077 24.9078L296.092 24.912L296.358 23.948ZM299.238 24.56L299.426 23.5776L299.412 23.5752L299.238 24.56ZM302.874 25.424L302.573 26.3776L302.874 25.424ZM305.214 26.9L304.482 27.5814V27.5814L305.214 26.9ZM304.098 33.74L304.673 34.5586L304.676 34.5566L304.098 33.74ZM298.374 34.18C296.934 34.18 295.556 33.9776 294.238 33.5755L293.655 35.4885C295.169 35.9504 296.743 36.18 298.374 36.18V34.18ZM294.258 33.5817C292.942 33.1507 291.979 32.6389 291.317 32.0775L290.023 33.6025C290.946 34.3851 292.167 35.0013 293.635 35.4823L294.258 33.5817ZM291.539 33.3361L292.691 31.3201L290.954 30.3279L289.802 32.3439L291.539 33.3361ZM291.203 31.6095C292.104 32.3191 293.207 32.8832 294.488 33.3188L295.132 31.4252C294.013 31.0448 293.125 30.5769 292.441 30.0385L291.203 31.6095ZM294.506 33.3244C295.807 33.7408 297.158 33.948 298.554 33.948V31.948C297.359 31.948 296.214 31.7712 295.115 31.4196L294.506 33.3244ZM298.554 33.948C300.345 33.948 301.853 33.6818 302.914 32.9956L301.827 31.3164C301.256 31.6862 300.22 31.948 298.554 31.948V33.948ZM302.92 32.9917C304.034 32.2596 304.63 31.1813 304.63 29.852H302.63C302.63 30.4907 302.387 30.9484 301.821 31.3203L302.92 32.9917ZM304.63 29.852C304.63 28.9159 304.311 28.0738 303.591 27.4671L302.302 28.9969C302.494 29.1582 302.63 29.3961 302.63 29.852H304.63ZM303.613 27.4868C303.023 26.959 302.302 26.5937 301.484 26.368L300.952 28.296C301.526 28.4543 301.957 28.689 302.28 28.9772L303.613 27.4868ZM301.515 26.3769C300.758 26.142 299.784 25.9292 298.611 25.7336L298.282 27.7064C299.412 27.8948 300.287 28.09 300.922 28.2871L301.515 26.3769ZM298.631 25.7371C297.113 25.4525 295.918 25.1726 295.032 24.9002L294.444 26.8118C295.431 27.1154 296.708 27.4115 298.262 27.7029L298.631 25.7371ZM295.055 24.9073C294.277 24.648 293.615 24.2234 293.057 23.6257L291.595 24.9903C292.381 25.8326 293.328 26.44 294.422 26.8047L295.055 24.9073ZM293.07 23.639C292.633 23.154 292.354 22.4241 292.354 21.32H290.354C290.354 22.7599 290.724 24.022 291.583 24.977L293.07 23.639ZM292.354 21.32C292.354 20.0649 292.855 19.0563 293.941 18.2268L292.727 16.6372C291.174 17.8237 290.354 19.4071 290.354 21.32H292.354ZM293.941 18.2268C295.028 17.3973 296.621 16.92 298.842 16.92V14.92C296.36 14.92 294.281 15.4507 292.727 16.6372L293.941 18.2268ZM298.842 16.92C299.974 16.92 301.109 17.0751 302.25 17.3883L302.779 15.4597C301.472 15.1009 300.159 14.92 298.842 14.92V16.92ZM302.267 17.393C303.415 17.6857 304.311 18.0675 304.984 18.516L306.093 16.8519C305.182 16.2445 304.061 15.7863 302.761 15.455L302.267 17.393ZM304.66 17.2062L303.544 19.2582L305.301 20.2138L306.417 18.1618L304.66 17.2062ZM304.992 18.9138C303.242 17.7025 301.177 17.116 298.842 17.116V19.116C300.828 19.116 302.483 19.6095 303.853 20.5582L304.992 18.9138ZM298.842 17.116C297.12 17.116 295.648 17.4151 294.569 18.1553L295.7 19.8047C296.301 19.3929 297.301 19.116 298.842 19.116V17.116ZM294.558 18.163C293.497 18.9116 292.91 19.9622 292.91 21.248H294.91C294.91 20.6618 295.14 20.2004 295.711 19.797L294.558 18.163ZM292.91 21.248C292.91 22.1986 293.221 23.0529 293.907 23.702L295.282 22.25C295.055 22.0351 294.91 21.7374 294.91 21.248H292.91ZM293.925 23.7193C294.526 24.2597 295.246 24.6497 296.062 24.9031L296.655 22.9929C296.079 22.8143 295.623 22.5563 295.263 22.2327L293.925 23.7193ZM296.092 24.912C296.833 25.1162 297.828 25.3266 299.065 25.5448L299.412 23.5752C298.201 23.3614 297.276 23.1638 296.624 22.984L296.092 24.912ZM299.051 25.5423C300.545 25.8268 301.714 26.1063 302.573 26.3776L303.176 24.4704C302.211 24.1657 300.956 23.8692 299.425 23.5777L299.051 25.5423ZM302.573 26.3776C303.322 26.6139 303.953 27.0126 304.482 27.5814L305.946 26.2186C305.18 25.3954 304.251 24.8101 303.176 24.4704L302.573 26.3776ZM304.482 27.5814C304.913 28.0439 305.186 28.7337 305.186 29.78H307.186C307.186 28.3783 306.812 27.1481 305.946 26.2186L304.482 27.5814ZM305.186 29.78C305.186 31.1001 304.657 32.1203 303.521 32.9234L304.676 34.5566C306.323 33.3917 307.186 31.7719 307.186 29.78H305.186ZM303.524 32.9214C302.386 33.7201 300.708 34.18 298.374 34.18V36.18C300.937 36.18 303.075 35.6799 304.673 34.5586L303.524 32.9214ZM320.884 33.848L321.553 34.5913L322.114 34.086L321.782 33.4078L320.884 33.848ZM319.084 34.856L319.38 35.8111L319.39 35.808L319.4 35.8047L319.084 34.856ZM312.784 33.74L312.077 34.4471L312.784 33.74ZM311.344 18.224H312.344V17.224H311.344V18.224ZM307.96 18.224H306.96V19.224H307.96V18.224ZM307.96 16.064V15.064H306.96V16.064H307.96ZM311.344 16.064V17.064H312.344V16.064H311.344ZM311.344 11.924V10.924H310.344V11.924H311.344ZM313.9 11.924H314.9V10.924H313.9V11.924ZM313.9 16.064H312.9V17.064H313.9V16.064ZM319.66 16.064H320.66V15.064H319.66V16.064ZM319.66 18.224V19.224H320.66V18.224H319.66ZM313.9 18.224V17.224H312.9V18.224H313.9ZM314.728 32.12L313.992 32.7971L314.006 32.8124L314.021 32.8271L314.728 32.12ZM318.688 32.732L318.371 31.7833L318.364 31.7857L318.357 31.7881L318.688 32.732ZM319.984 32.012L320.882 31.5718L320.31 30.4059L319.329 31.2563L319.984 32.012ZM320.215 33.1047C319.853 33.43 319.38 33.7033 318.767 33.9073L319.4 35.8047C320.228 35.5287 320.954 35.13 321.553 34.5913L320.215 33.1047ZM318.787 33.9009C318.192 34.0856 317.561 34.18 316.888 34.18V36.18C317.751 36.18 318.583 36.0584 319.38 35.8111L318.787 33.9009ZM316.888 34.18C315.292 34.18 314.211 33.7528 313.491 33.0329L312.077 34.4471C313.277 35.6472 314.931 36.18 316.888 36.18V34.18ZM313.491 33.0329C312.768 32.3106 312.344 31.2393 312.344 29.672H310.344C310.344 31.6087 310.879 33.2494 312.077 34.4471L313.491 33.0329ZM312.344 29.672V18.224H310.344V29.672H312.344ZM311.344 17.224H307.96V19.224H311.344V17.224ZM308.96 18.224V16.064H306.96V18.224H308.96ZM307.96 17.064H311.344V15.064H307.96V17.064ZM312.344 16.064V11.924H310.344V16.064H312.344ZM311.344 12.924H313.9V10.924H311.344V12.924ZM312.9 11.924V16.064H314.9V11.924H312.9ZM313.9 17.064H319.66V15.064H313.9V17.064ZM318.66 16.064V18.224H320.66V16.064H318.66ZM319.66 17.224H313.9V19.224H319.66V17.224ZM312.9 18.224V29.528H314.9V18.224H312.9ZM312.9 29.528C312.9 30.81 313.214 31.9518 313.992 32.7971L315.464 31.4429C315.137 31.0882 314.9 30.502 314.9 29.528H312.9ZM314.021 32.8271C314.835 33.6416 315.936 33.984 317.176 33.984V31.984C316.303 31.984 315.772 31.7504 315.435 31.4129L314.021 32.8271ZM317.176 33.984C317.812 33.984 318.428 33.8824 319.018 33.6759L318.357 31.7881C317.988 31.9176 317.596 31.984 317.176 31.984V33.984ZM319.004 33.6807C319.618 33.476 320.169 33.175 320.639 32.7677L319.329 31.2563C319.079 31.473 318.765 31.652 318.371 31.7833L319.004 33.6807ZM319.086 32.4522L319.986 34.2882L321.782 33.4078L320.882 31.5718L319.086 32.4522ZM327.985 19.772H326.985L328.889 20.1986L327.985 19.772ZM330.649 16.892L330.173 16.0121L330.166 16.0162L330.649 16.892ZM335.077 15.92H336.077V14.92H335.077V15.92ZM335.077 18.404L335.018 19.4023L336.077 19.4646V18.404H335.077ZM334.465 18.368L334.523 17.3697L334.494 17.368H334.465V18.368ZM329.785 20.204L330.52 20.8817V20.8817L329.785 20.204ZM328.093 35V36H329.093V35H328.093ZM325.537 35H324.537V36H325.537V35ZM325.537 16.064V15.064H324.537V16.064H325.537ZM327.985 16.064H328.985V15.064H327.985V16.064ZM328.889 20.1986C329.404 19.1074 330.149 18.3092 331.131 17.7678L330.166 16.0162C328.797 16.7708 327.766 17.8926 327.08 19.3454L328.889 20.1986ZM331.124 17.7719C332.142 17.222 333.445 16.92 335.077 16.92V14.92C333.205 14.92 331.555 15.266 330.173 16.0121L331.124 17.7719ZM334.077 15.92V18.404H336.077V15.92H334.077ZM335.135 17.4057L334.523 17.3697L334.406 19.3663L335.018 19.4023L335.135 17.4057ZM334.465 17.368C332.253 17.368 330.404 18.0568 329.049 19.5263L330.52 20.8817C331.422 19.9032 332.692 19.368 334.465 19.368V17.368ZM329.049 19.5263C327.702 20.9885 327.093 22.9767 327.093 25.352H329.093C329.093 23.3113 329.612 21.8675 330.52 20.8817L329.049 19.5263ZM327.093 25.352V35H329.093V25.352H327.093ZM328.093 34H325.537V36H328.093V34ZM326.537 35V16.064H324.537V35H326.537ZM325.537 17.064H327.985V15.064H325.537V17.064ZM326.985 16.064V19.772H328.985V16.064H326.985ZM357.05 16.064H358.05V15.064H357.05V16.064ZM357.05 35V36H358.05V35H357.05ZM354.602 35H353.602V36H354.602V35ZM354.602 31.544H355.602V27.8451L353.738 31.0401L354.602 31.544ZM351.83 34.244L352.299 35.1273L352.306 35.1236L352.312 35.1198L351.83 34.244ZM341.93 33.128L341.229 33.8411L341.235 33.8471L341.241 33.853L341.93 33.128ZM339.806 16.064V15.064H338.806V16.064H339.806ZM342.362 16.064H343.362V15.064H342.362V16.064ZM343.838 31.328L344.562 30.6379L343.838 31.328ZM352.766 31.076L353.487 31.7686L353.494 31.7614L352.766 31.076ZM354.494 16.064V15.064H353.494V16.064H354.494ZM356.05 16.064V35H358.05V16.064H356.05ZM357.05 34H354.602V36H357.05V34ZM355.602 35V31.544H353.602V35H355.602ZM353.738 31.0401C353.158 32.0349 352.366 32.8068 351.347 33.3682L352.312 35.1198C353.646 34.3852 354.702 33.3572 355.466 32.0479L353.738 31.0401ZM351.361 33.3606C350.348 33.8982 349.169 34.18 347.798 34.18V36.18C349.451 36.18 350.96 35.8378 352.299 35.1273L351.361 33.3606ZM347.798 34.18C345.516 34.18 343.83 33.5538 342.619 32.403L341.241 33.853C342.91 35.4382 345.135 36.18 347.798 36.18V34.18ZM342.631 32.4149C341.465 31.2682 340.806 29.5345 340.806 27.044H338.806C338.806 29.8815 339.563 32.2038 341.229 33.8411L342.631 32.4149ZM340.806 27.044V16.064H338.806V27.044H340.806ZM339.806 17.064H342.362V15.064H339.806V17.064ZM341.362 16.064V26.792H343.362V16.064H341.362ZM341.362 26.792C341.362 28.9381 341.893 30.737 343.114 32.0181L344.562 30.6379C343.815 29.855 343.362 28.6299 343.362 26.792H341.362ZM343.114 32.0181C344.336 33.2996 346.033 33.876 348.05 33.876V31.876C346.419 31.876 345.308 31.4204 344.562 30.6379L343.114 32.0181ZM348.05 33.876C350.256 33.876 352.11 33.2032 353.487 31.7685L352.044 30.3835C351.118 31.3488 349.828 31.876 348.05 31.876V33.876ZM353.494 31.7614C354.866 30.3035 355.494 28.3394 355.494 26H353.494C353.494 27.9806 352.97 29.4005 352.038 30.3906L353.494 31.7614ZM355.494 26V16.064H353.494V26H355.494ZM354.494 17.064H357.05V15.064H354.494V17.064ZM367.017 33.956L366.53 34.8295L366.536 34.8328L367.017 33.956ZM363.561 30.536L362.69 31.0276L362.693 31.0337L363.561 30.536ZM363.561 20.564L362.693 20.0663L363.561 20.564ZM367.017 17.144L366.536 16.2672L366.53 16.2705L367.017 17.144ZM376.413 16.892L375.959 17.783L375.969 17.7881L375.979 17.793L376.413 16.892ZM379.473 19.664L380.034 20.4912L380.821 19.957L380.327 19.1446L379.473 19.664ZM377.565 20.96L376.732 21.5147L377.292 22.354L378.126 21.7872L377.565 20.96ZM375.189 18.872L374.741 19.7664L374.75 19.7709L374.759 19.7753L375.189 18.872ZM368.349 19.088L368.834 19.9622L368.841 19.9586L368.349 19.088ZM365.793 21.68L364.918 21.1959L364.914 21.2031L364.91 21.2104L365.793 21.68ZM365.793 29.42L364.91 29.8896L364.916 29.9009L364.922 29.9121L365.793 29.42ZM368.349 32.012L367.848 32.8779L367.86 32.8844L367.871 32.8906L368.349 32.012ZM375.189 32.228L374.759 31.3247L375.189 32.228ZM377.565 30.14L378.126 29.3128L377.292 28.746L376.732 29.5853L377.565 30.14ZM379.473 31.436L380.327 31.9554L380.821 31.143L380.034 30.6088L379.473 31.436ZM376.413 34.244L376.846 35.145L376.853 35.1418L376.86 35.1384L376.413 34.244ZM372.057 34.18C370.335 34.18 368.823 33.8063 367.497 33.0792L366.536 34.8328C368.186 35.7377 370.034 36.18 372.057 36.18V34.18ZM367.503 33.0825C366.199 32.3556 365.178 31.346 364.428 30.0383L362.693 31.0337C363.623 32.654 364.906 33.9244 366.53 34.8295L367.503 33.0825ZM364.431 30.0444C363.683 28.7185 363.301 27.2222 363.301 25.532H361.301C361.301 27.5378 361.758 29.3775 362.69 31.0276L364.431 30.0444ZM363.301 25.532C363.301 23.8416 363.683 22.3601 364.428 21.0617L362.693 20.0663C361.758 21.6959 361.301 23.5264 361.301 25.532H363.301ZM364.428 21.0617C365.178 19.754 366.199 18.7444 367.503 18.0175L366.53 16.2705C364.906 17.1756 363.623 18.446 362.693 20.0663L364.428 21.0617ZM367.497 18.0208C368.823 17.2937 370.335 16.92 372.057 16.92V14.92C370.034 14.92 368.186 15.3623 366.536 16.2672L367.497 18.0208ZM372.057 16.92C373.553 16.92 374.846 17.2163 375.959 17.783L376.866 16.001C375.435 15.2717 373.824 14.92 372.057 14.92V16.92ZM375.979 17.793C377.101 18.3335 377.975 19.1253 378.618 20.1834L380.327 19.1446C379.482 17.7547 378.316 16.6985 376.846 15.991L375.979 17.793ZM378.911 18.8368L377.003 20.1328L378.126 21.7872L380.034 20.4912L378.911 18.8368ZM378.397 20.4053C377.678 19.328 376.751 18.5069 375.618 17.9687L374.759 19.7753C375.546 20.1491 376.203 20.72 376.732 21.5147L378.397 20.4053ZM375.636 17.9776C374.53 17.4246 373.332 17.152 372.057 17.152V19.152C373.037 19.152 373.927 19.3594 374.741 19.7664L375.636 17.9776ZM372.057 17.152C370.53 17.152 369.122 17.502 367.856 18.2174L368.841 19.9586C369.783 19.426 370.847 19.152 372.057 19.152V17.152ZM367.863 18.2138C366.612 18.9089 365.628 19.9115 364.918 21.1959L366.668 22.1641C367.205 21.1925 367.925 20.4671 368.834 19.9622L367.863 18.2138ZM364.91 21.2104C364.223 22.5005 363.893 23.9493 363.893 25.532H365.893C365.893 24.2347 366.162 23.1155 366.675 22.1496L364.91 21.2104ZM363.893 25.532C363.893 27.1357 364.222 28.5972 364.91 29.8896L366.675 28.9504C366.163 27.9868 365.893 26.8563 365.893 25.532H363.893ZM364.922 29.9121C365.632 31.1688 366.611 32.163 367.848 32.8779L368.849 31.1461C367.926 30.613 367.201 29.8792 366.663 28.9279L364.922 29.9121ZM367.871 32.8906C369.134 33.5772 370.537 33.912 372.057 33.912V31.912C370.84 31.912 369.771 31.6468 368.826 31.1334L367.871 32.8906ZM372.057 33.912C373.324 33.912 374.515 33.6548 375.618 33.1313L374.759 31.3247C373.942 31.7132 373.045 31.912 372.057 31.912V33.912ZM375.618 33.1313C376.751 32.5931 377.678 31.772 378.397 30.6947L376.732 29.5853C376.203 30.38 375.546 30.9509 374.759 31.3247L375.618 33.1313ZM377.003 30.9672L378.911 32.2632L380.034 30.6088L378.126 29.3128L377.003 30.9672ZM378.618 30.9166C377.973 31.9778 377.095 32.7847 375.965 33.3496L376.86 35.1384C378.322 34.4073 379.484 33.3422 380.327 31.9554L378.618 30.9166ZM375.979 33.343C374.833 33.8945 373.532 34.18 372.057 34.18V36.18C373.797 36.18 375.4 35.8415 376.846 35.145L375.979 33.343ZM394.677 33.848L395.346 34.5913L395.907 34.086L395.575 33.4078L394.677 33.848ZM392.877 34.856L393.173 35.8111L393.183 35.808L393.193 35.8047L392.877 34.856ZM386.577 33.74L385.87 34.4471L386.577 33.74ZM385.137 18.224H386.137V17.224H385.137V18.224ZM381.753 18.224H380.753V19.224H381.753V18.224ZM381.753 16.064V15.064H380.753V16.064H381.753ZM385.137 16.064V17.064H386.137V16.064H385.137ZM385.137 11.924V10.924H384.137V11.924H385.137ZM387.693 11.924H388.693V10.924H387.693V11.924ZM387.693 16.064H386.693V17.064H387.693V16.064ZM393.453 16.064H394.453V15.064H393.453V16.064ZM393.453 18.224V19.224H394.453V18.224H393.453ZM387.693 18.224V17.224H386.693V18.224H387.693ZM388.521 32.12L387.785 32.7971L387.799 32.8124L387.814 32.8271L388.521 32.12ZM392.481 32.732L392.164 31.7833L392.157 31.7857L392.15 31.7881L392.481 32.732ZM393.777 32.012L394.675 31.5718L394.103 30.4059L393.122 31.2563L393.777 32.012ZM394.008 33.1047C393.646 33.43 393.173 33.7033 392.56 33.9073L393.193 35.8047C394.021 35.5287 394.747 35.13 395.346 34.5913L394.008 33.1047ZM392.58 33.9009C391.985 34.0856 391.354 34.18 390.681 34.18V36.18C391.544 36.18 392.376 36.0584 393.173 35.8111L392.58 33.9009ZM390.681 34.18C389.085 34.18 388.004 33.7528 387.284 33.0329L385.87 34.4471C387.07 35.6472 388.724 36.18 390.681 36.18V34.18ZM387.284 33.0329C386.561 32.3106 386.137 31.2393 386.137 29.672H384.137C384.137 31.6087 384.672 33.2494 385.87 34.4471L387.284 33.0329ZM386.137 29.672V18.224H384.137V29.672H386.137ZM385.137 17.224H381.753V19.224H385.137V17.224ZM382.753 18.224V16.064H380.753V18.224H382.753ZM381.753 17.064H385.137V15.064H381.753V17.064ZM386.137 16.064V11.924H384.137V16.064H386.137ZM385.137 12.924H387.693V10.924H385.137V12.924ZM386.693 11.924V16.064H388.693V11.924H386.693ZM387.693 17.064H393.453V15.064H387.693V17.064ZM392.453 16.064V18.224H394.453V16.064H392.453ZM393.453 17.224H387.693V19.224H393.453V17.224ZM386.693 18.224V29.528H388.693V18.224H386.693ZM386.693 29.528C386.693 30.81 387.007 31.9518 387.785 32.7971L389.257 31.4429C388.93 31.0882 388.693 30.502 388.693 29.528H386.693ZM387.814 32.8271C388.628 33.6416 389.729 33.984 390.969 33.984V31.984C390.096 31.984 389.565 31.7504 389.228 31.4129L387.814 32.8271ZM390.969 33.984C391.605 33.984 392.221 33.8824 392.811 33.6759L392.15 31.7881C391.78 31.9176 391.388 31.984 390.969 31.984V33.984ZM392.797 33.6807C393.411 33.476 393.962 33.175 394.432 32.7677L393.122 31.2563C392.872 31.473 392.558 31.652 392.164 31.7833L392.797 33.6807ZM392.879 32.4522L393.779 34.2882L395.575 33.4078L394.675 31.5718L392.879 32.4522ZM401.47 33.956L400.972 34.8234L400.983 34.8295L401.47 33.956ZM398.014 30.5L397.146 30.9977L398.014 30.5ZM398.014 20.564L397.146 20.0663L398.014 20.564ZM401.47 17.144L400.983 16.2705L401.47 17.144ZM411.334 17.144L411.821 16.2705V16.2705L411.334 17.144ZM414.754 20.564L413.88 21.0509L413.886 21.0617L414.754 20.564ZM414.754 30.5L413.886 30.0023L413.88 30.0131L414.754 30.5ZM411.334 33.956L411.821 34.8295L411.831 34.8234L411.334 33.956ZM410.002 32.012L410.496 32.8815L410.502 32.8779L410.002 32.012ZM412.522 29.384L413.405 29.8536L412.522 29.384ZM412.522 21.68L413.405 21.2104L412.522 21.68ZM410.002 19.088L409.493 19.9489L409.504 19.9557L409.516 19.9622L410.002 19.088ZM402.766 19.088L403.26 19.9575L403.266 19.9539L402.766 19.088ZM400.246 21.68L399.371 21.1959L399.367 21.2031L399.363 21.2104L400.246 21.68ZM400.246 29.384L399.363 29.8536L399.367 29.8609L399.371 29.8681L400.246 29.384ZM402.766 32.012L402.257 32.8729L402.268 32.8797L402.28 32.8862L402.766 32.012ZM406.402 34.18C404.733 34.18 403.259 33.8083 401.957 33.0825L400.983 34.8295C402.609 35.7357 404.423 36.18 406.402 36.18V34.18ZM401.967 33.0886C400.657 32.3369 399.633 31.3125 398.881 30.0023L397.146 30.9977C398.075 32.6155 399.354 33.8951 400.972 34.8234L401.967 33.0886ZM398.881 30.0023C398.136 28.7039 397.754 27.2224 397.754 25.532H395.754C395.754 27.5376 396.211 29.3681 397.146 30.9977L398.881 30.0023ZM397.754 25.532C397.754 23.8416 398.136 22.3601 398.881 21.0617L397.146 20.0663C396.211 21.6959 395.754 23.5264 395.754 25.532H397.754ZM398.881 21.0617C399.631 19.754 400.652 18.7444 401.957 18.0175L400.983 16.2705C399.359 17.1756 398.076 18.446 397.146 20.0663L398.881 21.0617ZM401.957 18.0175C403.259 17.2917 404.733 16.92 406.402 16.92V14.92C404.423 14.92 402.609 15.3643 400.983 16.2705L401.957 18.0175ZM406.402 16.92C408.071 16.92 409.545 17.2917 410.847 18.0175L411.821 16.2705C410.195 15.3643 408.381 14.92 406.402 14.92V16.92ZM410.847 18.0175C412.148 18.743 413.155 19.7491 413.88 21.0509L415.627 20.0771C414.721 18.4509 413.447 17.177 411.821 16.2705L410.847 18.0175ZM413.886 21.0617C414.631 22.3601 415.014 23.8416 415.014 25.532H417.014C417.014 23.5264 416.556 21.6959 415.621 20.0663L413.886 21.0617ZM415.014 25.532C415.014 27.2224 414.631 28.7039 413.886 30.0023L415.621 30.9977C416.556 29.3681 417.014 27.5376 417.014 25.532H415.014ZM413.88 30.0131C413.153 31.3174 412.144 32.3383 410.836 33.0886L411.831 34.8234C413.452 33.8937 414.722 32.6106 415.627 30.9869L413.88 30.0131ZM410.847 33.0825C409.545 33.8083 408.071 34.18 406.402 34.18V36.18C408.381 36.18 410.195 35.7357 411.821 34.8295L410.847 33.0825ZM406.402 33.912C407.9 33.912 409.273 33.5759 410.496 32.8815L409.508 31.1425C408.618 31.6481 407.591 31.912 406.402 31.912V33.912ZM410.502 32.8779C411.748 32.1578 412.719 31.1427 413.405 29.8536L411.639 28.9144C411.124 29.8813 410.415 30.6182 409.501 31.1461L410.502 32.8779ZM413.405 29.8536C414.091 28.5635 414.422 27.1147 414.422 25.532H412.422C412.422 26.8293 412.153 27.9485 411.639 28.9144L413.405 29.8536ZM414.422 25.532C414.422 23.9493 414.091 22.5005 413.405 21.2104L411.639 22.1496C412.153 23.1155 412.422 24.2347 412.422 25.532H414.422ZM413.405 21.2104C412.717 19.9182 411.742 18.9109 410.487 18.2138L409.516 19.9622C410.421 20.4651 411.126 21.1858 411.639 22.1496L413.405 21.2104ZM410.51 18.2271C409.286 17.5034 407.907 17.152 406.402 17.152V19.152C407.584 19.152 408.606 19.4246 409.493 19.9489L410.51 18.2271ZM406.402 17.152C404.896 17.152 403.509 17.5035 402.265 18.2221L403.266 19.9539C404.182 19.4245 405.219 19.152 406.402 19.152V17.152ZM402.272 18.2185C401.046 18.9151 400.078 19.9172 399.371 21.1959L401.121 22.1641C401.661 21.1868 402.374 20.4609 403.26 19.9575L402.272 18.2185ZM399.363 21.2104C398.677 22.5005 398.346 23.9493 398.346 25.532H400.346C400.346 24.2347 400.615 23.1155 401.129 22.1496L399.363 21.2104ZM398.346 25.532C398.346 27.1147 398.677 28.5635 399.363 29.8536L401.129 28.9144C400.615 27.9485 400.346 26.8293 400.346 25.532H398.346ZM399.371 29.8681C400.076 31.1438 401.039 32.1535 402.257 32.8729L403.274 31.1511C402.38 30.6225 401.663 29.8802 401.121 28.8999L399.371 29.8681ZM402.28 32.8862C403.521 33.5758 404.903 33.912 406.402 33.912V31.912C405.212 31.912 404.17 31.6482 403.251 31.1378L402.28 32.8862ZM423.68 19.772H422.68L424.584 20.1986L423.68 19.772ZM426.344 16.892L425.869 16.0121L425.861 16.0162L426.344 16.892ZM430.772 15.92H431.772V14.92H430.772V15.92ZM430.772 18.404L430.713 19.4023L431.772 19.4646V18.404H430.772ZM430.16 18.368L430.219 17.3697L430.189 17.368H430.16V18.368ZM425.48 20.204L426.215 20.8817V20.8817L425.48 20.204ZM423.788 35V36H424.788V35H423.788ZM421.232 35H420.232V36H421.232V35ZM421.232 16.064V15.064H420.232V16.064H421.232ZM423.68 16.064H424.68V15.064H423.68V16.064ZM424.584 20.1986C425.099 19.1074 425.844 18.3092 426.827 17.7678L425.861 16.0162C424.492 16.7708 423.461 17.8926 422.776 19.3454L424.584 20.1986ZM426.819 17.7719C427.837 17.222 429.14 16.92 430.772 16.92V14.92C428.9 14.92 427.251 15.266 425.869 16.0121L426.819 17.7719ZM429.772 15.92V18.404H431.772V15.92H429.772ZM430.831 17.4057L430.219 17.3697L430.101 19.3663L430.713 19.4023L430.831 17.4057ZM430.16 17.368C427.948 17.368 426.099 18.0568 424.745 19.5263L426.215 20.8817C427.117 19.9032 428.388 19.368 430.16 19.368V17.368ZM424.745 19.5263C423.397 20.9885 422.788 22.9767 422.788 25.352H424.788C424.788 23.3113 425.307 21.8675 426.215 20.8817L424.745 19.5263ZM422.788 25.352V35H424.788V25.352H422.788ZM423.788 34H421.232V36H423.788V34ZM422.232 35V16.064H420.232V35H422.232ZM421.232 17.064H423.68V15.064H421.232V17.064ZM422.68 16.064V19.772H424.68V16.064H422.68ZM451.712 26.324V27.324H452.668L452.711 26.3694L451.712 26.324ZM435.872 26.324V25.324H434.796L434.875 26.397L435.872 26.324ZM438.14 31.112L437.473 31.8573L437.481 31.8638L438.14 31.112ZM446.564 32.3L446.947 33.2237L446.957 33.2198L446.966 33.2156L446.564 32.3ZM449.12 30.428L449.875 29.7718L449.126 28.9103L448.37 29.7664L449.12 30.428ZM450.56 32.084L451.328 32.7242L451.873 32.0702L451.315 31.4278L450.56 32.084ZM447.392 34.388L447.009 33.4644L447.003 33.467L447.392 34.388ZM438.068 33.956L437.577 34.8268L437.585 34.8315L437.593 34.836L438.068 33.956ZM434.576 30.5L433.709 30.9977L434.576 30.5ZM434.504 20.564L433.631 20.0771L433.625 20.0882L434.504 20.564ZM437.816 17.144L437.317 16.2775L437.31 16.2813L437.816 17.144ZM450.56 20.564L449.681 21.0398L449.684 21.0459L450.56 20.564ZM451.748 25.532L452.747 25.5774L452.748 25.5547V25.532H451.748ZM437.96 19.88L438.646 20.6082L438.646 20.6078L437.96 19.88ZM435.872 24.416L434.876 24.3266L434.778 25.416H435.872V24.416ZM449.3 24.416V25.416H450.394L450.296 24.3266L449.3 24.416ZM447.176 19.88L446.483 20.6011L446.491 20.608L446.498 20.6148L447.176 19.88ZM451.712 25.324H435.872V27.324H451.712V25.324ZM434.875 26.397C435.036 28.6021 435.897 30.4467 437.473 31.8572L438.807 30.3668C437.647 29.3293 436.996 27.9819 436.869 26.251L434.875 26.397ZM437.481 31.8638C439.058 33.2472 441.032 33.912 443.324 33.912V31.912C441.441 31.912 439.958 31.3768 438.8 30.3602L437.481 31.8638ZM443.324 33.912C444.618 33.912 445.83 33.6871 446.947 33.2237L446.181 31.3763C445.331 31.7289 444.382 31.912 443.324 31.912V33.912ZM446.966 33.2156C448.085 32.7245 449.055 32.0131 449.87 31.0896L448.37 29.7664C447.745 30.4749 447.011 31.0115 446.162 31.3844L446.966 33.2156ZM448.366 31.0842L449.806 32.7402L451.315 31.4278L449.875 29.7718L448.366 31.0842ZM449.792 31.4438C449.061 32.3214 448.139 32.9952 447.009 33.4644L447.776 35.3116C449.189 34.7248 450.38 33.8626 451.328 32.7242L449.792 31.4438ZM447.003 33.467C445.891 33.9372 444.646 34.18 443.252 34.18V36.18C444.883 36.18 446.397 35.8948 447.782 35.309L447.003 33.467ZM443.252 34.18C441.452 34.18 439.891 33.8034 438.543 33.076L437.593 34.836C439.269 35.7406 441.164 36.18 443.252 36.18V34.18ZM438.56 33.0852C437.226 32.3324 436.193 31.3084 435.444 30.0023L433.709 30.9977C434.639 32.6196 435.934 33.8996 437.577 34.8268L438.56 33.0852ZM435.444 30.0023C434.699 28.7039 434.316 27.2224 434.316 25.532H432.316C432.316 27.5376 432.774 29.3681 433.709 30.9977L435.444 30.0023ZM434.316 25.532C434.316 23.8315 434.679 22.3421 435.384 21.0398L433.625 20.0882C432.745 21.7139 432.316 23.5365 432.316 25.532H434.316ZM435.378 21.0509C436.11 19.7364 437.09 18.7289 438.322 18.0067L437.31 16.2813C435.758 17.1911 434.53 18.4636 433.631 20.0771L435.378 21.0509ZM438.315 18.0104C439.569 17.2882 440.978 16.92 442.568 16.92V14.92C440.654 14.92 438.896 15.3678 437.317 16.2776L438.315 18.0104ZM442.568 16.92C444.158 16.92 445.553 17.2882 446.778 18.0067L447.79 16.2813C446.231 15.3678 444.482 14.92 442.568 14.92V16.92ZM446.778 18.0067C448.008 18.7273 448.973 19.7312 449.681 21.0398L451.44 20.0882C450.564 18.4688 449.345 17.1927 447.79 16.2813L446.778 18.0067ZM449.684 21.0459C450.384 22.3188 450.748 23.8048 450.748 25.532H452.748C452.748 23.5152 452.32 21.6892 451.436 20.0821L449.684 21.0459ZM450.749 25.4866L450.713 26.2786L452.711 26.3694L452.747 25.5774L450.749 25.4866ZM442.568 17.116C440.507 17.116 438.72 17.7895 437.274 19.1522L438.646 20.6078C439.696 19.6185 440.981 19.116 442.568 19.116V17.116ZM437.275 19.1518C435.851 20.4917 435.063 22.2418 434.876 24.3266L436.868 24.5054C437.017 22.8462 437.621 21.5723 438.646 20.6082L437.275 19.1518ZM435.872 25.416H449.3V23.416H435.872V25.416ZM450.296 24.3266C450.109 22.236 449.305 20.4839 447.854 19.1452L446.498 20.6148C447.544 21.5801 448.156 22.852 448.304 24.5054L450.296 24.3266ZM447.869 19.1589C446.441 17.7873 444.649 17.116 442.568 17.116V19.116C444.183 19.116 445.463 19.6207 446.483 20.6011L447.869 19.1589ZM457.599 34.532L457.287 35.4823L457.297 35.4855L457.307 35.4885L457.599 34.532ZM454.323 32.84L453.454 32.3439L453.042 33.0651L453.676 33.6025L454.323 32.84ZM455.475 30.824L456.094 30.0385L455.182 29.3204L454.606 30.3279L455.475 30.824ZM458.463 32.372L458.141 33.3188L458.149 33.3217L458.158 33.3244L458.463 32.372ZM466.023 32.156L466.566 32.9956L466.572 32.9917L466.023 32.156ZM466.599 28.232L465.932 28.9772L465.943 28.9872L465.955 28.9969L466.599 28.232ZM464.871 27.332L464.574 28.2871L464.589 28.2918L464.605 28.296L464.871 27.332ZM462.099 26.72L461.914 27.7029L461.924 27.7047L461.934 27.7064L462.099 26.72ZM458.391 25.856L458.074 26.8047L458.086 26.8084L458.097 26.8118L458.391 25.856ZM455.979 24.308L455.235 24.977L455.241 24.9837L455.248 24.9903L455.979 24.308ZM456.987 17.432L456.38 16.6372L456.987 17.432ZM466.167 16.424L465.902 17.3883L465.911 17.3908L465.92 17.393L466.167 16.424ZM469.191 17.684L470.069 18.1618L470.506 17.3589L469.745 16.8519L469.191 17.684ZM468.075 19.736L467.506 20.5582L468.421 21.1921L468.953 20.2138L468.075 19.736ZM458.787 18.98L458.221 18.1552L458.21 18.163L458.787 18.98ZM458.247 22.976L457.559 23.702L457.568 23.7107L457.578 23.7193L458.247 22.976ZM460.011 23.948L459.714 24.9031L459.729 24.9078L459.745 24.912L460.011 23.948ZM462.891 24.56L463.078 23.5776L463.065 23.5752L462.891 24.56ZM466.527 25.424L466.226 26.3776L466.527 25.424ZM468.867 26.9L468.135 27.5814V27.5814L468.867 26.9ZM467.751 33.74L468.325 34.5586L468.328 34.5566L467.751 33.74ZM462.027 34.18C460.586 34.18 459.208 33.9776 457.891 33.5755L457.307 35.4885C458.821 35.9504 460.396 36.18 462.027 36.18V34.18ZM457.91 33.5817C456.594 33.1507 455.631 32.6389 454.97 32.0775L453.676 33.6025C454.598 34.3851 455.819 35.0013 457.287 35.4823L457.91 33.5817ZM455.191 33.3361L456.343 31.3201L454.606 30.3279L453.454 32.3439L455.191 33.3361ZM454.856 31.6095C455.757 32.3191 456.86 32.8832 458.141 33.3188L458.785 31.4252C457.666 31.0448 456.777 30.5769 456.094 30.0385L454.856 31.6095ZM458.158 33.3244C459.459 33.7408 460.81 33.948 462.207 33.948V31.948C461.011 31.948 459.866 31.7712 458.767 31.4196L458.158 33.3244ZM462.207 33.948C463.997 33.948 465.505 33.6818 466.566 32.9956L465.479 31.3164C464.908 31.6862 463.873 31.948 462.207 31.948V33.948ZM466.572 32.9917C467.686 32.2596 468.283 31.1813 468.283 29.852H466.283C466.283 30.4907 466.039 30.9484 465.474 31.3203L466.572 32.9917ZM468.283 29.852C468.283 28.9159 467.963 28.0738 467.243 27.4671L465.955 28.9969C466.146 29.1582 466.283 29.3961 466.283 29.852H468.283ZM467.266 27.4868C466.676 26.959 465.955 26.5937 465.137 26.368L464.605 28.296C465.179 28.4543 465.61 28.689 465.932 28.9772L467.266 27.4868ZM465.167 26.3769C464.41 26.142 463.437 25.9292 462.263 25.7336L461.934 27.7064C463.065 27.8948 463.939 28.09 464.574 28.2871L465.167 26.3769ZM462.283 25.7371C460.765 25.4525 459.57 25.1726 458.685 24.9002L458.097 26.8118C459.083 27.1154 460.36 27.4115 461.914 27.7029L462.283 25.7371ZM458.707 24.9073C457.929 24.648 457.268 24.2234 456.71 23.6257L455.248 24.9903C456.034 25.8326 456.98 26.44 458.074 26.8047L458.707 24.9073ZM456.722 23.639C456.285 23.154 456.007 22.4241 456.007 21.32H454.007C454.007 22.7599 454.376 24.022 455.235 24.977L456.722 23.639ZM456.007 21.32C456.007 20.0649 456.507 19.0563 457.594 18.2268L456.38 16.6372C454.826 17.8237 454.007 19.4071 454.007 21.32H456.007ZM457.594 18.2268C458.68 17.3973 460.273 16.92 462.495 16.92V14.92C460.012 14.92 457.934 15.4507 456.38 16.6372L457.594 18.2268ZM462.495 16.92C463.626 16.92 464.761 17.0751 465.902 17.3883L466.431 15.4597C465.124 15.1009 463.811 14.92 462.495 14.92V16.92ZM465.92 17.393C467.068 17.6857 467.963 18.0675 468.636 18.516L469.745 16.8519C468.834 16.2445 467.714 15.7863 466.414 15.455L465.92 17.393ZM468.312 17.2062L467.196 19.2582L468.953 20.2138L470.069 18.1618L468.312 17.2062ZM468.644 18.9138C466.894 17.7025 464.829 17.116 462.495 17.116V19.116C464.48 19.116 466.135 19.6095 467.506 20.5582L468.644 18.9138ZM462.495 17.116C460.772 17.116 459.301 17.4151 458.221 18.1553L459.352 19.8047C459.953 19.3929 460.953 19.116 462.495 19.116V17.116ZM458.21 18.163C457.15 18.9116 456.563 19.9622 456.563 21.248H458.563C458.563 20.6618 458.792 20.2004 459.363 19.797L458.21 18.163ZM456.563 21.248C456.563 22.1986 456.874 23.0529 457.559 23.702L458.934 22.25C458.708 22.0351 458.563 21.7374 458.563 21.248H456.563ZM457.578 23.7193C458.178 24.2597 458.898 24.6497 459.714 24.9031L460.307 22.9929C459.731 22.8143 459.275 22.5563 458.916 22.2327L457.578 23.7193ZM459.745 24.912C460.485 25.1162 461.481 25.3266 462.717 25.5448L463.065 23.5752C461.853 23.3614 460.928 23.1638 460.277 22.984L459.745 24.912ZM462.704 25.5423C464.197 25.8268 465.366 26.1063 466.226 26.3776L466.828 24.4704C465.863 24.1657 464.608 23.8692 463.078 23.5777L462.704 25.5423ZM466.226 26.3776C466.974 26.6139 467.605 27.0126 468.135 27.5814L469.599 26.2186C468.832 25.3954 467.904 24.8101 466.828 24.4704L466.226 26.3776ZM468.135 27.5814C468.565 28.0439 468.839 28.7337 468.839 29.78H470.839C470.839 28.3783 470.464 27.1481 469.599 26.2186L468.135 27.5814ZM468.839 29.78C468.839 31.1001 468.31 32.1203 467.173 32.9234L468.328 34.5566C469.976 33.3917 470.839 31.7719 470.839 29.78H468.839ZM467.176 32.9214C466.038 33.7201 464.36 34.18 462.027 34.18V36.18C464.589 36.18 466.727 35.6799 468.325 34.5586L467.176 32.9214Z" fill="black"/>
</g>
<path d="M188.102 66.48H181.406V73.032H179.138V66.48H172.442V64.356H179.138V57.768H181.406V64.356H188.102V66.48ZM199.125 63.132C202.773 63.132 205.425 63.792 207.081 65.112C208.761 66.408 209.601 68.232 209.601 70.584C209.601 72.048 209.253 73.356 208.557 74.508C207.885 75.66 206.865 76.572 205.497 77.244C204.129 77.892 202.449 78.216 200.457 78.216C198.657 78.216 196.941 77.928 195.309 77.352C193.701 76.752 192.405 75.96 191.421 74.976L192.681 72.924C193.521 73.788 194.625 74.496 195.993 75.048C197.361 75.576 198.837 75.84 200.421 75.84C202.509 75.84 204.117 75.372 205.245 74.436C206.397 73.5 206.973 72.252 206.973 70.692C206.973 68.964 206.325 67.656 205.029 66.768C203.757 65.88 201.597 65.436 198.549 65.436H193.185L194.481 52.8H208.269V55.104H196.749L195.885 63.132H199.125ZM230.183 52.8V54.636L219.635 78H216.827L227.195 55.104H214.235V59.82H211.679V52.8H230.183ZM249.068 84.984C247.724 82.776 246.692 80.244 245.972 77.388C245.252 74.508 244.892 71.424 244.892 68.136C244.892 64.848 245.252 61.764 245.972 58.884C246.692 55.98 247.724 53.448 249.068 51.288H251.516C250.1 53.712 249.056 56.316 248.384 59.1C247.736 61.884 247.412 64.896 247.412 68.136C247.412 71.376 247.736 74.388 248.384 77.172C249.056 79.956 250.1 82.56 251.516 84.984H249.068ZM263.436 63.6C266.076 63.744 268.08 64.464 269.448 65.76C270.84 67.032 271.536 68.7 271.536 70.764C271.536 72.204 271.188 73.488 270.492 74.616C269.796 75.72 268.764 76.596 267.396 77.244C266.028 77.892 264.36 78.216 262.392 78.216C260.568 78.216 258.84 77.928 257.208 77.352C255.6 76.752 254.304 75.96 253.32 74.976L254.58 72.924C255.42 73.788 256.536 74.496 257.928 75.048C259.32 75.576 260.808 75.84 262.392 75.84C264.456 75.84 266.052 75.396 267.18 74.508C268.308 73.596 268.872 72.348 268.872 70.764C268.872 69.204 268.308 67.98 267.18 67.092C266.052 66.204 264.348 65.76 262.068 65.76H260.268V63.852L267.252 55.104H254.364V52.8H270.564V54.636L263.436 63.6ZM292.221 75.696V78H274.545V76.164L285.021 65.904C286.341 64.608 287.229 63.492 287.685 62.556C288.165 61.596 288.405 60.636 288.405 59.676C288.405 58.188 287.889 57.036 286.857 56.22C285.849 55.38 284.397 54.96 282.501 54.96C279.549 54.96 277.257 55.896 275.625 57.768L273.789 56.184C274.773 55.032 276.021 54.144 277.533 53.52C279.069 52.896 280.797 52.584 282.717 52.584C285.285 52.584 287.313 53.196 288.801 54.42C290.313 55.62 291.069 57.276 291.069 59.388C291.069 60.684 290.781 61.932 290.205 63.132C289.629 64.332 288.537 65.712 286.929 67.272L278.361 75.696H292.221ZM305.377 78.216C303.433 78.216 301.693 77.7 300.157 76.668C298.645 75.636 297.457 74.16 296.593 72.24C295.753 70.296 295.333 68.016 295.333 65.4C295.333 62.784 295.753 60.516 296.593 58.596C297.457 56.652 298.645 55.164 300.157 54.132C301.693 53.1 303.433 52.584 305.377 52.584C307.321 52.584 309.049 53.1 310.561 54.132C312.097 55.164 313.297 56.652 314.161 58.596C315.025 60.516 315.457 62.784 315.457 65.4C315.457 68.016 315.025 70.296 314.161 72.24C313.297 74.16 312.097 75.636 310.561 76.668C309.049 77.7 307.321 78.216 305.377 78.216ZM305.377 75.84C306.841 75.84 308.125 75.432 309.229 74.616C310.357 73.8 311.233 72.612 311.857 71.052C312.481 69.492 312.793 67.608 312.793 65.4C312.793 63.192 312.481 61.308 311.857 59.748C311.233 58.188 310.357 57 309.229 56.184C308.125 55.368 306.841 54.96 305.377 54.96C303.913 54.96 302.617 55.368 301.489 56.184C300.385 57 299.521 58.188 298.897 59.748C298.273 61.308 297.961 63.192 297.961 65.4C297.961 67.608 298.273 69.492 298.897 71.052C299.521 72.612 300.385 73.8 301.489 74.616C302.617 75.432 303.913 75.84 305.377 75.84ZM318.737 84.984C320.153 82.56 321.197 79.968 321.869 77.208C322.541 74.424 322.877 71.4 322.877 68.136C322.877 64.872 322.541 61.86 321.869 59.1C321.197 56.316 320.153 53.712 318.737 51.288H321.185C322.529 53.448 323.561 55.98 324.281 58.884C325.025 61.764 325.397 64.848 325.397 68.136C325.397 71.424 325.037 74.508 324.317 77.388C323.597 80.268 322.553 82.8 321.185 84.984H318.737ZM357.646 75.696V78H339.97V76.164L350.446 65.904C351.766 64.608 352.654 63.492 353.11 62.556C353.59 61.596 353.83 60.636 353.83 59.676C353.83 58.188 353.314 57.036 352.282 56.22C351.274 55.38 349.822 54.96 347.926 54.96C344.974 54.96 342.682 55.896 341.05 57.768L339.214 56.184C340.198 55.032 341.446 54.144 342.958 53.52C344.494 52.896 346.222 52.584 348.142 52.584C350.71 52.584 352.738 53.196 354.226 54.42C355.738 55.62 356.494 57.276 356.494 59.388C356.494 60.684 356.206 61.932 355.63 63.132C355.054 64.332 353.962 65.712 352.354 67.272L343.786 75.696H357.646ZM367.883 52.8V78H365.291V55.104H359.351V52.8H367.883ZM391.691 52.8V54.636L381.143 78H378.335L388.703 55.104H375.743V59.82H373.187V52.8H391.691ZM421.736 75.696V78H404.06V76.164L414.536 65.904C415.856 64.608 416.744 63.492 417.2 62.556C417.68 61.596 417.92 60.636 417.92 59.676C417.92 58.188 417.404 57.036 416.372 56.22C415.364 55.38 413.912 54.96 412.016 54.96C409.064 54.96 406.772 55.896 405.14 57.768L403.304 56.184C404.288 55.032 405.536 54.144 407.048 53.52C408.584 52.896 410.312 52.584 412.232 52.584C414.8 52.584 416.828 53.196 418.316 54.42C419.828 55.62 420.584 57.276 420.584 59.388C420.584 60.684 420.296 61.932 419.72 63.132C419.144 64.332 418.052 65.712 416.444 67.272L407.876 75.696H421.736ZM432.837 52.584C436.173 52.584 438.729 53.688 440.505 55.896C442.281 58.08 443.169 61.176 443.169 65.184C443.169 67.992 442.689 70.368 441.729 72.312C440.769 74.256 439.425 75.732 437.697 76.74C435.969 77.724 433.953 78.216 431.649 78.216C429.153 78.216 427.161 77.76 425.673 76.848L426.717 74.76C427.917 75.552 429.549 75.948 431.613 75.948C434.397 75.948 436.581 75.072 438.165 73.32C439.749 71.544 440.541 68.976 440.541 65.616C440.541 64.992 440.505 64.308 440.433 63.564C439.809 64.932 438.813 66 437.445 66.768C436.077 67.512 434.505 67.884 432.729 67.884C431.073 67.884 429.597 67.572 428.301 66.948C427.029 66.324 426.033 65.448 425.313 64.32C424.593 63.168 424.233 61.836 424.233 60.324C424.233 58.788 424.605 57.432 425.349 56.256C426.093 55.08 427.113 54.18 428.409 53.556C429.729 52.908 431.205 52.584 432.837 52.584ZM433.125 65.688C434.397 65.688 435.513 65.448 436.473 64.968C437.457 64.488 438.225 63.828 438.777 62.988C439.329 62.148 439.605 61.212 439.605 60.18C439.605 59.22 439.341 58.332 438.813 57.516C438.309 56.7 437.553 56.04 436.545 55.536C435.537 55.032 434.337 54.78 432.945 54.78C431.121 54.78 429.633 55.284 428.481 56.292C427.353 57.276 426.789 58.596 426.789 60.252C426.789 61.908 427.353 63.228 428.481 64.212C429.633 65.196 431.181 65.688 433.125 65.688ZM453.84 52.8V78H451.248V55.104H445.308V52.8H453.84ZM466.848 52.8V78H464.256V55.104H458.316V52.8H466.848Z" fill="black"/>
</g>
<defs>
<filter id="filter0_d_203_5" x="0.689178" y="8.28799" width="473.15" height="41.876" filterUnits="userSpaceOnUse" color-interpolation-filters="sRGB">
<feFlood flood-opacity="0" result="BackgroundImageFix"/>
<feColorMatrix in="SourceAlpha" type="matrix" values="0 0 0 0 0 0 0 0 0 0 0 0 0 0 0 0 0 0 127 0" result="hardAlpha"/>
<feOffset dy="4"/>
<feGaussianBlur stdDeviation="2"/>
<feComposite in2="hardAlpha" operator="out"/>
<feColorMatrix type="matrix" values="0 0 0 0 0 0 0 0 0 0 0 0 0 0 0 0 0 0 0.25 0"/>
<feBlend mode="normal" in2="BackgroundImageFix" result="effect1_dropShadow_203_5"/>
<feBlend mode="normal" in="SourceGraphic" in2="effect1_dropShadow_203_5" result="shape"/>
</filter>
</defs>
</svg>
