<svg width="242" height="79" viewBox="0 0 242 79" fill="none" xmlns="http://www.w3.org/2000/svg">
<g style="mix-blend-mode:color-burn">
<rect x="0.5" y="0.5" width="241" height="76" fill="white"/>
<g filter="url(#filter0_d_209_2)">
<path d="M55.1751 21.756H50.4951L49.4871 24H48.5631L52.4031 15.6H53.2791L57.1191 24H56.1831L55.1751 21.756ZM54.8511 21.036L52.8351 16.524L50.8191 21.036H54.8511ZM63.3162 17.688L60.1602 24.756C59.9042 25.348 59.6082 25.768 59.2722 26.016C58.9362 26.264 58.5322 26.388 58.0602 26.388C57.7562 26.388 57.4722 26.34 57.2082 26.244C56.9442 26.148 56.7162 26.004 56.5242 25.812L56.9202 25.176C57.2402 25.496 57.6242 25.656 58.0722 25.656C58.3602 25.656 58.6042 25.576 58.8042 25.416C59.0122 25.256 59.2042 24.984 59.3802 24.6L59.6562 23.988L56.8362 17.688H57.7242L60.1002 23.052L62.4762 17.688H63.3162ZM68.2504 24.072C67.4184 24.072 66.6664 23.888 65.9944 23.52C65.3304 23.152 64.8064 22.644 64.4224 21.996C64.0464 21.34 63.8584 20.608 63.8584 19.8C63.8584 18.992 64.0464 18.264 64.4224 17.616C64.8064 16.96 65.3344 16.448 66.0064 16.08C66.6784 15.712 67.4304 15.528 68.2624 15.528C68.8864 15.528 69.4624 15.632 69.9904 15.84C70.5184 16.048 70.9664 16.352 71.3344 16.752L70.7704 17.316C70.1144 16.652 69.2864 16.32 68.2864 16.32C67.6224 16.32 67.0184 16.472 66.4744 16.776C65.9304 17.08 65.5024 17.496 65.1904 18.024C64.8864 18.552 64.7344 19.144 64.7344 19.8C64.7344 20.456 64.8864 21.048 65.1904 21.576C65.5024 22.104 65.9304 22.52 66.4744 22.824C67.0184 23.128 67.6224 23.28 68.2864 23.28C69.2944 23.28 70.1224 22.944 70.7704 22.272L71.3344 22.836C70.9664 23.236 70.5144 23.544 69.9784 23.76C69.4504 23.968 68.8744 24.072 68.2504 24.072ZM85.092 15.6V24H84.24V17.28L80.94 22.932H80.52L77.22 17.316V24H76.368V15.6H77.1L80.748 21.828L84.36 15.6H85.092ZM93.3369 17.688V24H92.5209V22.848C92.2969 23.232 91.9889 23.532 91.5969 23.748C91.2049 23.956 90.7569 24.06 90.2529 24.06C89.4289 24.06 88.7769 23.832 88.2969 23.376C87.8249 22.912 87.5889 22.236 87.5889 21.348V17.688H88.4409V21.264C88.4409 21.928 88.6049 22.432 88.9329 22.776C89.2609 23.12 89.7289 23.292 90.3369 23.292C91.0009 23.292 91.5249 23.092 91.9089 22.692C92.2929 22.284 92.4849 21.72 92.4849 21V17.688H93.3369ZM96.5392 18.924C96.7392 18.5 97.0352 18.18 97.4272 17.964C97.8272 17.748 98.3192 17.64 98.9032 17.64V18.468L98.6992 18.456C98.0352 18.456 97.5152 18.66 97.1392 19.068C96.7632 19.476 96.5752 20.048 96.5752 20.784V24H95.7232V17.688H96.5392V18.924ZM100.446 17.688H101.298V24H100.446V17.688ZM100.878 16.308C100.702 16.308 100.554 16.248 100.434 16.128C100.314 16.008 100.254 15.864 100.254 15.696C100.254 15.536 100.314 15.396 100.434 15.276C100.554 15.156 100.702 15.096 100.878 15.096C101.054 15.096 101.202 15.156 101.322 15.276C101.442 15.388 101.502 15.524 101.502 15.684C101.502 15.86 101.442 16.008 101.322 16.128C101.202 16.248 101.054 16.308 100.878 16.308ZM103.668 15.096H104.52V24H103.668V15.096ZM106.891 15.096H107.743V24H106.891V15.096ZM112.694 24.06C112.086 24.06 111.538 23.924 111.05 23.652C110.562 23.372 110.178 22.988 109.898 22.5C109.618 22.012 109.478 21.46 109.478 20.844C109.478 20.228 109.618 19.676 109.898 19.188C110.178 18.7 110.562 18.32 111.05 18.048C111.538 17.776 112.086 17.64 112.694 17.64C113.302 17.64 113.85 17.776 114.338 18.048C114.826 18.32 115.206 18.7 115.478 19.188C115.758 19.676 115.898 20.228 115.898 20.844C115.898 21.46 115.758 22.012 115.478 22.5C115.206 22.988 114.826 23.372 114.338 23.652C113.85 23.924 113.302 24.06 112.694 24.06ZM112.694 23.304C113.142 23.304 113.542 23.204 113.894 23.004C114.254 22.796 114.534 22.504 114.734 22.128C114.934 21.752 115.034 21.324 115.034 20.844C115.034 20.364 114.934 19.936 114.734 19.56C114.534 19.184 114.254 18.896 113.894 18.696C113.542 18.488 113.142 18.384 112.694 18.384C112.246 18.384 111.842 18.488 111.482 18.696C111.13 18.896 110.85 19.184 110.642 19.56C110.442 19.936 110.342 20.364 110.342 20.844C110.342 21.324 110.442 21.752 110.642 22.128C110.85 22.504 111.13 22.796 111.482 23.004C111.842 23.204 112.246 23.304 112.694 23.304ZM124.606 24.072C123.774 24.072 123.022 23.888 122.35 23.52C121.686 23.152 121.162 22.644 120.778 21.996C120.402 21.34 120.214 20.608 120.214 19.8C120.214 18.992 120.402 18.264 120.778 17.616C121.162 16.96 121.69 16.448 122.362 16.08C123.034 15.712 123.786 15.528 124.618 15.528C125.242 15.528 125.818 15.632 126.346 15.84C126.874 16.048 127.322 16.352 127.69 16.752L127.126 17.316C126.47 16.652 125.642 16.32 124.642 16.32C123.978 16.32 123.374 16.472 122.83 16.776C122.286 17.08 121.858 17.496 121.546 18.024C121.242 18.552 121.09 19.144 121.09 19.8C121.09 20.456 121.242 21.048 121.546 21.576C121.858 22.104 122.286 22.52 122.83 22.824C123.374 23.128 123.978 23.28 124.642 23.28C125.65 23.28 126.478 22.944 127.126 22.272L127.69 22.836C127.322 23.236 126.87 23.544 126.334 23.76C125.806 23.968 125.23 24.072 124.606 24.072ZM131.702 24.06C131.094 24.06 130.546 23.924 130.058 23.652C129.57 23.372 129.186 22.988 128.906 22.5C128.626 22.012 128.486 21.46 128.486 20.844C128.486 20.228 128.626 19.676 128.906 19.188C129.186 18.7 129.57 18.32 130.058 18.048C130.546 17.776 131.094 17.64 131.702 17.64C132.31 17.64 132.858 17.776 133.346 18.048C133.834 18.32 134.214 18.7 134.486 19.188C134.766 19.676 134.906 20.228 134.906 20.844C134.906 21.46 134.766 22.012 134.486 22.5C134.214 22.988 133.834 23.372 133.346 23.652C132.858 23.924 132.31 24.06 131.702 24.06ZM131.702 23.304C132.15 23.304 132.55 23.204 132.902 23.004C133.262 22.796 133.542 22.504 133.742 22.128C133.942 21.752 134.042 21.324 134.042 20.844C134.042 20.364 133.942 19.936 133.742 19.56C133.542 19.184 133.262 18.896 132.902 18.696C132.55 18.488 132.15 18.384 131.702 18.384C131.254 18.384 130.85 18.488 130.49 18.696C130.138 18.896 129.858 19.184 129.65 19.56C129.45 19.936 129.35 20.364 129.35 20.844C129.35 21.324 129.45 21.752 129.65 22.128C129.858 22.504 130.138 22.796 130.49 23.004C130.85 23.204 131.254 23.304 131.702 23.304ZM139.861 17.64C140.653 17.64 141.281 17.872 141.745 18.336C142.217 18.792 142.453 19.46 142.453 20.34V24H141.601V20.424C141.601 19.768 141.437 19.268 141.109 18.924C140.781 18.58 140.313 18.408 139.705 18.408C139.025 18.408 138.485 18.612 138.085 19.02C137.693 19.42 137.497 19.976 137.497 20.688V24H136.645V17.688H137.461V18.852C137.693 18.468 138.013 18.172 138.421 17.964C138.837 17.748 139.317 17.64 139.861 17.64ZM146.458 24.06C145.946 24.06 145.454 23.988 144.982 23.844C144.518 23.692 144.154 23.504 143.89 23.28L144.274 22.608C144.538 22.816 144.87 22.988 145.27 23.124C145.67 23.252 146.086 23.316 146.518 23.316C147.094 23.316 147.518 23.228 147.79 23.052C148.07 22.868 148.21 22.612 148.21 22.284C148.21 22.052 148.134 21.872 147.982 21.744C147.83 21.608 147.638 21.508 147.406 21.444C147.174 21.372 146.866 21.304 146.482 21.24C145.97 21.144 145.558 21.048 145.246 20.952C144.934 20.848 144.666 20.676 144.442 20.436C144.226 20.196 144.118 19.864 144.118 19.44C144.118 18.912 144.338 18.48 144.778 18.144C145.218 17.808 145.83 17.64 146.614 17.64C147.022 17.64 147.43 17.696 147.838 17.808C148.246 17.912 148.582 18.052 148.846 18.228L148.474 18.912C147.954 18.552 147.334 18.372 146.614 18.372C146.07 18.372 145.658 18.468 145.378 18.66C145.106 18.852 144.97 19.104 144.97 19.416C144.97 19.656 145.046 19.848 145.198 19.992C145.358 20.136 145.554 20.244 145.786 20.316C146.018 20.38 146.338 20.448 146.746 20.52C147.25 20.616 147.654 20.712 147.958 20.808C148.262 20.904 148.522 21.068 148.738 21.3C148.954 21.532 149.062 21.852 149.062 22.26C149.062 22.812 148.83 23.252 148.366 23.58C147.91 23.9 147.274 24.06 146.458 24.06ZM153.961 23.616C153.801 23.76 153.601 23.872 153.361 23.952C153.129 24.024 152.885 24.06 152.629 24.06C152.037 24.06 151.581 23.9 151.261 23.58C150.941 23.26 150.781 22.808 150.781 22.224V18.408H149.653V17.688H150.781V16.308H151.633V17.688H153.553V18.408H151.633V22.176C151.633 22.552 151.725 22.84 151.909 23.04C152.101 23.232 152.373 23.328 152.725 23.328C152.901 23.328 153.069 23.3 153.229 23.244C153.397 23.188 153.541 23.108 153.661 23.004L153.961 23.616ZM156.328 18.924C156.528 18.5 156.824 18.18 157.216 17.964C157.616 17.748 158.108 17.64 158.692 17.64V18.468L158.488 18.456C157.824 18.456 157.304 18.66 156.928 19.068C156.552 19.476 156.364 20.048 156.364 20.784V24H155.512V17.688H156.328V18.924ZM166.017 17.688V24H165.201V22.848C164.977 23.232 164.669 23.532 164.277 23.748C163.885 23.956 163.437 24.06 162.933 24.06C162.109 24.06 161.457 23.832 160.977 23.376C160.505 22.912 160.269 22.236 160.269 21.348V17.688H161.121V21.264C161.121 21.928 161.285 22.432 161.613 22.776C161.941 23.12 162.409 23.292 163.017 23.292C163.681 23.292 164.205 23.092 164.589 22.692C164.973 22.284 165.165 21.72 165.165 21V17.688H166.017ZM171.019 24.06C170.395 24.06 169.835 23.924 169.339 23.652C168.851 23.38 168.467 23 168.187 22.512C167.907 22.016 167.767 21.46 167.767 20.844C167.767 20.228 167.907 19.676 168.187 19.188C168.467 18.7 168.851 18.32 169.339 18.048C169.835 17.776 170.395 17.64 171.019 17.64C171.563 17.64 172.047 17.748 172.471 17.964C172.903 18.172 173.243 18.48 173.491 18.888L172.855 19.32C172.647 19.008 172.383 18.776 172.063 18.624C171.743 18.464 171.395 18.384 171.019 18.384C170.563 18.384 170.151 18.488 169.783 18.696C169.423 18.896 169.139 19.184 168.931 19.56C168.731 19.936 168.631 20.364 168.631 20.844C168.631 21.332 168.731 21.764 168.931 22.14C169.139 22.508 169.423 22.796 169.783 23.004C170.151 23.204 170.563 23.304 171.019 23.304C171.395 23.304 171.743 23.228 172.063 23.076C172.383 22.924 172.647 22.692 172.855 22.38L173.491 22.812C173.243 23.22 172.903 23.532 172.471 23.748C172.039 23.956 171.555 24.06 171.019 24.06ZM178.559 23.616C178.399 23.76 178.199 23.872 177.959 23.952C177.727 24.024 177.483 24.06 177.227 24.06C176.635 24.06 176.179 23.9 175.859 23.58C175.539 23.26 175.379 22.808 175.379 22.224V18.408H174.251V17.688H175.379V16.308H176.231V17.688H178.151V18.408H176.231V22.176C176.231 22.552 176.323 22.84 176.507 23.04C176.699 23.232 176.971 23.328 177.323 23.328C177.499 23.328 177.667 23.3 177.827 23.244C177.995 23.188 178.139 23.108 178.259 23.004L178.559 23.616ZM182.467 24.06C181.859 24.06 181.311 23.924 180.823 23.652C180.335 23.372 179.951 22.988 179.671 22.5C179.391 22.012 179.251 21.46 179.251 20.844C179.251 20.228 179.391 19.676 179.671 19.188C179.951 18.7 180.335 18.32 180.823 18.048C181.311 17.776 181.859 17.64 182.467 17.64C183.075 17.64 183.623 17.776 184.111 18.048C184.599 18.32 184.979 18.7 185.251 19.188C185.531 19.676 185.671 20.228 185.671 20.844C185.671 21.46 185.531 22.012 185.251 22.5C184.979 22.988 184.599 23.372 184.111 23.652C183.623 23.924 183.075 24.06 182.467 24.06ZM182.467 23.304C182.915 23.304 183.315 23.204 183.667 23.004C184.027 22.796 184.307 22.504 184.507 22.128C184.707 21.752 184.807 21.324 184.807 20.844C184.807 20.364 184.707 19.936 184.507 19.56C184.307 19.184 184.027 18.896 183.667 18.696C183.315 18.488 182.915 18.384 182.467 18.384C182.019 18.384 181.615 18.488 181.255 18.696C180.903 18.896 180.623 19.184 180.415 19.56C180.215 19.936 180.115 20.364 180.115 20.844C180.115 21.324 180.215 21.752 180.415 22.128C180.623 22.504 180.903 22.796 181.255 23.004C181.615 23.204 182.019 23.304 182.467 23.304ZM188.227 18.924C188.427 18.5 188.723 18.18 189.115 17.964C189.515 17.748 190.007 17.64 190.591 17.64V18.468L190.387 18.456C189.723 18.456 189.203 18.66 188.827 19.068C188.451 19.476 188.263 20.048 188.263 20.784V24H187.411V17.688H188.227V18.924ZM197.571 21.108H192.291C192.339 21.764 192.591 22.296 193.047 22.704C193.503 23.104 194.079 23.304 194.775 23.304C195.167 23.304 195.527 23.236 195.855 23.1C196.183 22.956 196.467 22.748 196.707 22.476L197.187 23.028C196.907 23.364 196.555 23.62 196.131 23.796C195.715 23.972 195.255 24.06 194.751 24.06C194.103 24.06 193.527 23.924 193.023 23.652C192.527 23.372 192.139 22.988 191.859 22.5C191.579 22.012 191.439 21.46 191.439 20.844C191.439 20.228 191.571 19.676 191.835 19.188C192.107 18.7 192.475 18.32 192.939 18.048C193.411 17.776 193.939 17.64 194.523 17.64C195.107 17.64 195.631 17.776 196.095 18.048C196.559 18.32 196.923 18.7 197.187 19.188C197.451 19.668 197.583 20.22 197.583 20.844L197.571 21.108ZM194.523 18.372C193.915 18.372 193.403 18.568 192.987 18.96C192.579 19.344 192.347 19.848 192.291 20.472H196.767C196.711 19.848 196.475 19.344 196.059 18.96C195.651 18.568 195.139 18.372 194.523 18.372ZM201.009 24.06C200.497 24.06 200.005 23.988 199.533 23.844C199.069 23.692 198.705 23.504 198.441 23.28L198.825 22.608C199.089 22.816 199.421 22.988 199.821 23.124C200.221 23.252 200.637 23.316 201.069 23.316C201.645 23.316 202.069 23.228 202.341 23.052C202.621 22.868 202.761 22.612 202.761 22.284C202.761 22.052 202.685 21.872 202.533 21.744C202.381 21.608 202.189 21.508 201.957 21.444C201.725 21.372 201.417 21.304 201.033 21.24C200.521 21.144 200.109 21.048 199.797 20.952C199.485 20.848 199.217 20.676 198.993 20.436C198.777 20.196 198.669 19.864 198.669 19.44C198.669 18.912 198.889 18.48 199.329 18.144C199.769 17.808 200.381 17.64 201.165 17.64C201.573 17.64 201.981 17.696 202.389 17.808C202.797 17.912 203.133 18.052 203.397 18.228L203.025 18.912C202.505 18.552 201.885 18.372 201.165 18.372C200.621 18.372 200.209 18.468 199.929 18.66C199.657 18.852 199.521 19.104 199.521 19.416C199.521 19.656 199.597 19.848 199.749 19.992C199.909 20.136 200.105 20.244 200.337 20.316C200.569 20.38 200.889 20.448 201.297 20.52C201.801 20.616 202.205 20.712 202.509 20.808C202.813 20.904 203.073 21.068 203.289 21.3C203.505 21.532 203.613 21.852 203.613 22.26C203.613 22.812 203.381 23.252 202.917 23.58C202.461 23.9 201.825 24.06 201.009 24.06Z" fill="black"/>
<path d="M55.1751 21.756L56.0873 21.3462L55.8221 20.756H55.1751V21.756ZM50.4951 21.756V20.756H49.848L49.5829 21.3462L50.4951 21.756ZM49.4871 24V25H50.1341L50.3993 24.4098L49.4871 24ZM48.5631 24L47.6536 23.5842L47.0064 25H48.5631V24ZM52.4031 15.6V14.6H51.7607L51.4936 15.1842L52.4031 15.6ZM53.2791 15.6L54.1885 15.1842L53.9215 14.6H53.2791V15.6ZM57.1191 24V25H58.6757L58.0285 23.5842L57.1191 24ZM56.1831 24L55.2709 24.4098L55.536 25H56.1831V24ZM54.8511 21.036V22.036H56.3932L55.7641 20.6281L54.8511 21.036ZM52.8351 16.524L53.7481 16.1161L52.8351 14.0727L51.9221 16.1161L52.8351 16.524ZM50.8191 21.036L49.9061 20.6281L49.277 22.036H50.8191V21.036ZM55.1751 20.756H50.4951V22.756H55.1751V20.756ZM49.5829 21.3462L48.5749 23.5902L50.3993 24.4098L51.4073 22.1658L49.5829 21.3462ZM49.4871 23H48.5631V25H49.4871V23ZM49.4725 24.4158L53.3125 16.0158L51.4936 15.1842L47.6536 23.5842L49.4725 24.4158ZM52.4031 16.6H53.2791V14.6H52.4031V16.6ZM52.3696 16.0158L56.2096 24.4158L58.0285 23.5842L54.1885 15.1842L52.3696 16.0158ZM57.1191 23H56.1831V25H57.1191V23ZM57.0953 23.5902L56.0873 21.3462L54.2629 22.1658L55.2709 24.4098L57.0953 23.5902ZM55.7641 20.6281L53.7481 16.1161L51.9221 16.9319L53.9381 21.4439L55.7641 20.6281ZM51.9221 16.1161L49.9061 20.6281L51.7321 21.4439L53.7481 16.9319L51.9221 16.1161ZM50.8191 22.036H54.8511V20.036H50.8191V22.036ZM63.3162 17.688L64.2293 18.0957L64.8579 16.688H63.3162V17.688ZM60.1602 24.756L59.247 24.3483L59.2424 24.3591L60.1602 24.756ZM59.2722 26.016L59.8661 26.8206L59.8661 26.8206L59.2722 26.016ZM57.2082 26.244L57.55 25.3042L57.55 25.3042L57.2082 26.244ZM56.5242 25.812L55.6753 25.2834L55.2556 25.9576L55.8171 26.5191L56.5242 25.812ZM56.9202 25.176L57.6273 24.4689L56.7369 23.5785L56.0713 24.6474L56.9202 25.176ZM58.8042 25.416L58.1945 24.6234L58.187 24.6292L58.1795 24.6351L58.8042 25.416ZM59.3802 24.6L60.2893 25.0167L60.2918 25.0111L59.3802 24.6ZM59.6562 23.988L60.5678 24.3991L60.7525 23.9895L60.569 23.5794L59.6562 23.988ZM56.8362 17.688V16.688H55.293L55.9235 18.0966L56.8362 17.688ZM57.7242 17.688L58.6385 17.283L58.375 16.688H57.7242V17.688ZM60.1002 23.052L59.1859 23.457L60.1002 25.5211L61.0145 23.457L60.1002 23.052ZM62.4762 17.688V16.688H61.8255L61.5619 17.283L62.4762 17.688ZM62.4031 17.2803L59.2471 24.3483L61.0733 25.1637L64.2293 18.0957L62.4031 17.2803ZM59.2424 24.3591C59.0215 24.8698 58.8151 25.1105 58.6784 25.2114L59.8661 26.8206C60.4013 26.4255 60.7869 25.8262 61.0781 25.1529L59.2424 24.3591ZM58.6784 25.2114C58.5364 25.3162 58.3476 25.388 58.0602 25.388V27.388C58.7169 27.388 59.3361 27.2118 59.8661 26.8206L58.6784 25.2114ZM58.0602 25.388C57.8632 25.388 57.6958 25.3572 57.55 25.3042L56.8665 27.1838C57.2487 27.3228 57.6493 27.388 58.0602 27.388V25.388ZM57.55 25.3042C57.4184 25.2564 57.3164 25.19 57.2313 25.1049L55.8171 26.5191C56.116 26.818 56.47 27.0396 56.8665 27.1838L57.55 25.3042ZM57.3731 26.3406L57.7691 25.7046L56.0713 24.6474L55.6753 25.2834L57.3731 26.3406ZM56.2131 25.8831C56.7185 26.3885 57.356 26.656 58.0722 26.656V24.656C57.8924 24.656 57.7619 24.6035 57.6273 24.4689L56.2131 25.8831ZM58.0722 26.656C58.5574 26.656 59.0296 26.5163 59.4289 26.1969L58.1795 24.6351C58.1732 24.6402 58.1683 24.6429 58.1597 24.6458C58.1496 24.6491 58.1231 24.656 58.0722 24.656V26.656ZM59.4139 26.2086C59.8063 25.9068 60.0824 25.4679 60.2893 25.0167L58.4712 24.1833C58.326 24.5001 58.2181 24.6052 58.1945 24.6234L59.4139 26.2086ZM60.2918 25.0111L60.5678 24.3991L58.7446 23.5769L58.4686 24.1889L60.2918 25.0111ZM60.569 23.5794L57.749 17.2794L55.9235 18.0966L58.7435 24.3966L60.569 23.5794ZM56.8362 18.688H57.7242V16.688H56.8362V18.688ZM56.8099 18.093L59.1859 23.457L61.0145 22.647L58.6385 17.283L56.8099 18.093ZM61.0145 23.457L63.3905 18.093L61.5619 17.283L59.1859 22.647L61.0145 23.457ZM62.4762 18.688H63.3162V16.688H62.4762V18.688ZM65.9944 23.52L65.5096 24.3947L65.5141 24.3971L65.9944 23.52ZM64.4224 21.996L63.5548 22.4933L63.5584 22.4996L63.5621 22.5058L64.4224 21.996ZM64.4224 17.616L63.5594 17.1108L63.5574 17.1141L64.4224 17.616ZM66.0064 16.08L65.5261 15.2029L65.5261 15.2029L66.0064 16.08ZM69.9904 15.84L69.6239 16.7704L69.6239 16.7704L69.9904 15.84ZM71.3344 16.752L72.0415 17.4591L72.7197 16.7808L72.0703 16.0749L71.3344 16.752ZM70.7704 17.316L70.059 18.0188L70.7661 18.7345L71.4775 18.0231L70.7704 17.316ZM66.4744 16.776L65.9866 15.9031L65.9866 15.9031L66.4744 16.776ZM65.1904 18.024L64.3294 17.5152L64.3238 17.525L65.1904 18.024ZM65.1904 21.576L64.3237 22.075L64.3294 22.0847L65.1904 21.576ZM66.4744 22.824L65.9866 23.6969L65.9866 23.6969L66.4744 22.824ZM70.7704 22.272L71.4775 21.5649L70.7574 20.8448L70.0505 21.5779L70.7704 22.272ZM71.3344 22.836L72.0703 23.5131L72.7197 22.8072L72.0415 22.1289L71.3344 22.836ZM69.9784 23.76L70.3449 24.6904L70.3522 24.6875L69.9784 23.76ZM68.2504 23.072C67.5715 23.072 66.987 22.9234 66.4747 22.6429L65.5141 24.3971C66.3458 24.8526 67.2653 25.072 68.2504 25.072V23.072ZM66.4791 22.6453C65.9692 22.3627 65.5754 21.9801 65.2827 21.4862L63.5621 22.5058C64.0374 23.3079 64.6916 23.9413 65.5096 24.3947L66.4791 22.6453ZM65.29 21.4987C65.0067 21.0045 64.8584 20.4459 64.8584 19.8H62.8584C62.8584 20.7701 63.0861 21.6755 63.5548 22.4933L65.29 21.4987ZM64.8584 19.8C64.8584 19.154 65.0067 18.6015 65.2873 18.1179L63.5574 17.1141C63.0861 17.9265 62.8584 18.83 62.8584 19.8H64.8584ZM65.2854 18.1212C65.5771 17.6228 65.9723 17.2388 66.4867 16.9571L65.5261 15.2029C64.6965 15.6572 64.0356 16.2972 63.5594 17.1108L65.2854 18.1212ZM66.4867 16.9571C66.999 16.6766 67.5835 16.528 68.2624 16.528V14.528C67.2773 14.528 66.3578 14.7474 65.5261 15.2029L66.4867 16.9571ZM68.2624 16.528C68.7734 16.528 69.2237 16.6128 69.6239 16.7704L70.3569 14.9096C69.7011 14.6512 68.9993 14.528 68.2624 14.528V16.528ZM69.6239 16.7704C70.0175 16.9255 70.3374 17.1453 70.5984 17.4291L72.0703 16.0749C71.5954 15.5587 71.0192 15.1705 70.3569 14.9096L69.6239 16.7704ZM70.6273 16.0449L70.0633 16.6089L71.4775 18.0231L72.0415 17.4591L70.6273 16.0449ZM71.4818 16.6132C70.6235 15.7445 69.5325 15.32 68.2864 15.32V17.32C69.0402 17.32 69.6052 17.5595 70.059 18.0188L71.4818 16.6132ZM68.2864 15.32C67.4631 15.32 66.6894 15.5103 65.9866 15.9031L66.9622 17.6489C67.3473 17.4337 67.7816 17.32 68.2864 17.32V15.32ZM65.9866 15.9031C65.2908 16.2919 64.7329 16.8325 64.3294 17.5153L66.0513 18.5327C66.2718 18.1595 66.57 17.8681 66.9622 17.6489L65.9866 15.9031ZM64.3238 17.525C63.9257 18.2164 63.7344 18.9827 63.7344 19.8H65.7344C65.7344 19.3053 65.8471 18.8876 66.057 18.523L64.3238 17.525ZM63.7344 19.8C63.7344 20.6173 63.9257 21.3836 64.3238 22.075L66.057 21.077C65.8471 20.7124 65.7344 20.2947 65.7344 19.8H63.7344ZM64.3294 22.0847C64.7329 22.7675 65.2908 23.3081 65.9866 23.6969L66.9622 21.9511C66.57 21.7319 66.2718 21.4405 66.0513 21.0673L64.3294 22.0847ZM65.9866 23.6969C66.6894 24.0897 67.4631 24.28 68.2864 24.28V22.28C67.7816 22.28 67.3473 22.1663 66.9622 21.9511L65.9866 23.6969ZM68.2864 24.28C69.5418 24.28 70.6377 23.8503 71.4902 22.9661L70.0505 21.5779C69.6071 22.0377 69.0469 22.28 68.2864 22.28V24.28ZM70.0633 22.9791L70.6273 23.5431L72.0415 22.1289L71.4775 21.5649L70.0633 22.9791ZM70.5984 22.1589C70.3374 22.4427 70.0117 22.6684 69.6046 22.8325L70.3522 24.6875C71.0171 24.4196 71.5954 24.0293 72.0703 23.5131L70.5984 22.1589ZM69.6119 22.8296C69.2117 22.9872 68.7614 23.072 68.2504 23.072V25.072C68.9873 25.072 69.6891 24.9488 70.3449 24.6904L69.6119 22.8296ZM85.092 15.6H86.092V14.6H85.092V15.6ZM85.092 24V25H86.092V24H85.092ZM84.24 24H83.24V25H84.24V24ZM84.24 17.28H85.24V13.584L83.3764 16.7758L84.24 17.28ZM80.94 22.932V23.932H81.5141L81.8036 23.4362L80.94 22.932ZM80.52 22.932L79.6578 23.4386L79.9477 23.932H80.52V22.932ZM77.22 17.316L78.0822 16.8094L76.22 13.6403V17.316H77.22ZM77.22 24V25H78.22V24H77.22ZM76.368 24H75.368V25H76.368V24ZM76.368 15.6V14.6H75.368V15.6H76.368ZM77.1 15.6L77.9629 15.0946L77.6732 14.6H77.1V15.6ZM80.748 21.828L79.8851 22.3334L80.7523 23.8139L81.613 22.3297L80.748 21.828ZM84.36 15.6V14.6H83.784L83.495 15.0983L84.36 15.6ZM84.092 15.6V24H86.092V15.6H84.092ZM85.092 23H84.24V25H85.092V23ZM85.24 24V17.28H83.24V24H85.24ZM83.3764 16.7758L80.0764 22.4278L81.8036 23.4362L85.1036 17.7842L83.3764 16.7758ZM80.94 21.932H80.52V23.932H80.94V21.932ZM81.3822 22.4254L78.0822 16.8094L76.3578 17.8226L79.6578 23.4386L81.3822 22.4254ZM76.22 17.316V24H78.22V17.316H76.22ZM77.22 23H76.368V25H77.22V23ZM77.368 24V15.6H75.368V24H77.368ZM76.368 16.6H77.1V14.6H76.368V16.6ZM76.2371 16.1054L79.8851 22.3334L81.6109 21.3226L77.9629 15.0946L76.2371 16.1054ZM81.613 22.3297L85.225 16.1017L83.495 15.0983L79.883 21.3263L81.613 22.3297ZM84.36 16.6H85.092V14.6H84.36V16.6ZM93.3369 17.688H94.3369V16.688H93.3369V17.688ZM93.3369 24V25H94.3369V24H93.3369ZM92.5209 24H91.5209V25H92.5209V24ZM92.5209 22.848H93.5209V19.1491L91.6572 22.3441L92.5209 22.848ZM91.5969 23.748L92.0657 24.6313L92.0726 24.6276L92.0795 24.6238L91.5969 23.748ZM88.2969 23.376L87.5959 24.0891L87.602 24.0951L87.6082 24.101L88.2969 23.376ZM87.5889 17.688V16.688H86.5889V17.688H87.5889ZM88.4409 17.688H89.4409V16.688H88.4409V17.688ZM88.9329 22.776L89.6567 22.0859L89.6567 22.0859L88.9329 22.776ZM91.9089 22.692L92.6304 23.3846L92.6371 23.3774L91.9089 22.692ZM92.4849 17.688V16.688H91.4849V17.688H92.4849ZM92.3369 17.688V24H94.3369V17.688H92.3369ZM93.3369 23H92.5209V25H93.3369V23ZM93.5209 24V22.848H91.5209V24H93.5209ZM91.6572 22.3441C91.5249 22.5708 91.3491 22.7428 91.1143 22.8722L92.0795 24.6238C92.6288 24.3212 93.069 23.8932 93.3847 23.3519L91.6572 22.3441ZM91.1282 22.8647C90.8992 22.9862 90.6159 23.06 90.2529 23.06V25.06C90.8979 25.06 91.5107 24.9258 92.0657 24.6313L91.1282 22.8647ZM90.2529 23.06C89.6195 23.06 89.2371 22.8898 88.9857 22.651L87.6082 24.101C88.3168 24.7742 89.2384 25.06 90.2529 25.06V23.06ZM88.998 22.6629C88.7756 22.4442 88.5889 22.0625 88.5889 21.348H86.5889C86.5889 22.4095 86.8743 23.3798 87.5959 24.0891L88.998 22.6629ZM88.5889 21.348V17.688H86.5889V21.348H88.5889ZM87.5889 18.688H88.4409V16.688H87.5889V18.688ZM87.4409 17.688V21.264H89.4409V17.688H87.4409ZM87.4409 21.264C87.4409 22.0821 87.6437 22.873 88.2092 23.4661L89.6567 22.0859C89.5662 21.991 89.4409 21.7739 89.4409 21.264H87.4409ZM88.2092 23.4661C88.7751 24.0596 89.5361 24.292 90.3369 24.292V22.292C89.9218 22.292 89.7467 22.1804 89.6567 22.0859L88.2092 23.4661ZM90.3369 24.292C91.2153 24.292 92.0211 24.0192 92.6303 23.3845L91.1876 21.9995C91.0288 22.1648 90.7866 22.292 90.3369 22.292V24.292ZM92.6371 23.3774C93.2413 22.7355 93.4849 21.8994 93.4849 21H91.4849C91.4849 21.5406 91.3446 21.8325 91.1807 22.0066L92.6371 23.3774ZM93.4849 21V17.688H91.4849V21H93.4849ZM92.4849 18.688H93.3369V16.688H92.4849V18.688ZM96.5392 18.924H95.5392L97.4436 19.3506L96.5392 18.924ZM97.4272 17.964L96.952 17.0841L96.9446 17.0882L97.4272 17.964ZM98.9032 17.64H99.9032V16.64H98.9032V17.64ZM98.9032 18.468L98.8444 19.4663L99.9032 19.5286V18.468H98.9032ZM98.6992 18.456L98.7579 17.4577L98.7285 17.456H98.6992V18.456ZM97.1392 19.068L97.8745 19.7457L97.8745 19.7457L97.1392 19.068ZM96.5752 24V25H97.5752V24H96.5752ZM95.7232 24H94.7232V25H95.7232V24ZM95.7232 17.688V16.688H94.7232V17.688H95.7232ZM96.5392 17.688H97.5392V16.688H96.5392V17.688ZM97.4436 19.3506C97.5583 19.1074 97.7113 18.9492 97.9098 18.8398L96.9446 17.0882C96.3591 17.4108 95.92 17.8926 95.6347 18.4974L97.4436 19.3506ZM97.9023 18.8439C98.1206 18.726 98.4391 18.64 98.9032 18.64V16.64C98.1992 16.64 97.5337 16.77 96.952 17.0841L97.9023 18.8439ZM97.9032 17.64V18.468H99.9032V17.64H97.9032ZM98.9619 17.4697L98.7579 17.4577L98.6404 19.4543L98.8444 19.4663L98.9619 17.4697ZM98.6992 17.456C97.8154 17.456 97.0061 17.7368 96.4038 18.3903L97.8745 19.7457C98.0242 19.5832 98.2549 19.456 98.6992 19.456V17.456ZM96.4038 18.3903C95.8083 19.0365 95.5752 19.8807 95.5752 20.784H97.5752C97.5752 20.2153 97.718 19.9155 97.8745 19.7457L96.4038 18.3903ZM95.5752 20.784V24H97.5752V20.784H95.5752ZM96.5752 23H95.7232V25H96.5752V23ZM96.7232 24V17.688H94.7232V24H96.7232ZM95.7232 18.688H96.5392V16.688H95.7232V18.688ZM95.5392 17.688V18.924H97.5392V17.688H95.5392ZM100.446 17.688V16.688H99.4458V17.688H100.446ZM101.298 17.688H102.298V16.688H101.298V17.688ZM101.298 24V25H102.298V24H101.298ZM100.446 24H99.4458V25H100.446V24ZM100.434 15.276L99.7267 14.5689L99.7267 14.5689L100.434 15.276ZM101.322 15.276L100.615 15.9831L100.627 15.9953L100.639 16.0071L101.322 15.276ZM100.446 18.688H101.298V16.688H100.446V18.688ZM100.298 17.688V24H102.298V17.688H100.298ZM101.298 23H100.446V25H101.298V23ZM101.446 24V17.688H99.4458V24H101.446ZM100.878 15.308C100.905 15.308 100.954 15.3132 101.011 15.3363C101.068 15.3597 101.112 15.3923 101.141 15.4209L99.7267 16.8351C100.042 17.1503 100.448 17.308 100.878 17.308V15.308ZM101.141 15.4209C101.165 15.4451 101.197 15.4866 101.222 15.5454C101.246 15.6044 101.254 15.6582 101.254 15.696H99.2538C99.2538 16.1322 99.4213 16.5297 99.7267 16.8351L101.141 15.4209ZM101.254 15.696C101.254 15.7445 101.244 15.8042 101.218 15.8649C101.192 15.9245 101.161 15.9634 101.141 15.9831L99.7267 14.5689C99.4318 14.8638 99.2538 15.2534 99.2538 15.696H101.254ZM101.141 15.9831C101.112 16.0117 101.068 16.0443 101.011 16.0677C100.954 16.0908 100.905 16.096 100.878 16.096V14.096C100.448 14.096 100.042 14.2537 99.7267 14.5689L101.141 15.9831ZM100.878 16.096C100.85 16.096 100.802 16.0908 100.745 16.0677C100.687 16.0443 100.643 16.0117 100.615 15.9831L102.029 14.5689C101.714 14.2537 101.308 14.096 100.878 14.096V16.096ZM100.639 16.0071C100.611 15.9804 100.572 15.9337 100.542 15.8656C100.512 15.797 100.502 15.7322 100.502 15.684H102.502C102.502 15.2388 102.321 14.8405 102.004 14.5449L100.639 16.0071ZM100.502 15.684C100.502 15.6564 100.507 15.6083 100.53 15.5513C100.553 15.4936 100.586 15.4495 100.615 15.4209L102.029 16.8351C102.344 16.5199 102.502 16.1142 102.502 15.684H100.502ZM100.615 15.4209C100.643 15.3923 100.687 15.3597 100.745 15.3363C100.802 15.3132 100.85 15.308 100.878 15.308V17.308C101.308 17.308 101.714 17.1503 102.029 16.8351L100.615 15.4209ZM103.668 15.096V14.096H102.668V15.096H103.668ZM104.52 15.096H105.52V14.096H104.52V15.096ZM104.52 24V25H105.52V24H104.52ZM103.668 24H102.668V25H103.668V24ZM103.668 16.096H104.52V14.096H103.668V16.096ZM103.52 15.096V24H105.52V15.096H103.52ZM104.52 23H103.668V25H104.52V23ZM104.668 24V15.096H102.668V24H104.668ZM106.891 15.096V14.096H105.891V15.096H106.891ZM107.743 15.096H108.743V14.096H107.743V15.096ZM107.743 24V25H108.743V24H107.743ZM106.891 24H105.891V25H106.891V24ZM106.891 16.096H107.743V14.096H106.891V16.096ZM106.743 15.096V24H108.743V15.096H106.743ZM107.743 23H106.891V25H107.743V23ZM107.891 24V15.096H105.891V24H107.891ZM111.05 23.652L110.552 24.5194L110.563 24.5255L111.05 23.652ZM109.898 22.5L109.03 22.9977L109.03 22.9977L109.898 22.5ZM109.898 19.188L109.03 18.6903L109.03 18.6903L109.898 19.188ZM111.05 18.048L110.563 17.1745L110.563 17.1745L111.05 18.048ZM114.338 18.048L114.825 17.1745L114.825 17.1745L114.338 18.048ZM115.478 19.188L114.604 19.6749L114.61 19.6857L115.478 19.188ZM115.478 22.5L114.61 22.0023L114.604 22.0131L115.478 22.5ZM114.338 23.652L114.825 24.5255L114.835 24.5194L114.338 23.652ZM113.894 23.004L114.388 23.8735L114.394 23.8699L113.894 23.004ZM114.734 22.128L115.617 22.5976L115.617 22.5976L114.734 22.128ZM114.734 19.56L115.617 19.0904L115.617 19.0904L114.734 19.56ZM113.894 18.696L113.385 19.5569L113.397 19.5637L113.408 19.5702L113.894 18.696ZM111.482 18.696L111.976 19.5655L111.982 19.5619L111.482 18.696ZM110.642 19.56L109.767 19.0759L109.763 19.0831L109.759 19.0904L110.642 19.56ZM110.642 22.128L109.759 22.5976L109.763 22.6049L109.767 22.6121L110.642 22.128ZM111.482 23.004L110.973 23.8649L110.985 23.8717L110.996 23.8782L111.482 23.004ZM112.694 23.06C112.241 23.06 111.863 22.9603 111.537 22.7785L110.563 24.5255C111.213 24.8877 111.931 25.06 112.694 25.06V23.06ZM111.547 22.7846C111.213 22.5929 110.957 22.3365 110.765 22.0023L109.03 22.9977C109.399 23.6395 109.91 24.1511 110.552 24.5194L111.547 22.7846ZM110.765 22.0023C110.58 21.6799 110.478 21.3024 110.478 20.844H108.478C108.478 21.6176 108.655 22.3441 109.03 22.9977L110.765 22.0023ZM110.478 20.844C110.478 20.3856 110.58 20.0081 110.765 19.6857L109.03 18.6903C108.655 19.3439 108.478 20.0704 108.478 20.844H110.478ZM110.765 19.6857C110.955 19.354 111.208 19.1044 111.537 18.9215L110.563 17.1745C109.915 17.5356 109.4 18.046 109.03 18.6903L110.765 19.6857ZM111.537 18.9215C111.863 18.7397 112.241 18.64 112.694 18.64V16.64C111.931 16.64 111.213 16.8123 110.563 17.1745L111.537 18.9215ZM112.694 18.64C113.147 18.64 113.525 18.7397 113.851 18.9215L114.825 17.1745C114.175 16.8123 113.457 16.64 112.694 16.64V18.64ZM113.851 18.9215C114.177 19.103 114.423 19.3491 114.604 19.6749L116.351 18.7011C115.989 18.0509 115.475 17.537 114.825 17.1745L113.851 18.9215ZM114.61 19.6857C114.795 20.0081 114.898 20.3856 114.898 20.844H116.898C116.898 20.0704 116.72 19.3439 116.345 18.6903L114.61 19.6857ZM114.898 20.844C114.898 21.3024 114.795 21.6799 114.61 22.0023L116.345 22.9977C116.72 22.3441 116.898 21.6176 116.898 20.844H114.898ZM114.604 22.0131C114.421 22.3414 114.172 22.5943 113.84 22.7846L114.835 24.5194C115.48 24.1497 115.99 23.6346 116.351 22.9869L114.604 22.0131ZM113.851 22.7785C113.525 22.9603 113.147 23.06 112.694 23.06V25.06C113.457 25.06 114.175 24.8877 114.825 24.5255L113.851 22.7785ZM112.694 24.304C113.296 24.304 113.87 24.1679 114.388 23.8735L113.4 22.1345C113.214 22.2401 112.987 22.304 112.694 22.304V24.304ZM114.394 23.8699C114.92 23.5658 115.331 23.1347 115.617 22.5976L113.851 21.6584C113.737 21.8733 113.587 22.0262 113.394 22.1381L114.394 23.8699ZM115.617 22.5976C115.903 22.0595 116.034 21.4667 116.034 20.844H114.034C114.034 21.1813 113.965 21.4445 113.851 21.6584L115.617 22.5976ZM116.034 20.844C116.034 20.2213 115.903 19.6285 115.617 19.0904L113.851 20.0296C113.965 20.2435 114.034 20.5067 114.034 20.844H116.034ZM115.617 19.0904C115.329 18.5502 114.914 18.1189 114.379 17.8218L113.408 19.5702C113.593 19.6731 113.738 19.8178 113.851 20.0296L115.617 19.0904ZM114.403 17.8351C113.882 17.5274 113.303 17.384 112.694 17.384V19.384C112.98 19.384 113.202 19.4486 113.385 19.5569L114.403 17.8351ZM112.694 17.384C112.084 17.384 111.505 17.5275 110.982 17.8301L111.982 19.5619C112.178 19.4485 112.407 19.384 112.694 19.384V17.384ZM110.988 17.8265C110.466 18.1231 110.058 18.5492 109.767 19.0759L111.517 20.0441C111.641 19.8188 111.794 19.6689 111.976 19.5655L110.988 17.8265ZM109.759 19.0904C109.473 19.6285 109.342 20.2213 109.342 20.844H111.342C111.342 20.5067 111.411 20.2435 111.525 20.0296L109.759 19.0904ZM109.342 20.844C109.342 21.4667 109.473 22.0595 109.759 22.5976L111.525 21.6584C111.411 21.4445 111.342 21.1813 111.342 20.844H109.342ZM109.767 22.6121C110.056 23.1358 110.46 23.5615 110.973 23.8649L111.991 22.1431C111.8 22.0305 111.643 21.8722 111.517 21.6439L109.767 22.6121ZM110.996 23.8782C111.518 24.1678 112.091 24.304 112.694 24.304V22.304C112.4 22.304 112.166 22.2402 111.967 22.1298L110.996 23.8782ZM122.35 23.52L121.865 24.3947L121.87 24.3971L122.35 23.52ZM120.778 21.996L119.91 22.4933L119.914 22.4996L119.918 22.5058L120.778 21.996ZM120.778 17.616L119.915 17.1108L119.913 17.1141L120.778 17.616ZM122.362 16.08L121.882 15.2029L121.882 15.2029L122.362 16.08ZM126.346 15.84L125.979 16.7704L125.979 16.7704L126.346 15.84ZM127.69 16.752L128.397 17.4591L129.075 16.7808L128.426 16.0749L127.69 16.752ZM127.126 17.316L126.414 18.0188L127.122 18.7345L127.833 18.0231L127.126 17.316ZM122.83 16.776L122.342 15.9031L122.342 15.9031L122.83 16.776ZM121.546 18.024L120.685 17.5152L120.679 17.525L121.546 18.024ZM121.546 21.576L120.679 22.075L120.685 22.0847L121.546 21.576ZM122.83 22.824L122.342 23.6969L122.342 23.6969L122.83 22.824ZM127.126 22.272L127.833 21.5649L127.113 20.8448L126.406 21.5779L127.126 22.272ZM127.69 22.836L128.426 23.5131L129.075 22.8072L128.397 22.1289L127.69 22.836ZM126.334 23.76L126.7 24.6904L126.708 24.6875L126.334 23.76ZM124.606 23.072C123.927 23.072 123.342 22.9234 122.83 22.6429L121.87 24.3971C122.701 24.8526 123.621 25.072 124.606 25.072V23.072ZM122.835 22.6453C122.325 22.3627 121.931 21.9801 121.638 21.4862L119.918 22.5058C120.393 23.3079 121.047 23.9413 121.865 24.3947L122.835 22.6453ZM121.645 21.4987C121.362 21.0045 121.214 20.4459 121.214 19.8H119.214C119.214 20.7701 119.442 21.6755 119.91 22.4933L121.645 21.4987ZM121.214 19.8C121.214 19.154 121.362 18.6015 121.643 18.1179L119.913 17.1141C119.442 17.9265 119.214 18.83 119.214 19.8H121.214ZM121.641 18.1212C121.933 17.6228 122.328 17.2388 122.842 16.9571L121.882 15.2029C121.052 15.6572 120.391 16.2972 119.915 17.1108L121.641 18.1212ZM122.842 16.9571C123.354 16.6766 123.939 16.528 124.618 16.528V14.528C123.633 14.528 122.713 14.7474 121.882 15.2029L122.842 16.9571ZM124.618 16.528C125.129 16.528 125.579 16.6128 125.979 16.7704L126.712 14.9096C126.057 14.6512 125.355 14.528 124.618 14.528V16.528ZM125.979 16.7704C126.373 16.9255 126.693 17.1453 126.954 17.4291L128.426 16.0749C127.951 15.5587 127.375 15.1705 126.712 14.9096L125.979 16.7704ZM126.983 16.0449L126.419 16.6089L127.833 18.0231L128.397 17.4591L126.983 16.0449ZM127.837 16.6132C126.979 15.7445 125.888 15.32 124.642 15.32V17.32C125.396 17.32 125.961 17.5595 126.414 18.0188L127.837 16.6132ZM124.642 15.32C123.819 15.32 123.045 15.5103 122.342 15.9031L123.318 17.6489C123.703 17.4337 124.137 17.32 124.642 17.32V15.32ZM122.342 15.9031C121.646 16.2919 121.088 16.8325 120.685 17.5153L122.407 18.5327C122.627 18.1595 122.925 17.8681 123.318 17.6489L122.342 15.9031ZM120.679 17.525C120.281 18.2164 120.09 18.9827 120.09 19.8H122.09C122.09 19.3053 122.203 18.8876 122.412 18.523L120.679 17.525ZM120.09 19.8C120.09 20.6173 120.281 21.3836 120.679 22.075L122.412 21.077C122.203 20.7124 122.09 20.2947 122.09 19.8H120.09ZM120.685 22.0847C121.088 22.7675 121.646 23.3081 122.342 23.6969L123.318 21.9511C122.925 21.7319 122.627 21.4405 122.407 21.0673L120.685 22.0847ZM122.342 23.6969C123.045 24.0897 123.819 24.28 124.642 24.28V22.28C124.137 22.28 123.703 22.1663 123.318 21.9511L122.342 23.6969ZM124.642 24.28C125.897 24.28 126.993 23.8503 127.846 22.9661L126.406 21.5779C125.963 22.0377 125.402 22.28 124.642 22.28V24.28ZM126.419 22.9791L126.983 23.5431L128.397 22.1289L127.833 21.5649L126.419 22.9791ZM126.954 22.1589C126.693 22.4427 126.367 22.6684 125.96 22.8325L126.708 24.6875C127.373 24.4196 127.951 24.0293 128.426 23.5131L126.954 22.1589ZM125.967 22.8296C125.567 22.9872 125.117 23.072 124.606 23.072V25.072C125.343 25.072 126.045 24.9488 126.7 24.6904L125.967 22.8296ZM130.058 23.652L129.56 24.5194L129.571 24.5255L130.058 23.652ZM128.906 22.5L128.038 22.9977L128.038 22.9977L128.906 22.5ZM128.906 19.188L128.038 18.6903L128.038 18.6903L128.906 19.188ZM130.058 18.048L129.571 17.1745L129.571 17.1745L130.058 18.048ZM133.346 18.048L133.832 17.1745L133.832 17.1745L133.346 18.048ZM134.486 19.188L133.612 19.6749L133.618 19.6857L134.486 19.188ZM134.486 22.5L133.618 22.0023L133.612 22.0131L134.486 22.5ZM133.346 23.652L133.832 24.5255L133.843 24.5194L133.346 23.652ZM132.902 23.004L133.396 23.8735L133.402 23.8699L132.902 23.004ZM133.742 22.128L134.624 22.5976L134.624 22.5976L133.742 22.128ZM133.742 19.56L134.624 19.0904L134.624 19.0904L133.742 19.56ZM132.902 18.696L132.393 19.5569L132.404 19.5637L132.416 19.5702L132.902 18.696ZM130.49 18.696L130.984 19.5655L130.99 19.5619L130.49 18.696ZM129.65 19.56L128.775 19.0759L128.771 19.0831L128.767 19.0904L129.65 19.56ZM129.65 22.128L128.767 22.5976L128.771 22.6049L128.775 22.6121L129.65 22.128ZM130.49 23.004L129.981 23.8649L129.992 23.8717L130.004 23.8782L130.49 23.004ZM131.702 23.06C131.249 23.06 130.871 22.9603 130.544 22.7785L129.571 24.5255C130.221 24.8877 130.939 25.06 131.702 25.06V23.06ZM130.555 22.7846C130.221 22.5929 129.965 22.3365 129.773 22.0023L128.038 22.9977C128.406 23.6395 128.918 24.1511 129.56 24.5194L130.555 22.7846ZM129.773 22.0023C129.588 21.6799 129.486 21.3024 129.486 20.844H127.486C127.486 21.6176 127.663 22.3441 128.038 22.9977L129.773 22.0023ZM129.486 20.844C129.486 20.3856 129.588 20.0081 129.773 19.6857L128.038 18.6903C127.663 19.3439 127.486 20.0704 127.486 20.844H129.486ZM129.773 19.6857C129.963 19.354 130.216 19.1044 130.544 18.9215L129.571 17.1745C128.923 17.5356 128.408 18.046 128.038 18.6903L129.773 19.6857ZM130.544 18.9215C130.871 18.7397 131.249 18.64 131.702 18.64V16.64C130.939 16.64 130.221 16.8123 129.571 17.1745L130.544 18.9215ZM131.702 18.64C132.155 18.64 132.533 18.7397 132.859 18.9215L133.832 17.1745C133.183 16.8123 132.465 16.64 131.702 16.64V18.64ZM132.859 18.9215C133.184 19.103 133.431 19.3491 133.612 19.6749L135.359 18.7011C134.997 18.0509 134.483 17.537 133.832 17.1745L132.859 18.9215ZM133.618 19.6857C133.803 20.0081 133.906 20.3856 133.906 20.844H135.906C135.906 20.0704 135.728 19.3439 135.353 18.6903L133.618 19.6857ZM133.906 20.844C133.906 21.3024 133.803 21.6799 133.618 22.0023L135.353 22.9977C135.728 22.3441 135.906 21.6176 135.906 20.844H133.906ZM133.612 22.0131C133.429 22.3414 133.18 22.5943 132.848 22.7846L133.843 24.5194C134.488 24.1497 134.998 23.6346 135.359 22.9869L133.612 22.0131ZM132.859 22.7785C132.533 22.9603 132.155 23.06 131.702 23.06V25.06C132.465 25.06 133.183 24.8877 133.832 24.5255L132.859 22.7785ZM131.702 24.304C132.304 24.304 132.877 24.1679 133.396 23.8735L132.408 22.1345C132.222 22.2401 131.995 22.304 131.702 22.304V24.304ZM133.402 23.8699C133.928 23.5658 134.339 23.1347 134.624 22.5976L132.859 21.6584C132.744 21.8733 132.595 22.0262 132.401 22.1381L133.402 23.8699ZM134.624 22.5976C134.911 22.0595 135.042 21.4667 135.042 20.844H133.042C133.042 21.1813 132.972 21.4445 132.859 21.6584L134.624 22.5976ZM135.042 20.844C135.042 20.2213 134.911 19.6285 134.624 19.0904L132.859 20.0296C132.972 20.2435 133.042 20.5067 133.042 20.844H135.042ZM134.624 19.0904C134.337 18.5502 133.922 18.1189 133.387 17.8218L132.416 19.5702C132.601 19.6731 132.746 19.8178 132.859 20.0296L134.624 19.0904ZM133.41 17.8351C132.89 17.5274 132.311 17.384 131.702 17.384V19.384C131.988 19.384 132.209 19.4486 132.393 19.5569L133.41 17.8351ZM131.702 17.384C131.092 17.384 130.513 17.5275 129.989 17.8301L130.99 19.5619C131.186 19.4485 131.415 19.384 131.702 19.384V17.384ZM129.996 17.8265C129.474 18.1231 129.066 18.5492 128.775 19.0759L130.525 20.0441C130.649 19.8188 130.802 19.6689 130.984 19.5655L129.996 17.8265ZM128.767 19.0904C128.48 19.6285 128.35 20.2213 128.35 20.844H130.35C130.35 20.5067 130.419 20.2435 130.532 20.0296L128.767 19.0904ZM128.35 20.844C128.35 21.4667 128.48 22.0595 128.767 22.5976L130.532 21.6584C130.419 21.4445 130.35 21.1813 130.35 20.844H128.35ZM128.775 22.6121C129.064 23.1358 129.467 23.5615 129.981 23.8649L130.998 22.1431C130.808 22.0305 130.651 21.8722 130.525 21.6439L128.775 22.6121ZM130.004 23.8782C130.525 24.1678 131.099 24.304 131.702 24.304V22.304C131.408 22.304 131.174 22.2402 130.975 22.1298L130.004 23.8782ZM141.745 18.336L141.038 19.0431L141.044 19.0492L141.05 19.0552L141.745 18.336ZM142.453 24V25H143.453V24H142.453ZM141.601 24H140.601V25H141.601V24ZM141.109 18.924L140.385 19.6141L140.385 19.6141L141.109 18.924ZM138.085 19.02L137.371 18.3199L137.371 18.3201L138.085 19.02ZM137.497 24V25H138.497V24H137.497ZM136.645 24H135.645V25H136.645V24ZM136.645 17.688V16.688H135.645V17.688H136.645ZM137.461 17.688H138.461V16.688H137.461V17.688ZM137.461 18.852H136.461V22.441L138.317 19.3691L137.461 18.852ZM138.421 17.964L138.875 18.8549L138.882 18.8515L138.421 17.964ZM139.861 18.64C140.446 18.64 140.799 18.8044 141.038 19.0431L142.452 17.6289C141.763 16.9396 140.86 16.64 139.861 16.64V18.64ZM141.05 19.0552C141.268 19.2652 141.453 19.6354 141.453 20.34H143.453C143.453 19.2846 143.166 18.3188 142.44 17.6168L141.05 19.0552ZM141.453 20.34V24H143.453V20.34H141.453ZM142.453 23H141.601V25H142.453V23ZM142.601 24V20.424H140.601V24H142.601ZM142.601 20.424C142.601 19.61 142.396 18.8249 141.833 18.2339L140.385 19.6141C140.478 19.7111 140.601 19.926 140.601 20.424H142.601ZM141.833 18.2339C141.267 17.6404 140.506 17.408 139.705 17.408V19.408C140.12 19.408 140.295 19.5196 140.385 19.6141L141.833 18.2339ZM139.705 17.408C138.811 17.408 137.994 17.6841 137.371 18.3199L138.799 19.7201C138.976 19.5399 139.239 19.408 139.705 19.408V17.408ZM137.371 18.3201C136.749 18.9541 136.497 19.7886 136.497 20.688H138.497C138.497 20.1634 138.637 19.8859 138.799 19.7199L137.371 18.3201ZM136.497 20.688V24H138.497V20.688H136.497ZM137.497 23H136.645V25H137.497V23ZM137.645 24V17.688H135.645V24H137.645ZM136.645 18.688H137.461V16.688H136.645V18.688ZM136.461 17.688V18.852H138.461V17.688H136.461ZM138.317 19.3691C138.45 19.1482 138.63 18.9801 138.875 18.8549L137.967 17.0731C137.396 17.3639 136.936 17.7878 136.605 18.3349L138.317 19.3691ZM138.882 18.8515C139.134 18.7205 139.452 18.64 139.861 18.64V16.64C139.182 16.64 138.54 16.7755 137.96 17.0765L138.882 18.8515ZM144.982 23.844L144.671 24.7943L144.681 24.7975L144.69 24.8005L144.982 23.844ZM143.89 23.28L143.022 22.7839L142.61 23.5051L143.243 24.0425L143.89 23.28ZM144.274 22.608L144.893 21.8225L143.982 21.1044L143.406 22.1119L144.274 22.608ZM145.27 23.124L144.948 24.0708L144.957 24.0737L144.965 24.0764L145.27 23.124ZM147.79 23.052L148.333 23.8916L148.339 23.8877L147.79 23.052ZM147.982 21.744L147.315 22.4892L147.327 22.4992L147.338 22.5089L147.982 21.744ZM147.406 21.444L147.11 22.3991L147.125 22.4038L147.14 22.408L147.406 21.444ZM146.482 21.24L146.298 22.2229L146.308 22.2247L146.318 22.2264L146.482 21.24ZM145.246 20.952L144.93 21.9007L144.941 21.9044L144.952 21.9078L145.246 20.952ZM144.442 20.436L143.699 21.105L143.705 21.1117L143.711 21.1183L144.442 20.436ZM144.778 18.144L144.171 17.3492L144.171 17.3492L144.778 18.144ZM147.838 17.808L147.573 18.7723L147.582 18.7748L147.591 18.777L147.838 17.808ZM148.846 18.228L149.725 18.7058L150.161 17.9029L149.401 17.3959L148.846 18.228ZM148.474 18.912L147.905 19.7342L148.821 20.3681L149.353 19.3898L148.474 18.912ZM145.378 18.66L144.813 17.8352L144.801 17.843L145.378 18.66ZM145.198 19.992L144.51 20.718L144.52 20.7267L144.529 20.7353L145.198 19.992ZM145.786 20.316L145.49 21.2711L145.505 21.2758L145.52 21.28L145.786 20.316ZM146.746 20.52L146.933 19.5376L146.92 19.5352L146.746 20.52ZM147.958 20.808L147.657 21.7616L147.657 21.7616L147.958 20.808ZM148.738 21.3L148.006 21.9814L148.006 21.9814L148.738 21.3ZM148.366 23.58L148.941 24.3986L148.943 24.3966L148.366 23.58ZM146.458 23.06C146.041 23.06 145.648 23.0016 145.274 22.8875L144.69 24.8005C145.26 24.9744 145.851 25.06 146.458 25.06V23.06ZM145.293 22.8937C144.906 22.7667 144.671 22.6309 144.537 22.5175L143.243 24.0425C143.637 24.3771 144.131 24.6173 144.671 24.7943L145.293 22.8937ZM144.758 23.7761L145.142 23.1041L143.406 22.1119L143.022 22.7839L144.758 23.7761ZM143.655 23.3935C144.028 23.6871 144.467 23.9072 144.948 24.0708L145.592 22.1772C145.273 22.0688 145.048 21.9449 144.893 21.8225L143.655 23.3935ZM144.965 24.0764C145.467 24.2368 145.986 24.316 146.518 24.316V22.316C146.187 22.316 145.874 22.2672 145.575 22.1716L144.965 24.0764ZM146.518 24.316C147.156 24.316 147.817 24.2258 148.333 23.8916L147.247 22.2124C147.219 22.2302 147.032 22.316 146.518 22.316V24.316ZM148.339 23.8877C148.893 23.5236 149.21 22.9573 149.21 22.284H147.21C147.21 22.2946 147.209 22.2934 147.211 22.2834C147.214 22.2728 147.219 22.2581 147.228 22.2422C147.236 22.2264 147.245 22.2155 147.251 22.21C147.255 22.2049 147.254 22.2078 147.241 22.2163L148.339 23.8877ZM149.21 22.284C149.21 21.8119 149.043 21.3298 148.626 20.9791L147.338 22.5089C147.295 22.473 147.256 22.422 147.232 22.364C147.209 22.3101 147.21 22.277 147.21 22.284H149.21ZM148.649 20.9988C148.363 20.743 148.026 20.5777 147.672 20.48L147.14 22.408C147.25 22.4383 147.297 22.473 147.315 22.4892L148.649 20.9988ZM147.703 20.4889C147.41 20.398 147.052 20.3212 146.647 20.2536L146.318 22.2264C146.68 22.2868 146.939 22.346 147.11 22.3991L147.703 20.4889ZM146.666 20.2571C146.172 20.1645 145.801 20.0766 145.54 19.9962L144.952 21.9078C145.315 22.0194 145.768 22.1235 146.298 22.2229L146.666 20.2571ZM145.562 20.0033C145.408 19.952 145.283 19.8714 145.173 19.7537L143.711 21.1183C144.049 21.4806 144.46 21.744 144.93 21.9007L145.562 20.0033ZM145.185 19.767C145.181 19.762 145.118 19.6961 145.118 19.44H143.118C143.118 20.0319 143.271 20.63 143.699 21.105L145.185 19.767ZM145.118 19.44C145.118 19.2409 145.179 19.0963 145.385 18.9388L144.171 17.3492C143.497 17.8637 143.118 18.5831 143.118 19.44H145.118ZM145.385 18.9388C145.591 18.7813 145.961 18.64 146.614 18.64V16.64C145.7 16.64 144.845 16.8347 144.171 17.3492L145.385 18.9388ZM146.614 18.64C146.929 18.64 147.248 18.6831 147.573 18.7723L148.103 16.8437C147.612 16.7089 147.115 16.64 146.614 16.64V18.64ZM147.591 18.777C147.923 18.8617 148.147 18.9635 148.291 19.06L149.401 17.3959C149.018 17.1405 148.569 16.9623 148.085 16.839L147.591 18.777ZM147.968 17.7502L147.596 18.4342L149.353 19.3898L149.725 18.7058L147.968 17.7502ZM149.043 18.0898C148.334 17.5985 147.508 17.372 146.614 17.372V19.372C147.16 19.372 147.575 19.5055 147.905 19.7342L149.043 18.0898ZM146.614 17.372C145.98 17.372 145.332 17.4791 144.813 17.8353L145.944 19.4847C145.984 19.4569 146.161 19.372 146.614 19.372V17.372ZM144.801 17.843C144.285 18.2076 143.97 18.7542 143.97 19.416H145.97C145.97 19.411 145.971 19.4159 145.968 19.4277C145.965 19.4399 145.96 19.4541 145.952 19.4679C145.945 19.4816 145.938 19.4896 145.936 19.4919C145.934 19.4938 145.939 19.4882 145.955 19.477L144.801 17.843ZM143.97 19.416C143.97 19.8866 144.129 20.3569 144.51 20.718L145.886 19.266C145.914 19.2928 145.941 19.3305 145.957 19.372C145.972 19.4105 145.97 19.4301 145.97 19.416H143.97ZM144.529 20.7353C144.81 20.9877 145.137 21.1617 145.49 21.2711L146.083 19.3609C145.971 19.3263 145.907 19.2843 145.867 19.2487L144.529 20.7353ZM145.52 21.28C145.797 21.3562 146.152 21.4306 146.572 21.5048L146.92 19.5352C146.524 19.4654 146.24 19.4038 146.052 19.352L145.52 21.28ZM146.559 21.5023C147.045 21.5948 147.406 21.6823 147.657 21.7616L148.259 19.8544C147.902 19.7417 147.456 19.6372 146.933 19.5377L146.559 21.5023ZM147.657 21.7616C147.797 21.8059 147.909 21.8766 148.006 21.9814L149.47 20.6186C149.136 20.2594 148.727 20.0021 148.259 19.8544L147.657 21.7616ZM148.006 21.9814C148.011 21.9868 148.022 21.9993 148.034 22.0338C148.046 22.0719 148.062 22.1429 148.062 22.26H150.062C150.062 21.6743 149.903 21.0841 149.47 20.6186L148.006 21.9814ZM148.062 22.26C148.062 22.4761 147.997 22.6163 147.789 22.7634L148.943 24.3966C149.663 23.8877 150.062 23.1479 150.062 22.26H148.062ZM147.792 22.7614C147.566 22.9201 147.16 23.06 146.458 23.06V25.06C147.389 25.06 148.255 24.8799 148.941 24.3986L147.792 22.7614ZM153.961 23.616L154.63 24.3593L155.192 23.854L154.859 23.1758L153.961 23.616ZM153.361 23.952L153.658 24.9071L153.668 24.904L153.677 24.9007L153.361 23.952ZM151.261 23.58L150.554 24.2871L150.554 24.2871L151.261 23.58ZM150.781 18.408H151.781V17.408H150.781V18.408ZM149.653 18.408H148.653V19.408H149.653V18.408ZM149.653 17.688V16.688H148.653V17.688H149.653ZM150.781 17.688V18.688H151.781V17.688H150.781ZM150.781 16.308V15.308H149.781V16.308H150.781ZM151.633 16.308H152.633V15.308H151.633V16.308ZM151.633 17.688H150.633V18.688H151.633V17.688ZM153.553 17.688H154.553V16.688H153.553V17.688ZM153.553 18.408V19.408H154.553V18.408H153.553ZM151.633 18.408V17.408H150.633V18.408H151.633ZM151.909 23.04L151.173 23.7171L151.187 23.7324L151.202 23.7471L151.909 23.04ZM153.229 23.244L152.913 22.2953L152.906 22.2977L152.899 22.3001L153.229 23.244ZM153.661 23.004L154.559 22.5638L153.988 21.3979L153.006 22.2483L153.661 23.004ZM153.292 22.8727C153.251 22.91 153.177 22.9593 153.045 23.0033L153.677 24.9007C154.025 24.7847 154.352 24.61 154.63 24.3593L153.292 22.8727ZM153.065 22.9969C152.934 23.0376 152.79 23.06 152.629 23.06V25.06C152.98 25.06 153.325 25.0104 153.658 24.9071L153.065 22.9969ZM152.629 23.06C152.217 23.06 152.048 22.9528 151.968 22.8729L150.554 24.2871C151.114 24.8472 151.857 25.06 152.629 25.06V23.06ZM151.968 22.8729C151.886 22.7906 151.781 22.6233 151.781 22.224H149.781C149.781 22.9927 149.996 23.7294 150.554 24.2871L151.968 22.8729ZM151.781 22.224V18.408H149.781V22.224H151.781ZM150.781 17.408H149.653V19.408H150.781V17.408ZM150.653 18.408V17.688H148.653V18.408H150.653ZM149.653 18.688H150.781V16.688H149.653V18.688ZM151.781 17.688V16.308H149.781V17.688H151.781ZM150.781 17.308H151.633V15.308H150.781V17.308ZM150.633 16.308V17.688H152.633V16.308H150.633ZM151.633 18.688H153.553V16.688H151.633V18.688ZM152.553 17.688V18.408H154.553V17.688H152.553ZM153.553 17.408H151.633V19.408H153.553V17.408ZM150.633 18.408V22.176H152.633V18.408H150.633ZM150.633 22.176C150.633 22.706 150.764 23.2718 151.173 23.7171L152.645 22.3629C152.662 22.3815 152.662 22.3909 152.655 22.3697C152.647 22.3446 152.633 22.2848 152.633 22.176H150.633ZM151.202 23.7471C151.633 24.1776 152.19 24.328 152.725 24.328V22.328C152.638 22.328 152.599 22.316 152.59 22.313C152.586 22.3117 152.589 22.3122 152.596 22.3164C152.602 22.3206 152.61 22.3263 152.616 22.3329L151.202 23.7471ZM152.725 24.328C153.009 24.328 153.289 24.2824 153.56 24.1879L152.899 22.3001C152.849 22.3176 152.793 22.328 152.725 22.328V24.328ZM153.545 24.1927C153.824 24.1 154.086 23.959 154.316 23.7597L153.006 22.2483C152.996 22.257 152.971 22.276 152.913 22.2953L153.545 24.1927ZM152.763 23.4442L153.063 24.0562L154.859 23.1758L154.559 22.5638L152.763 23.4442ZM156.328 18.924H155.328L157.233 19.3506L156.328 18.924ZM157.216 17.964L156.741 17.0841L156.734 17.0882L157.216 17.964ZM158.692 17.64H159.692V16.64H158.692V17.64ZM158.692 18.468L158.633 19.4663L159.692 19.5286V18.468H158.692ZM158.488 18.456L158.547 17.4577L158.518 17.456H158.488V18.456ZM156.928 19.068L157.664 19.7457L157.664 19.7457L156.928 19.068ZM156.364 24V25H157.364V24H156.364ZM155.512 24H154.512V25H155.512V24ZM155.512 17.688V16.688H154.512V17.688H155.512ZM156.328 17.688H157.328V16.688H156.328V17.688ZM157.233 19.3506C157.347 19.1074 157.5 18.9492 157.699 18.8398L156.734 17.0882C156.148 17.4108 155.709 17.8926 155.424 18.4974L157.233 19.3506ZM157.691 18.8439C157.91 18.726 158.228 18.64 158.692 18.64V16.64C157.988 16.64 157.323 16.77 156.741 17.0841L157.691 18.8439ZM157.692 17.64V18.468H159.692V17.64H157.692ZM158.751 17.4697L158.547 17.4577L158.429 19.4543L158.633 19.4663L158.751 17.4697ZM158.488 17.456C157.605 17.456 156.795 17.7368 156.193 18.3903L157.664 19.7457C157.813 19.5832 158.044 19.456 158.488 19.456V17.456ZM156.193 18.3903C155.597 19.0365 155.364 19.8807 155.364 20.784H157.364C157.364 20.2153 157.507 19.9155 157.664 19.7457L156.193 18.3903ZM155.364 20.784V24H157.364V20.784H155.364ZM156.364 23H155.512V25H156.364V23ZM156.512 24V17.688H154.512V24H156.512ZM155.512 18.688H156.328V16.688H155.512V18.688ZM155.328 17.688V18.924H157.328V17.688H155.328ZM166.017 17.688H167.017V16.688H166.017V17.688ZM166.017 24V25H167.017V24H166.017ZM165.201 24H164.201V25H165.201V24ZM165.201 22.848H166.201V19.1491L164.337 22.3441L165.201 22.848ZM164.277 23.748L164.745 24.6313L164.752 24.6276L164.759 24.6238L164.277 23.748ZM160.977 23.376L160.276 24.0891L160.282 24.0951L160.288 24.101L160.977 23.376ZM160.269 17.688V16.688H159.269V17.688H160.269ZM161.121 17.688H162.121V16.688H161.121V17.688ZM161.613 22.776L162.336 22.0859L162.336 22.0859L161.613 22.776ZM164.589 22.692L165.31 23.3846L165.317 23.3774L164.589 22.692ZM165.165 17.688V16.688H164.165V17.688H165.165ZM165.017 17.688V24H167.017V17.688H165.017ZM166.017 23H165.201V25H166.017V23ZM166.201 24V22.848H164.201V24H166.201ZM164.337 22.3441C164.205 22.5708 164.029 22.7428 163.794 22.8722L164.759 24.6238C165.308 24.3212 165.749 23.8932 166.064 23.3519L164.337 22.3441ZM163.808 22.8647C163.579 22.9862 163.296 23.06 162.933 23.06V25.06C163.578 25.06 164.19 24.9258 164.745 24.6313L163.808 22.8647ZM162.933 23.06C162.299 23.06 161.917 22.8898 161.665 22.651L160.288 24.101C160.997 24.7742 161.918 25.06 162.933 25.06V23.06ZM161.678 22.6629C161.455 22.4442 161.269 22.0625 161.269 21.348H159.269C159.269 22.4095 159.554 23.3798 160.276 24.0891L161.678 22.6629ZM161.269 21.348V17.688H159.269V21.348H161.269ZM160.269 18.688H161.121V16.688H160.269V18.688ZM160.121 17.688V21.264H162.121V17.688H160.121ZM160.121 21.264C160.121 22.0821 160.323 22.873 160.889 23.4661L162.336 22.0859C162.246 21.991 162.121 21.7739 162.121 21.264H160.121ZM160.889 23.4661C161.455 24.0596 162.216 24.292 163.017 24.292V22.292C162.601 22.292 162.426 22.1804 162.336 22.0859L160.889 23.4661ZM163.017 24.292C163.895 24.292 164.701 24.0192 165.31 23.3845L163.867 21.9995C163.709 22.1648 163.466 22.292 163.017 22.292V24.292ZM165.317 23.3774C165.921 22.7355 166.165 21.8994 166.165 21H164.165C164.165 21.5406 164.024 21.8325 163.86 22.0066L165.317 23.3774ZM166.165 21V17.688H164.165V21H166.165ZM165.165 18.688H166.017V16.688H165.165V18.688ZM169.339 23.652L168.852 24.5255L168.858 24.5288L169.339 23.652ZM168.187 22.512L167.316 23.0036L167.319 23.0097L168.187 22.512ZM168.187 19.188L167.319 18.6903L167.319 18.6903L168.187 19.188ZM169.339 18.048L168.858 17.1712L168.852 17.1745L169.339 18.048ZM172.471 17.964L172.017 18.855L172.027 18.8601L172.037 18.865L172.471 17.964ZM173.491 18.888L174.053 19.7152L174.839 19.181L174.345 18.3686L173.491 18.888ZM172.855 19.32L172.023 19.8747L172.582 20.714L173.417 20.1472L172.855 19.32ZM172.063 18.624L171.616 19.5184L171.625 19.5229L171.634 19.5273L172.063 18.624ZM169.783 18.696L170.269 19.5702L170.275 19.5666L169.783 18.696ZM168.931 19.56L168.056 19.0759L168.052 19.0831L168.048 19.0904L168.931 19.56ZM168.931 22.14L168.048 22.6096L168.054 22.6209L168.06 22.6321L168.931 22.14ZM169.783 23.004L169.283 23.8699L169.294 23.8764L169.305 23.8826L169.783 23.004ZM172.063 23.076L171.634 22.1727L171.634 22.1727L172.063 23.076ZM172.855 22.38L173.417 21.5528L172.582 20.986L172.023 21.8253L172.855 22.38ZM173.491 22.812L174.345 23.3314L174.839 22.519L174.053 21.9848L173.491 22.812ZM172.471 23.748L172.905 24.649L172.911 24.6458L172.918 24.6424L172.471 23.748ZM171.019 23.06C170.545 23.06 170.154 22.9583 169.82 22.7752L168.858 24.5288C169.516 24.8897 170.244 25.06 171.019 25.06V23.06ZM169.826 22.7785C169.497 22.5956 169.245 22.346 169.054 22.0143L167.319 23.0097C167.689 23.654 168.204 24.1644 168.852 24.5255L169.826 22.7785ZM169.058 22.0204C168.869 21.6865 168.767 21.3022 168.767 20.844H166.767C166.767 21.6178 166.945 22.3455 167.316 23.0036L169.058 22.0204ZM168.767 20.844C168.767 20.3856 168.869 20.0081 169.054 19.6857L167.319 18.6903C166.944 19.3439 166.767 20.0704 166.767 20.844H168.767ZM169.054 19.6857C169.245 19.354 169.497 19.1044 169.826 18.9215L168.852 17.1745C168.204 17.5356 167.689 18.046 167.319 18.6903L169.054 19.6857ZM169.82 18.9248C170.154 18.7417 170.545 18.64 171.019 18.64V16.64C170.244 16.64 169.516 16.8103 168.858 17.1712L169.82 18.9248ZM171.019 18.64C171.428 18.64 171.752 18.7203 172.017 18.855L172.925 17.073C172.341 16.7757 171.698 16.64 171.019 16.64V18.64ZM172.037 18.865C172.296 18.9895 172.489 19.1653 172.636 19.4074L174.345 18.3686C173.997 17.7947 173.51 17.3545 172.905 17.063L172.037 18.865ZM172.929 18.0608L172.293 18.4928L173.417 20.1472L174.053 19.7152L172.929 18.0608ZM173.687 18.7653C173.385 18.312 172.985 17.9549 172.492 17.7207L171.634 19.5273C171.781 19.5971 171.909 19.704 172.023 19.8747L173.687 18.7653ZM172.51 17.7296C172.044 17.4966 171.542 17.384 171.019 17.384V19.384C171.248 19.384 171.442 19.4314 171.616 19.5184L172.51 17.7296ZM171.019 17.384C170.404 17.384 169.821 17.526 169.291 17.8254L170.275 19.5666C170.481 19.45 170.721 19.384 171.019 19.384V17.384ZM169.297 17.8218C168.766 18.1169 168.35 18.5435 168.056 19.0759L169.806 20.0441C169.927 19.8245 170.08 19.6751 170.268 19.5702L169.297 17.8218ZM168.048 19.0904C167.762 19.6285 167.631 20.2213 167.631 20.844H169.631C169.631 20.5067 169.7 20.2435 169.814 20.0296L168.048 19.0904ZM167.631 20.844C167.631 21.4717 167.76 22.0692 168.048 22.6096L169.814 21.6704C169.701 21.4588 169.631 21.1923 169.631 20.844H167.631ZM168.06 22.6321C168.355 23.1528 168.765 23.571 169.283 23.8699L170.283 22.1381C170.08 22.021 169.923 21.8632 169.801 21.6479L168.06 22.6321ZM169.305 23.8826C169.833 24.1692 170.411 24.304 171.019 24.304V22.304C170.714 22.304 170.469 22.2388 170.26 22.1254L169.305 23.8826ZM171.019 24.304C171.534 24.304 172.03 24.1988 172.492 23.9793L171.634 22.1727C171.456 22.2572 171.256 22.304 171.019 22.304V24.304ZM172.492 23.9793C172.985 23.7451 173.385 23.388 173.687 22.9347L172.023 21.8253C171.909 21.996 171.781 22.1029 171.634 22.1727L172.492 23.9793ZM172.293 23.2072L172.929 23.6392L174.053 21.9848L173.417 21.5528L172.293 23.2072ZM172.636 22.2926C172.487 22.5378 172.289 22.7207 172.024 22.8536L172.918 24.6424C173.516 24.3433 173.998 23.9022 174.345 23.3314L172.636 22.2926ZM172.037 22.847C171.756 22.9825 171.422 23.06 171.019 23.06V25.06C171.687 25.06 172.322 24.9295 172.905 24.649L172.037 22.847ZM178.559 23.616L179.228 24.3593L179.789 23.854L179.457 23.1758L178.559 23.616ZM177.959 23.952L178.255 24.9071L178.265 24.904L178.275 24.9007L177.959 23.952ZM175.859 23.58L175.152 24.2871L175.152 24.2871L175.859 23.58ZM175.379 18.408H176.379V17.408H175.379V18.408ZM174.251 18.408H173.251V19.408H174.251V18.408ZM174.251 17.688V16.688H173.251V17.688H174.251ZM175.379 17.688V18.688H176.379V17.688H175.379ZM175.379 16.308V15.308H174.379V16.308H175.379ZM176.231 16.308H177.231V15.308H176.231V16.308ZM176.231 17.688H175.231V18.688H176.231V17.688ZM178.151 17.688H179.151V16.688H178.151V17.688ZM178.151 18.408V19.408H179.151V18.408H178.151ZM176.231 18.408V17.408H175.231V18.408H176.231ZM176.507 23.04L175.771 23.7171L175.785 23.7324L175.8 23.7471L176.507 23.04ZM177.827 23.244L177.511 22.2953L177.504 22.2977L177.497 22.3001L177.827 23.244ZM178.259 23.004L179.157 22.5638L178.585 21.3979L177.604 22.2483L178.259 23.004ZM177.89 22.8727C177.848 22.91 177.775 22.9593 177.643 23.0033L178.275 24.9007C178.623 24.7847 178.949 24.61 179.228 24.3593L177.89 22.8727ZM177.662 22.9969C177.532 23.0376 177.388 23.06 177.227 23.06V25.06C177.578 25.06 177.922 25.0104 178.255 24.9071L177.662 22.9969ZM177.227 23.06C176.815 23.06 176.646 22.9528 176.566 22.8729L175.152 24.2871C175.712 24.8472 176.455 25.06 177.227 25.06V23.06ZM176.566 22.8729C176.484 22.7906 176.379 22.6233 176.379 22.224H174.379C174.379 22.9927 174.594 23.7294 175.152 24.2871L176.566 22.8729ZM176.379 22.224V18.408H174.379V22.224H176.379ZM175.379 17.408H174.251V19.408H175.379V17.408ZM175.251 18.408V17.688H173.251V18.408H175.251ZM174.251 18.688H175.379V16.688H174.251V18.688ZM176.379 17.688V16.308H174.379V17.688H176.379ZM175.379 17.308H176.231V15.308H175.379V17.308ZM175.231 16.308V17.688H177.231V16.308H175.231ZM176.231 18.688H178.151V16.688H176.231V18.688ZM177.151 17.688V18.408H179.151V17.688H177.151ZM178.151 17.408H176.231V19.408H178.151V17.408ZM175.231 18.408V22.176H177.231V18.408H175.231ZM175.231 22.176C175.231 22.706 175.361 23.2718 175.771 23.7171L177.243 22.3629C177.26 22.3815 177.259 22.3909 177.252 22.3697C177.244 22.3446 177.231 22.2848 177.231 22.176H175.231ZM175.8 23.7471C176.23 24.1776 176.788 24.328 177.323 24.328V22.328C177.236 22.328 177.196 22.316 177.188 22.313C177.184 22.3117 177.187 22.3122 177.193 22.3164C177.2 22.3206 177.207 22.3263 177.214 22.3329L175.8 23.7471ZM177.323 24.328C177.607 24.328 177.887 24.2824 178.157 24.1879L177.497 22.3001C177.447 22.3176 177.391 22.328 177.323 22.328V24.328ZM178.143 24.1927C178.421 24.1 178.684 23.959 178.914 23.7597L177.604 22.2483C177.594 22.257 177.569 22.276 177.511 22.2953L178.143 24.1927ZM177.361 23.4442L177.661 24.0562L179.457 23.1758L179.157 22.5638L177.361 23.4442ZM180.823 23.652L180.326 24.5194L180.336 24.5255L180.823 23.652ZM179.671 22.5L178.804 22.9977L178.804 22.9977L179.671 22.5ZM179.671 19.188L178.804 18.6903L178.804 18.6903L179.671 19.188ZM180.823 18.048L180.336 17.1745L180.336 17.1745L180.823 18.048ZM184.111 18.048L184.598 17.1745L184.598 17.1745L184.111 18.048ZM185.251 19.188L184.378 19.6749L184.384 19.6857L185.251 19.188ZM185.251 22.5L184.384 22.0023L184.378 22.0131L185.251 22.5ZM184.111 23.652L184.598 24.5255L184.609 24.5194L184.111 23.652ZM183.667 23.004L184.161 23.8735L184.167 23.8699L183.667 23.004ZM184.507 22.128L185.39 22.5976L185.39 22.5976L184.507 22.128ZM184.507 19.56L185.39 19.0904L185.39 19.0904L184.507 19.56ZM183.667 18.696L183.158 19.5569L183.17 19.5637L183.182 19.5702L183.667 18.696ZM181.255 18.696L181.749 19.5655L181.755 19.5619L181.255 18.696ZM180.415 19.56L179.54 19.0759L179.536 19.0831L179.532 19.0904L180.415 19.56ZM180.415 22.128L179.532 22.5976L179.536 22.6049L179.54 22.6121L180.415 22.128ZM181.255 23.004L180.746 23.8649L180.758 23.8717L180.77 23.8782L181.255 23.004ZM182.467 23.06C182.014 23.06 181.636 22.9603 181.31 22.7785L180.336 24.5255C180.986 24.8877 181.704 25.06 182.467 25.06V23.06ZM181.321 22.7846C180.987 22.5929 180.73 22.3365 180.539 22.0023L178.804 22.9977C179.172 23.6395 179.684 24.1511 180.326 24.5194L181.321 22.7846ZM180.539 22.0023C180.354 21.6799 180.251 21.3024 180.251 20.844H178.251C178.251 21.6176 178.429 22.3441 178.804 22.9977L180.539 22.0023ZM180.251 20.844C180.251 20.3856 180.354 20.0081 180.539 19.6857L178.804 18.6903C178.429 19.3439 178.251 20.0704 178.251 20.844H180.251ZM180.539 19.6857C180.729 19.354 180.982 19.1044 181.31 18.9215L180.336 17.1745C179.689 17.5356 179.174 18.046 178.804 18.6903L180.539 19.6857ZM181.31 18.9215C181.636 18.7397 182.014 18.64 182.467 18.64V16.64C181.704 16.64 180.986 16.8123 180.336 17.1745L181.31 18.9215ZM182.467 18.64C182.92 18.64 183.298 18.7397 183.624 18.9215L184.598 17.1745C183.948 16.8123 183.23 16.64 182.467 16.64V18.64ZM183.624 18.9215C183.95 19.103 184.196 19.3491 184.378 19.6749L186.125 18.7011C185.762 18.0509 185.248 17.537 184.598 17.1745L183.624 18.9215ZM184.384 19.6857C184.569 20.0081 184.671 20.3856 184.671 20.844H186.671C186.671 20.0704 186.494 19.3439 186.119 18.6903L184.384 19.6857ZM184.671 20.844C184.671 21.3024 184.569 21.6799 184.384 22.0023L186.119 22.9977C186.494 22.3441 186.671 21.6176 186.671 20.844H184.671ZM184.378 22.0131C184.195 22.3414 183.945 22.5943 183.614 22.7846L184.609 24.5194C185.253 24.1497 185.764 23.6346 186.125 22.9869L184.378 22.0131ZM183.624 22.7785C183.298 22.9603 182.92 23.06 182.467 23.06V25.06C183.23 25.06 183.948 24.8877 184.598 24.5255L183.624 22.7785ZM182.467 24.304C183.07 24.304 183.643 24.1679 184.161 23.8735L183.173 22.1345C182.987 22.2401 182.761 22.304 182.467 22.304V24.304ZM184.167 23.8699C184.694 23.5658 185.104 23.1347 185.39 22.5976L183.624 21.6584C183.51 21.8733 183.361 22.0262 183.167 22.1381L184.167 23.8699ZM185.39 22.5976C185.676 22.0595 185.807 21.4667 185.807 20.844H183.807C183.807 21.1813 183.738 21.4445 183.624 21.6584L185.39 22.5976ZM185.807 20.844C185.807 20.2213 185.676 19.6285 185.39 19.0904L183.624 20.0296C183.738 20.2435 183.807 20.5067 183.807 20.844H185.807ZM185.39 19.0904C185.103 18.5502 184.688 18.1189 184.153 17.8218L183.182 19.5702C183.367 19.6731 183.512 19.8178 183.624 20.0296L185.39 19.0904ZM184.176 17.8351C183.655 17.5274 183.077 17.384 182.467 17.384V19.384C182.754 19.384 182.975 19.4486 183.158 19.5569L184.176 17.8351ZM182.467 17.384C181.858 17.384 181.279 17.5275 180.755 17.8301L181.755 19.5619C181.952 19.4485 182.181 19.384 182.467 19.384V17.384ZM180.761 17.8265C180.239 18.1231 179.832 18.5492 179.54 19.0759L181.29 20.0441C181.415 19.8188 181.567 19.6689 181.749 19.5655L180.761 17.8265ZM179.532 19.0904C179.246 19.6285 179.115 20.2213 179.115 20.844H181.115C181.115 20.5067 181.184 20.2435 181.298 20.0296L179.532 19.0904ZM179.115 20.844C179.115 21.4667 179.246 22.0595 179.532 22.5976L181.298 21.6584C181.184 21.4445 181.115 21.1813 181.115 20.844H179.115ZM179.54 22.6121C179.83 23.1358 180.233 23.5615 180.746 23.8649L181.764 22.1431C181.573 22.0305 181.417 21.8722 181.29 21.6439L179.54 22.6121ZM180.77 23.8782C181.291 24.1678 181.865 24.304 182.467 24.304V22.304C182.174 22.304 181.939 22.2402 181.741 22.1298L180.77 23.8782ZM188.227 18.924H187.227L189.131 19.3506L188.227 18.924ZM189.115 17.964L188.639 17.0841L188.632 17.0882L189.115 17.964ZM190.591 17.64H191.591V16.64H190.591V17.64ZM190.591 18.468L190.532 19.4663L191.591 19.5286V18.468H190.591ZM190.387 18.456L190.445 17.4577L190.416 17.456H190.387V18.456ZM188.827 19.068L189.562 19.7457L189.562 19.7457L188.827 19.068ZM188.263 24V25H189.263V24H188.263ZM187.411 24H186.411V25H187.411V24ZM187.411 17.688V16.688H186.411V17.688H187.411ZM188.227 17.688H189.227V16.688H188.227V17.688ZM189.131 19.3506C189.246 19.1074 189.399 18.9492 189.597 18.8398L188.632 17.0882C188.047 17.4108 187.608 17.8926 187.322 18.4974L189.131 19.3506ZM189.59 18.8439C189.808 18.726 190.127 18.64 190.591 18.64V16.64C189.887 16.64 189.221 16.77 188.64 17.0841L189.59 18.8439ZM189.591 17.64V18.468H191.591V17.64H189.591ZM190.649 17.4697L190.445 17.4577L190.328 19.4543L190.532 19.4663L190.649 17.4697ZM190.387 17.456C189.503 17.456 188.694 17.7368 188.091 18.3903L189.562 19.7457C189.712 19.5832 189.942 19.456 190.387 19.456V17.456ZM188.091 18.3903C187.496 19.0365 187.263 19.8807 187.263 20.784H189.263C189.263 20.2153 189.406 19.9155 189.562 19.7457L188.091 18.3903ZM187.263 20.784V24H189.263V20.784H187.263ZM188.263 23H187.411V25H188.263V23ZM188.411 24V17.688H186.411V24H188.411ZM187.411 18.688H188.227V16.688H187.411V18.688ZM187.227 17.688V18.924H189.227V17.688H187.227ZM197.571 21.108V22.108H198.526L198.57 21.1534L197.571 21.108ZM192.291 21.108V20.108H191.215L191.293 21.181L192.291 21.108ZM193.047 22.704L192.38 23.4493L192.387 23.4558L193.047 22.704ZM195.855 23.1L196.238 24.0237L196.247 24.0198L196.257 24.0156L195.855 23.1ZM196.707 22.476L197.461 21.8198L196.712 20.9583L195.957 21.8144L196.707 22.476ZM197.187 23.028L197.955 23.6682L198.5 23.0142L197.941 22.3718L197.187 23.028ZM196.131 23.796L195.747 22.8724L195.741 22.875L196.131 23.796ZM193.023 23.652L192.531 24.5228L192.539 24.5275L192.548 24.532L193.023 23.652ZM191.859 22.5L190.991 22.9977L190.991 22.9977L191.859 22.5ZM191.835 19.188L190.961 18.7011L190.955 18.7122L191.835 19.188ZM192.939 18.048L192.439 17.1815L192.433 17.1853L192.939 18.048ZM197.187 19.188L196.307 19.6638L196.311 19.6699L197.187 19.188ZM197.583 20.844L198.582 20.8894L198.583 20.8667V20.844H197.583ZM192.987 18.96L193.672 19.6882L193.673 19.6878L192.987 18.96ZM192.291 20.472L191.295 20.3826L191.197 21.472H192.291V20.472ZM196.767 20.472V21.472H197.86L197.763 20.3826L196.767 20.472ZM196.059 18.96L195.366 19.6811L195.373 19.688L195.38 19.6948L196.059 18.96ZM197.571 20.108H192.291V22.108H197.571V20.108ZM191.293 21.181C191.359 22.0741 191.715 22.8547 192.38 23.4492L193.714 21.9588C193.466 21.7373 193.319 21.4539 193.288 21.035L191.293 21.181ZM192.387 23.4558C193.052 24.0392 193.874 24.304 194.775 24.304V22.304C194.283 22.304 193.953 22.1688 193.706 21.9522L192.387 23.4558ZM194.775 24.304C195.284 24.304 195.776 24.2151 196.238 24.0237L195.472 22.1763C195.277 22.2569 195.049 22.304 194.775 22.304V24.304ZM196.257 24.0156C196.719 23.8125 197.122 23.5171 197.457 23.1376L195.957 21.8144C195.812 21.9789 195.646 22.0995 195.453 22.1844L196.257 24.0156ZM195.952 23.1322L196.432 23.6842L197.941 22.3718L197.461 21.8198L195.952 23.1322ZM196.418 22.3878C196.247 22.5934 196.03 22.7552 195.747 22.8724L196.514 24.7196C197.08 24.4848 197.566 24.1346 197.955 23.6682L196.418 22.3878ZM195.741 22.875C195.462 22.9932 195.136 23.06 194.751 23.06V25.06C195.373 25.06 195.968 24.9508 196.52 24.717L195.741 22.875ZM194.751 23.06C194.246 23.06 193.837 22.9554 193.498 22.772L192.548 24.532C193.216 24.8926 193.959 25.06 194.751 25.06V23.06ZM193.514 22.7812C193.173 22.5884 192.915 22.3324 192.726 22.0023L190.991 22.9977C191.362 23.6436 191.881 24.1556 192.531 24.5228L193.514 22.7812ZM192.726 22.0023C192.541 21.6799 192.439 21.3024 192.439 20.844H190.439C190.439 21.6176 190.616 22.3441 190.991 22.9977L192.726 22.0023ZM192.439 20.844C192.439 20.3755 192.538 19.9901 192.714 19.6638L190.955 18.7122C190.604 19.3619 190.439 20.0805 190.439 20.844H192.439ZM192.708 19.6749C192.897 19.3364 193.14 19.0889 193.444 18.9107L192.433 17.1853C191.809 17.5511 191.317 18.0636 190.961 18.7011L192.708 19.6749ZM193.438 18.9144C193.747 18.7362 194.101 18.64 194.523 18.64V16.64C193.777 16.64 193.074 16.8158 192.439 17.1816L193.438 18.9144ZM194.523 18.64C194.945 18.64 195.291 18.7362 195.589 18.9107L196.6 17.1853C195.97 16.8158 195.269 16.64 194.523 16.64V18.64ZM195.589 18.9107C195.89 19.0873 196.127 19.3312 196.307 19.6638L198.066 18.7122C197.718 18.0688 197.227 17.5527 196.6 17.1853L195.589 18.9107ZM196.311 19.6699C196.483 19.9828 196.583 20.3648 196.583 20.844H198.583C198.583 20.0752 198.419 19.3532 198.063 18.7061L196.311 19.6699ZM196.584 20.7986L196.572 21.0626L198.57 21.1534L198.582 20.8894L196.584 20.7986ZM194.523 17.372C193.678 17.372 192.915 17.6535 192.301 18.2322L193.673 19.6878C193.89 19.4825 194.152 19.372 194.523 19.372V17.372ZM192.301 18.2318C191.694 18.8037 191.37 19.5458 191.295 20.3826L193.287 20.5614C193.324 20.1502 193.464 19.8843 193.672 19.6882L192.301 18.2318ZM192.291 21.472H196.767V19.472H192.291V21.472ZM197.763 20.3826C197.687 19.54 197.355 18.7959 196.737 18.2252L195.38 19.6948C195.594 19.8921 195.734 20.156 195.771 20.5614L197.763 20.3826ZM196.752 18.2389C196.14 17.6513 195.372 17.372 194.523 17.372V19.372C194.906 19.372 195.161 19.4847 195.366 19.6811L196.752 18.2389ZM199.533 23.844L199.222 24.7943L199.231 24.7975L199.241 24.8005L199.533 23.844ZM198.441 23.28L197.573 22.7839L197.161 23.5051L197.794 24.0425L198.441 23.28ZM198.825 22.608L199.444 21.8225L198.532 21.1044L197.957 22.1119L198.825 22.608ZM199.821 23.124L199.499 24.0708L199.508 24.0737L199.516 24.0764L199.821 23.124ZM202.341 23.052L202.884 23.8916L202.89 23.8877L202.341 23.052ZM202.533 21.744L201.866 22.4892L201.877 22.4992L201.889 22.5089L202.533 21.744ZM201.957 21.444L201.661 22.3991L201.676 22.4038L201.691 22.408L201.957 21.444ZM201.033 21.24L200.849 22.2229L200.859 22.2247L200.869 22.2264L201.033 21.24ZM199.797 20.952L199.481 21.9007L199.492 21.9044L199.503 21.9078L199.797 20.952ZM198.993 20.436L198.25 21.105L198.256 21.1117L198.262 21.1183L198.993 20.436ZM199.329 18.144L198.722 17.3492L198.722 17.3492L199.329 18.144ZM202.389 17.808L202.124 18.7723L202.133 18.7748L202.142 18.777L202.389 17.808ZM203.397 18.228L204.275 18.7058L204.712 17.9029L203.952 17.3959L203.397 18.228ZM203.025 18.912L202.456 19.7342L203.371 20.3681L203.903 19.3898L203.025 18.912ZM199.929 18.66L199.363 17.8352L199.352 17.843L199.929 18.66ZM199.749 19.992L199.061 20.718L199.07 20.7267L199.08 20.7353L199.749 19.992ZM200.337 20.316L200.041 21.2711L200.056 21.2758L200.071 21.28L200.337 20.316ZM201.297 20.52L201.484 19.5376L201.471 19.5352L201.297 20.52ZM202.509 20.808L202.208 21.7616L202.208 21.7616L202.509 20.808ZM203.289 21.3L202.557 21.9814L202.557 21.9814L203.289 21.3ZM202.917 23.58L203.491 24.3986L203.494 24.3966L202.917 23.58ZM201.009 23.06C200.592 23.06 200.199 23.0016 199.825 22.8875L199.241 24.8005C199.811 24.9744 200.402 25.06 201.009 25.06V23.06ZM199.844 22.8937C199.456 22.7667 199.222 22.6309 199.088 22.5175L197.794 24.0425C198.188 24.3771 198.681 24.6173 199.222 24.7943L199.844 22.8937ZM199.309 23.7761L199.693 23.1041L197.957 22.1119L197.573 22.7839L199.309 23.7761ZM198.206 23.3935C198.579 23.6871 199.018 23.9072 199.499 24.0708L200.143 22.1772C199.824 22.0688 199.599 21.9449 199.444 21.8225L198.206 23.3935ZM199.516 24.0764C200.017 24.2368 200.536 24.316 201.069 24.316V22.316C200.737 22.316 200.424 22.2672 200.126 22.1716L199.516 24.0764ZM201.069 24.316C201.707 24.316 202.368 24.2258 202.884 23.8916L201.798 22.2124C201.77 22.2302 201.583 22.316 201.069 22.316V24.316ZM202.89 23.8877C203.444 23.5236 203.761 22.9573 203.761 22.284H201.761C201.761 22.2946 201.76 22.2934 201.762 22.2834C201.765 22.2728 201.77 22.2581 201.779 22.2422C201.787 22.2264 201.796 22.2155 201.801 22.21C201.806 22.2049 201.805 22.2078 201.792 22.2163L202.89 23.8877ZM203.761 22.284C203.761 21.8119 203.594 21.3298 203.177 20.9791L201.889 22.5089C201.846 22.473 201.807 22.422 201.783 22.364C201.76 22.3101 201.761 22.277 201.761 22.284H203.761ZM203.2 20.9988C202.914 20.743 202.577 20.5777 202.223 20.48L201.691 22.408C201.801 22.4383 201.848 22.473 201.866 22.4892L203.2 20.9988ZM202.253 20.4889C201.96 20.398 201.603 20.3212 201.197 20.2536L200.869 22.2264C201.231 22.2868 201.49 22.346 201.661 22.3991L202.253 20.4889ZM201.217 20.2571C200.723 20.1645 200.352 20.0766 200.091 19.9962L199.503 21.9078C199.866 22.0194 200.319 22.1235 200.849 22.2229L201.217 20.2571ZM200.113 20.0033C199.959 19.952 199.834 19.8714 199.724 19.7537L198.262 21.1183C198.6 21.4806 199.011 21.744 199.481 21.9007L200.113 20.0033ZM199.736 19.767C199.732 19.762 199.669 19.6961 199.669 19.44H197.669C197.669 20.0319 197.822 20.63 198.25 21.105L199.736 19.767ZM199.669 19.44C199.669 19.2409 199.73 19.0963 199.936 18.9388L198.722 17.3492C198.048 17.8637 197.669 18.5831 197.669 19.44H199.669ZM199.936 18.9388C200.142 18.7813 200.511 18.64 201.165 18.64V16.64C200.25 16.64 199.396 16.8347 198.722 17.3492L199.936 18.9388ZM201.165 18.64C201.48 18.64 201.799 18.6831 202.124 18.7723L202.654 16.8437C202.163 16.7089 201.666 16.64 201.165 16.64V18.64ZM202.142 18.777C202.474 18.8617 202.697 18.9635 202.842 19.06L203.952 17.3959C203.568 17.1405 203.12 16.9623 202.636 16.839L202.142 18.777ZM202.518 17.7502L202.146 18.4342L203.903 19.3898L204.275 18.7058L202.518 17.7502ZM203.594 18.0898C202.884 17.5985 202.059 17.372 201.165 17.372V19.372C201.711 19.372 202.125 19.5055 202.456 19.7342L203.594 18.0898ZM201.165 17.372C200.53 17.372 199.883 17.4791 199.363 17.8353L200.494 19.4847C200.535 19.4569 200.711 19.372 201.165 19.372V17.372ZM199.352 17.843C198.836 18.2076 198.521 18.7542 198.521 19.416H200.521C200.521 19.411 200.521 19.4159 200.519 19.4277C200.516 19.4399 200.51 19.4541 200.503 19.4679C200.496 19.4816 200.489 19.4896 200.487 19.4919C200.485 19.4938 200.49 19.4882 200.506 19.477L199.352 17.843ZM198.521 19.416C198.521 19.8866 198.68 20.3569 199.061 20.718L200.437 19.266C200.465 19.2928 200.491 19.3305 200.508 19.372C200.523 19.4105 200.521 19.4301 200.521 19.416H198.521ZM199.08 20.7353C199.36 20.9877 199.688 21.1617 200.041 21.2711L200.633 19.3609C200.522 19.3263 200.457 19.2843 200.418 19.2487L199.08 20.7353ZM200.071 21.28C200.347 21.3562 200.703 21.4306 201.123 21.5048L201.471 19.5352C201.075 19.4654 200.79 19.4038 200.603 19.352L200.071 21.28ZM201.11 21.5023C201.595 21.5948 201.957 21.6823 202.208 21.7616L202.81 19.8544C202.453 19.7417 202.006 19.6372 201.484 19.5377L201.11 21.5023ZM202.208 21.7616C202.348 21.8059 202.459 21.8766 202.557 21.9814L204.021 20.6186C203.686 20.2594 203.278 20.0021 202.81 19.8544L202.208 21.7616ZM202.557 21.9814C202.562 21.9868 202.573 21.9993 202.584 22.0338C202.597 22.0719 202.613 22.1429 202.613 22.26H204.613C204.613 21.6743 204.454 21.0841 204.021 20.6186L202.557 21.9814ZM202.613 22.26C202.613 22.4761 202.548 22.6163 202.34 22.7634L203.494 24.3966C204.214 23.8877 204.613 23.1479 204.613 22.26H202.613ZM202.342 22.7614C202.116 22.9201 201.71 23.06 201.009 23.06V25.06C201.94 25.06 202.805 24.8799 203.491 24.3986L202.342 22.7614Z" fill="black"/>
</g>
<g filter="url(#filter1_d_209_2)">
<path d="M77.7006 64.16H75.4686V66.344H74.7126V64.16H72.4806V63.452H74.7126V61.256H75.4686V63.452H77.7006V64.16ZM81.375 63.044C82.591 63.044 83.475 63.264 84.027 63.704C84.587 64.136 84.867 64.744 84.867 65.528C84.867 66.016 84.751 66.452 84.519 66.836C84.295 67.22 83.955 67.524 83.499 67.748C83.043 67.964 82.483 68.072 81.819 68.072C81.219 68.072 80.647 67.976 80.103 67.784C79.567 67.584 79.135 67.32 78.807 66.992L79.227 66.308C79.507 66.596 79.875 66.832 80.331 67.016C80.787 67.192 81.279 67.28 81.807 67.28C82.503 67.28 83.039 67.124 83.415 66.812C83.799 66.5 83.991 66.084 83.991 65.564C83.991 64.988 83.775 64.552 83.343 64.256C82.919 63.96 82.199 63.812 81.183 63.812H79.395L79.827 59.6H84.423V60.368H80.583L80.295 63.044H81.375ZM91.7278 59.6V60.212L88.2118 68H87.2758L90.7318 60.368H86.4118V61.94H85.5598V59.6H91.7278ZM98.0228 70.328C97.5748 69.592 97.2308 68.748 96.9908 67.796C96.7508 66.836 96.6308 65.808 96.6308 64.712C96.6308 63.616 96.7508 62.588 96.9908 61.628C97.2308 60.66 97.5748 59.816 98.0228 59.096H98.8388C98.3668 59.904 98.0188 60.772 97.7948 61.7C97.5788 62.628 97.4708 63.632 97.4708 64.712C97.4708 65.792 97.5788 66.796 97.7948 67.724C98.0188 68.652 98.3668 69.52 98.8388 70.328H98.0228ZM102.812 63.2C103.692 63.248 104.36 63.488 104.816 63.92C105.28 64.344 105.512 64.9 105.512 65.588C105.512 66.068 105.396 66.496 105.164 66.872C104.932 67.24 104.588 67.532 104.132 67.748C103.676 67.964 103.12 68.072 102.464 68.072C101.856 68.072 101.28 67.976 100.736 67.784C100.2 67.584 99.768 67.32 99.44 66.992L99.86 66.308C100.14 66.596 100.512 66.832 100.976 67.016C101.44 67.192 101.936 67.28 102.464 67.28C103.152 67.28 103.684 67.132 104.06 66.836C104.436 66.532 104.624 66.116 104.624 65.588C104.624 65.068 104.436 64.66 104.06 64.364C103.684 64.068 103.116 63.92 102.356 63.92H101.756V63.284L104.084 60.368H99.788V59.6H105.188V60.212L102.812 63.2ZM112.407 67.232V68H106.515V67.388L110.007 63.968C110.447 63.536 110.743 63.164 110.895 62.852C111.055 62.532 111.135 62.212 111.135 61.892C111.135 61.396 110.963 61.012 110.619 60.74C110.283 60.46 109.799 60.32 109.167 60.32C108.183 60.32 107.419 60.632 106.875 61.256L106.263 60.728C106.591 60.344 107.007 60.048 107.511 59.84C108.023 59.632 108.599 59.528 109.239 59.528C110.095 59.528 110.771 59.732 111.267 60.14C111.771 60.54 112.023 61.092 112.023 61.796C112.023 62.228 111.927 62.644 111.735 63.044C111.543 63.444 111.179 63.904 110.643 64.424L107.787 67.232H112.407ZM116.792 68.072C116.144 68.072 115.564 67.9 115.052 67.556C114.548 67.212 114.152 66.72 113.864 66.08C113.584 65.432 113.444 64.672 113.444 63.8C113.444 62.928 113.584 62.172 113.864 61.532C114.152 60.884 114.548 60.388 115.052 60.044C115.564 59.7 116.144 59.528 116.792 59.528C117.44 59.528 118.016 59.7 118.52 60.044C119.032 60.388 119.432 60.884 119.72 61.532C120.008 62.172 120.152 62.928 120.152 63.8C120.152 64.672 120.008 65.432 119.72 66.08C119.432 66.72 119.032 67.212 118.52 67.556C118.016 67.9 117.44 68.072 116.792 68.072ZM116.792 67.28C117.28 67.28 117.708 67.144 118.076 66.872C118.452 66.6 118.744 66.204 118.952 65.684C119.16 65.164 119.264 64.536 119.264 63.8C119.264 63.064 119.16 62.436 118.952 61.916C118.744 61.396 118.452 61 118.076 60.728C117.708 60.456 117.28 60.32 116.792 60.32C116.304 60.32 115.872 60.456 115.496 60.728C115.128 61 114.84 61.396 114.632 61.916C114.424 62.436 114.32 63.064 114.32 63.8C114.32 64.536 114.424 65.164 114.632 65.684C114.84 66.204 115.128 66.6 115.496 66.872C115.872 67.144 116.304 67.28 116.792 67.28ZM121.246 70.328C121.718 69.52 122.066 68.656 122.29 67.736C122.514 66.808 122.626 65.8 122.626 64.712C122.626 63.624 122.514 62.62 122.29 61.7C122.066 60.772 121.718 59.904 121.246 59.096H122.062C122.51 59.816 122.854 60.66 123.094 61.628C123.342 62.588 123.466 63.616 123.466 64.712C123.466 65.808 123.346 66.836 123.106 67.796C122.866 68.756 122.518 69.6 122.062 70.328H121.246ZM134.215 67.232V68H128.323V67.388L131.815 63.968C132.255 63.536 132.551 63.164 132.703 62.852C132.863 62.532 132.943 62.212 132.943 61.892C132.943 61.396 132.771 61.012 132.427 60.74C132.091 60.46 131.607 60.32 130.975 60.32C129.991 60.32 129.227 60.632 128.683 61.256L128.071 60.728C128.399 60.344 128.815 60.048 129.319 59.84C129.831 59.632 130.407 59.528 131.047 59.528C131.903 59.528 132.579 59.732 133.075 60.14C133.579 60.54 133.831 61.092 133.831 61.796C133.831 62.228 133.735 62.644 133.543 63.044C133.351 63.444 132.987 63.904 132.451 64.424L129.595 67.232H134.215ZM137.628 59.6V68H136.764V60.368H134.784V59.6H137.628ZM145.564 59.6V60.212L142.048 68H141.112L144.568 60.368H140.248V61.94H139.396V59.6H145.564ZM155.579 67.232V68H149.687V67.388L153.179 63.968C153.619 63.536 153.915 63.164 154.067 62.852C154.227 62.532 154.307 62.212 154.307 61.892C154.307 61.396 154.135 61.012 153.791 60.74C153.455 60.46 152.971 60.32 152.339 60.32C151.355 60.32 150.591 60.632 150.047 61.256L149.435 60.728C149.763 60.344 150.179 60.048 150.683 59.84C151.195 59.632 151.771 59.528 152.411 59.528C153.267 59.528 153.943 59.732 154.439 60.14C154.943 60.54 155.195 61.092 155.195 61.796C155.195 62.228 155.099 62.644 154.907 63.044C154.715 63.444 154.351 63.904 153.815 64.424L150.959 67.232H155.579ZM159.279 59.528C160.391 59.528 161.243 59.896 161.835 60.632C162.427 61.36 162.723 62.392 162.723 63.728C162.723 64.664 162.563 65.456 162.243 66.104C161.923 66.752 161.475 67.244 160.899 67.58C160.323 67.908 159.651 68.072 158.883 68.072C158.051 68.072 157.387 67.92 156.891 67.616L157.239 66.92C157.639 67.184 158.183 67.316 158.871 67.316C159.799 67.316 160.527 67.024 161.055 66.44C161.583 65.848 161.847 64.992 161.847 63.872C161.847 63.664 161.835 63.436 161.811 63.188C161.603 63.644 161.271 64 160.815 64.256C160.359 64.504 159.835 64.628 159.243 64.628C158.691 64.628 158.199 64.524 157.767 64.316C157.343 64.108 157.011 63.816 156.771 63.44C156.531 63.056 156.411 62.612 156.411 62.108C156.411 61.596 156.535 61.144 156.783 60.752C157.031 60.36 157.371 60.06 157.803 59.852C158.243 59.636 158.735 59.528 159.279 59.528ZM159.375 63.896C159.799 63.896 160.171 63.816 160.491 63.656C160.819 63.496 161.075 63.276 161.259 62.996C161.443 62.716 161.535 62.404 161.535 62.06C161.535 61.74 161.447 61.444 161.271 61.172C161.103 60.9 160.851 60.68 160.515 60.512C160.179 60.344 159.779 60.26 159.315 60.26C158.707 60.26 158.211 60.428 157.827 60.764C157.451 61.092 157.263 61.532 157.263 62.084C157.263 62.636 157.451 63.076 157.827 63.404C158.211 63.732 158.727 63.896 159.375 63.896ZM166.28 59.6V68H165.416V60.368H163.436V59.6H166.28ZM170.616 59.6V68H169.752V60.368H167.772V59.6H170.616Z" fill="black"/>
</g>
<rect x="0.5" y="0.5" width="241" height="76" stroke="black"/>
</g>
<defs>
<filter id="filter0_d_209_2" x="44.5631" y="15.096" width="163.05" height="19.292" filterUnits="userSpaceOnUse" color-interpolation-filters="sRGB">
<feFlood flood-opacity="0" result="BackgroundImageFix"/>
<feColorMatrix in="SourceAlpha" type="matrix" values="0 0 0 0 0 0 0 0 0 0 0 0 0 0 0 0 0 0 127 0" result="hardAlpha"/>
<feOffset dy="4"/>
<feGaussianBlur stdDeviation="2"/>
<feComposite in2="hardAlpha" operator="out"/>
<feColorMatrix type="matrix" values="0 0 0 0 0 0 0 0 0 0 0 0 0 0 0 0 0 0 0.25 0"/>
<feBlend mode="normal" in2="BackgroundImageFix" result="effect1_dropShadow_209_2"/>
<feBlend mode="normal" in="SourceGraphic" in2="effect1_dropShadow_209_2" result="shape"/>
</filter>
<filter id="filter1_d_209_2" x="68.4806" y="59.096" width="106.135" height="19.232" filterUnits="userSpaceOnUse" color-interpolation-filters="sRGB">
<feFlood flood-opacity="0" result="BackgroundImageFix"/>
<feColorMatrix in="SourceAlpha" type="matrix" values="0 0 0 0 0 0 0 0 0 0 0 0 0 0 0 0 0 0 127 0" result="hardAlpha"/>
<feOffset dy="4"/>
<feGaussianBlur stdDeviation="2"/>
<feComposite in2="hardAlpha" operator="out"/>
<feColorMatrix type="matrix" values="0 0 0 0 0 0 0 0 0 0 0 0 0 0 0 0 0 0 0.25 0"/>
<feBlend mode="normal" in2="BackgroundImageFix" result="effect1_dropShadow_209_2"/>
<feBlend mode="normal" in="SourceGraphic" in2="effect1_dropShadow_209_2" result="shape"/>
</filter>
</defs>
</svg>
